<?xml version="1.0" standalone="no"?>
<!DOCTYPE svg PUBLIC "-//W3C//DTD SVG 20010904//EN"
 "http://www.w3.org/TR/2001/REC-SVG-20010904/DTD/svg10.dtd">
<svg version="1.0" xmlns="http://www.w3.org/2000/svg"
 width="1280.000000pt" height="1110.000000pt" viewBox="0 0 1280.000000 1110.000000"
 preserveAspectRatio="xMidYMid meet">
<metadata>
Created by potrace 1.15, written by Peter Selinger 2001-2017
</metadata>
<g transform="translate(0.000000,1110.000000) scale(0.100000,-0.100000)"
fill="#000000" stroke="none">
<path d="M6289 11082 c-61 -20 -129 -64 -171 -109 -29 -31 -6032 -10338 -6082
-10443 -28 -58 -31 -75 -31 -155 0 -76 5 -99 27 -147 37 -80 108 -152 187
-191 l66 -32 6115 0 6115 0 66 32 c79 39 150 111 187 191 22 48 27 71 27 148
0 86 -2 95 -40 170 -90 180 -6042 10389 -6083 10435 -90 101 -254 144 -383
101z m697 -2200 c526 -919 1538 -2687 3755 -6559 423 -739 769 -1345 769
-1348 0 -3 -2302 -5 -5115 -5 -2813 0 -5115 1 -5115 3 0 2 111 197 247 434
137 237 1288 2245 2558 4462 1271 2216 2312 4030 2315 4030 3 0 267 -457 586
-1017z"/>
<path d="M6365 7208 c-2 -7 -94 -330 -204 -718 -110 -388 -303 -1069 -430
-1515 -330 -1164 -362 -1277 -359 -1280 2 -1 342 135 756 302 415 167 755 303
757 301 2 -2 -34 -134 -80 -293 -142 -495 -395 -1377 -416 -1447 l-20 -68
-149 0 c-83 0 -150 -2 -150 -3 0 -2 56 -163 124 -358 68 -195 154 -443 192
-552 38 -108 72 -196 76 -195 10 4 718 1059 718 1070 0 4 -63 8 -141 8 l-141
0 7 28 c7 30 646 2396 725 2689 28 100 50 183 50 186 0 2 -345 -135 -767 -305
-422 -169 -770 -307 -774 -306 -3 2 78 194 181 428 103 234 332 756 510 1160
177 404 337 768 356 808 l33 72 -425 0 c-331 0 -426 -3 -429 -12z"/>
</g>
</svg>
