<?xml version="1.0" encoding="UTF-8"?>
<svg xmlns="http://www.w3.org/2000/svg" width="800.000" height="600.000" viewBox="0.0 0.0 800.000 600.000" version="1.1">
  <title>Produce by Acme CAD Converter</title>
  <desc>Produce by Acme CAD Converter</desc>
<polyline points="497.72,349.81 498.83,348 499.62,346.02 500.05,343.93 500.12,341.8 499.82,339.7 499.17,337.67 498.18,335.79 496.88,334.1 495.32,332.66 493.53,331.51 491.56,330.68 489.49,330.2 487.36,330.08" style="fill:none;stroke:black;stroke-width:0.5"/>
<polyline points="487.36,330.08 483.68,331.47 480.02,332.87 476.37,334.26 472.73,335.66 469.1,337.06 465.49,338.46 461.9,339.87 458.32,341.28 454.75,342.69 451.2,344.1 447.66,345.52 444.13,346.93 440.62,348.35 437.13,349.78 433.65,351.2 430.18,352.63 426.73,354.06 423.29,355.49 419.87,356.92 416.46,358.36 413.07,359.8 409.69,361.24 406.33,362.69 402.98,364.14 399.65,365.59 396.33,367.04 393.03,368.5 389.74,369.95 386.47,371.41 383.21,372.88 379.97,374.34 376.75,375.81 373.54,377.29 370.35,378.76 367.18,380.24 364.02,381.72 360.87,383.2 357.75,384.69 354.64,386.18 351.54,387.67 348.47,389.17 345.41,390.67 342.37,392.17 339.34,393.68 336.33,395.19 333.34,396.7 330.37,398.22 327.41,399.74 324.47,401.26 321.55,402.79 318.65,404.32 315.77,405.85 312.9,407.39 310.05,408.93 307.22,410.48 304.41,412.03 301.61,413.58 298.84,415.14 296.08,416.7 293.34,418.27 290.62,419.84 287.92,421.41 285.23,422.99 282.57,424.57 279.92,426.16 277.29,427.75 274.68,429.35 272.09,430.95 269.51,432.56 266.96,434.17 264.42,435.78 261.9,437.41 259.4,439.03 256.92,440.66 254.45,442.3 252.01,443.94 249.58,445.59 247.17,447.24 244.77,448.9 242.4,450.56 240.04,452.23 237.7,453.91 235.37,455.59 233.07,457.28 230.78,458.97 228.5,460.67 226.25,462.37 224.01,464.08 221.79,465.8 219.58,467.52 217.39,469.25 215.21,470.99 213.05,472.73 210.91,474.48 208.79,476.24 206.67,478 204.58,479.77 202.5,481.55 200.43,483.34 198.38,485.13 196.35,486.93 194.32,488.73 192.32,490.54 190.33,492.37 188.35,494.19 186.39,496.03 184.44,497.87 182.51,499.72 180.59,501.58 178.68,503.45 176.79,505.32 174.91,507.21 173.05,509.1 171.2,510.99 169.36,512.9 167.54,514.82 165.73,516.74 163.93,518.67 162.15,520.61 160.38,522.56 158.62,524.51 156.88,526.48 155.15,528.45 153.43,530.43 151.72,532.42 150.03,534.42 148.36,536.43 146.69,538.44" style="fill:none;stroke:black;stroke-width:0.5"/>
<polyline points="146.69,538.44 144.11,541.17 141.81,544.13 139.8,547.3 138.11,550.65 136.75,554.15 135.74,557.76 135.08,561.45 134.79,565.19 134.85,568.94 135.28,572.67" style="fill:none;stroke:black;stroke-width:0.5"/>
<polyline points="135.28,572.67 135.71,575.24 136.14,577.8 136.56,580.35 136.99,582.9 137.41,585.45 137.83,587.99 138.25,590.53 138.66,593.06 139.07,595.59 139.47,598.12 139.77,600" style="fill:none;stroke:black;stroke-width:0.5"/>
<polyline points="354.25,600 355.73,597.71 358.46,593.52 361.17,589.31 363.88,585.1 366.58,580.88 369.28,576.66 371.97,572.42 374.65,568.18 377.33,563.93 380,559.67 382.67,555.41 385.33,551.13 387.98,546.85 390.62,542.56 393.26,538.26 395.89,533.95 398.52,529.64 401.13,525.31 403.74,520.98 406.35,516.63 408.94,512.28 411.53,507.92 414.11,503.55 416.68,499.17 419.25,494.78 421.81,490.38 424.36,485.97 426.9,481.56 429.44,477.13 431.96,472.69 434.49,468.25 437,463.8 439.51,459.33 442.01,454.86 444.5,450.38 446.99,445.89 449.46,441.4 451.94,436.89 454.4,432.38 456.86,427.85 459.31,423.32 461.76,418.79 464.2,414.24 466.63,409.69 469.06,405.12 471.48,400.56 473.9,395.98 476.3,391.39 478.71,386.8 481.11,382.2 483.5,377.6 485.88,372.99 488.26,368.37 490.64,363.74 493,359.1 495.37,354.46 497.72,349.81" style="fill:none;stroke:black;stroke-width:0.5"/>
<polyline points="333.81,0 333.06,1.6 330.29,8.42 327.88,15.37 325.85,22.45 324.2,29.62 322.93,36.87 322.04,44.17 321.55,51.52 321.44,58.88 321.72,66.23 322.4,73.56 323.46,80.84 324.91,88.06 326.73,95.19 328.93,102.21 331.51,109.1 334.44,115.85 337.72,122.44 341.36,128.84 345.32,135.04 349.61,141.02 354.21,146.77 359.11,152.26 364.29,157.48 369.74,162.43 375.45,167.08 381.39,171.41 387.56,175.43 393.93,179.12 400.49,182.46 407.21,185.45 414.09,188.08 421.09,190.34 428.2,192.22 435.41,193.73 442.68,194.85 450,195.59 457.36,195.93 464.71,195.89 472.06,195.45 479.37,194.63" style="fill:none;stroke:black;stroke-width:0.5"/>
<polyline points="479.37,194.63 481.65,194.31 483.92,193.98 486.2,193.65 488.47,193.31 490.75,192.96 493.03,192.61 495.31,192.25 497.59,191.88 499.87,191.51 502.15,191.13 504.43,190.75 506.71,190.36 509,189.96 511.28,189.56 513.57,189.15 515.85,188.73 518.14,188.31 520.43,187.89 522.71,187.45 525,187.01 527.29,186.56 529.58,186.11 534.17,185.19 538.76,184.24 543.35,183.28 547.95,182.28 552.55,181.27 557.15,180.23 561.76,179.17 566.37,178.09 570.99,176.99 575.61,175.87 580.24,174.73 584.87,173.57 589.51,172.4 594.15,171.2 598.79,169.99 603.44,168.76 608.1,167.51 612.76,166.24 617.43,164.96 622.1,163.67 626.78,162.36 631.47,161.04 636.16,159.71 640.86,158.36 645.56,157 650.28,155.63 654.99,154.25 659.72,152.87 664.45,151.47 669.19,150.06 673.94,148.65 678.69,147.23 683.45,145.8 688.22,144.36 693,142.93 697.78,141.48 702.58,140.04 707.38,138.59 712.19,137.14 717,135.68 721.83,134.23 726.66,132.77 731.51,131.32 736.36,129.87 741.22,128.41 746.09,126.96 750.96,125.52 755.85,124.07 760.75,122.63 765.65,121.19 770.56,119.76 775.49,118.34 780.42,116.92" style="fill:none;stroke:black;stroke-width:0.5"/>
<polyline points="780.42,116.92 777.2,127.78 773.99,138.59 770.77,149.37 767.56,160.1 764.34,170.8 761.12,181.45 757.91,192.07 754.69,202.64 751.47,213.17 748.25,223.67 745.02,234.12 741.8,244.54 738.58,254.91 735.35,265.25 732.13,275.55 728.9,285.81 725.68,296.03 722.45,306.21 719.22,316.35 715.99,326.46 712.76,336.52 709.53,346.55 706.3,356.55 703.07,366.5 699.83,376.42 696.6,386.3 693.36,396.14 690.13,405.95 686.89,415.72 683.66,425.45 680.42,435.15 677.18,444.81 673.94,454.44 670.7,464.03 667.46,473.58 664.22,483.1 660.97,492.59 657.73,502.03 654.49,511.45 651.24,520.83 648,530.17 644.75,539.48 641.5,548.76 638.26,558 635.01,567.2 631.76,576.38 628.51,585.52 625.26,594.62 623.33,600" style="fill:none;stroke:black;stroke-width:0.5"/>
</svg>
