<?xml version="1.0" encoding="UTF-8" standalone="yes"?>
<!-- Created with sK1/UniConvertor (http://sk1project.org/) -->
<svg xmlns="http://www.w3.org/2000/svg" xmlns:xlink="http://www.w3.org/1999/xlink"
  width="595.276pt" height="841.89pt" viewBox="0 0 595.276 841.89"
  fill-rule="evenodd">
<g>
<path style="stroke:#000000; stroke-width:0.850394; stroke-linejoin:round; stroke-linecap:round; fill:none" d="M -2.81711 842.977L -2.8225 842.986C -2.82609 842.992 -2.83147 843.001 -2.83864 843.012C -2.8458 843.024 -2.85472 843.039 -2.8654 843.057C -2.87607 843.075 -2.88845 843.095 -2.90254 843.118C -2.91663 843.141 -2.93236 843.166 -2.94971 843.194C -2.96707 843.222 -2.98428 843.25 -3.00136 843.276C -3.01844 843.303 -3.03536 843.33 -3.05213 843.356C -3.06891 843.381 -3.08552 843.407 -3.10198 843.431C -3.11843 843.456 -3.13473 843.48 -3.15088 843.504C -3.16703 843.527 -3.18304 843.55 -3.1989 843.573C -3.21476 843.596 -3.22893 843.615 -3.24142 843.633C -3.2539 843.65 -3.26476 843.665 -3.27401 843.678C -3.28326 843.69 -3.29095 843.701 -3.29707 843.709C -3.30319 843.717 -3.30777 843.723 -3.31082 843.727L -3.31539 843.733"/>
<path style="stroke:#000000; stroke-width:0.850394; stroke-linejoin:round; stroke-linecap:round; fill:none" d="M -3.31539 843.733C -3.34093 843.775 -3.35565 843.824 -3.35565 843.877C -3.35565 844.03 -3.23179 844.154 -3.0792 844.154C -3.04222 844.154 -3.00693 844.146 -2.97468 844.133"/>
<path style="stroke:#000000; stroke-width:0.850394; stroke-linejoin:round; stroke-linecap:round; fill:none" d="M -2.9747 844.133L -2.96759 844.13C -2.96285 844.128 -2.95575 844.125 -2.94631 844.121C -2.93686 844.116 -2.9251 844.111 -2.91102 844.105C -2.89694 844.098 -2.88062 844.091 -2.86204 844.082C -2.84347 844.073 -2.82275 844.063 -2.7999 844.051C -2.77704 844.04 -2.75439 844.028 -2.73196 844.015C -2.70953 844.003 -2.68738 843.99 -2.66549 843.977C -2.6436 843.964 -2.62205 843.95 -2.60086 843.935C -2.57966 843.921 -2.55891 843.906 -2.5386 843.89C -2.51829 843.874 -2.49854 843.857 -2.47934 843.839C -2.46013 843.821 -2.44338 843.805 -2.42908 843.788C -2.41478 843.772 -2.4026 843.757 -2.39256 843.744C -2.38251 843.731 -2.37429 843.719 -2.36791 843.71C -2.36152 843.701 -2.35677 843.693 -2.35366 843.689L -2.34898 843.681"/>
<path style="stroke:#000000; stroke-width:0.850394; stroke-linejoin:round; stroke-linecap:round; fill:none" d="M -2.34899 843.681C -2.3364 843.662 -2.3291 843.638 -2.3291 843.614C -2.3291 843.544 -2.38535 843.488 -2.45465 843.488C -2.48535 843.488 -2.5135 843.499 -2.53532 843.517"/>
<path style="stroke:#000000; stroke-width:0.850394; stroke-linejoin:round; stroke-linecap:round; fill:none" d="M -2.53533 843.517L -2.61899 843.604"/>
<path style="stroke:#000000; stroke-width:0.850394; stroke-linejoin:round; stroke-linecap:round; fill:none" d="M -2.80369 843.488C -2.81051 843.502 -2.81432 843.518 -2.81432 843.535C -2.81432 843.595 -2.76513 843.644 -2.70453 843.644C -2.66997 843.644 -2.63913 843.628 -2.619 843.604"/>
<path style="stroke:#000000; stroke-width:0.850394; stroke-linejoin:round; stroke-linecap:round; fill:none" d="M -2.80368 843.488L -2.79471 843.472C -2.78873 843.461 -2.77945 843.445 -2.76688 843.423C -2.75431 843.402 -2.73767 843.374 -2.71697 843.34C -2.69627 843.307 -2.67025 843.266 -2.63891 843.219C -2.60757 843.172 -2.56899 843.116 -2.52317 843.053C -2.47736 842.989 -2.42797 842.923 -2.375 842.855C -2.32204 842.786 -2.26527 842.715 -2.20471 842.642C -2.14414 842.569 -2.07977 842.493 -2.0116 842.414C -1.94342 842.336 -1.8717 842.255 -1.79644 842.172C -1.72117 842.089 -1.64268 842.003 -1.56096 841.916C -1.47924 841.828 -1.40334 841.748 -1.33327 841.675C -1.2632 841.602 -1.20066 841.537 -1.14565 841.48C -1.09063 841.424 -1.04424 841.376 -1.00649 841.338C -0.968734 841.3 -0.940283 841.271 -0.921137 841.251L -0.892417 841.222"/>
<path style="stroke:#000000; stroke-width:0.850394; stroke-linejoin:round; stroke-linecap:round; fill:none" d="M -0.89243 841.222C -0.866004 841.187 -0.850346 841.143 -0.850346 841.096C -0.850346 840.979 -0.945116 840.884 -1.06187 840.884C -1.13454 840.884 -1.1987 840.921 -1.23679 840.977"/>
<path style="stroke:#000000; stroke-width:0.850394; stroke-linejoin:round; stroke-linecap:round; fill:none" d="M -1.2368 840.977L -1.26534 841.007C -1.28437 841.027 -1.31294 841.056 -1.35106 841.096C -1.38917 841.135 -1.43689 841.184 -1.49423 841.243C -1.55156 841.302 -1.61862 841.369 -1.6954 841.446C -1.77218 841.523 -1.85886 841.608 -1.95542 841.701C -2.05199 841.795 -2.14889 841.887 -2.2461 841.977C -2.34332 842.068 -2.44089 842.157 -2.5388 842.244C -2.63672 842.332 -2.73501 842.418 -2.83366 842.502C -2.93232 842.587 -3.03133 842.67 -3.13069 842.751C -3.23005 842.832 -3.32975 842.912 -3.42977 842.991C -3.52979 843.07 -3.62005 843.139 -3.70055 843.2C -3.78105 843.261 -3.85162 843.313 -3.91225 843.358C -3.97288 843.402 -4.02346 843.439 -4.06399 843.469C -4.10452 843.498 -4.13494 843.519 -4.15523 843.534L -4.18567 843.556"/>
<path style="stroke:#000000; stroke-width:0.850394; stroke-linejoin:round; stroke-linecap:round; fill:none" d="M -4.30547 843.478C -4.30985 843.488 -4.31229 843.498 -4.31229 843.509C -4.31229 843.549 -4.28007 843.581 -4.24036 843.581C -4.21848 843.581 -4.19888 843.571 -4.18568 843.556"/>
<path style="stroke:#000000; stroke-width:0.850394; stroke-linejoin:round; stroke-linecap:round; fill:none" d="M -4.30547 843.478L -4.29337 843.457C -4.2853 843.443 -4.27303 843.422 -4.25655 843.394C -4.24006 843.366 -4.21892 843.331 -4.19313 843.289C -4.16734 843.247 -4.13616 843.197 -4.09961 843.141C -4.06305 843.084 -4.02 843.02 -3.97045 842.949C -3.92091 842.878 -3.86927 842.806 -3.81555 842.734C -3.76183 842.662 -3.70586 842.59 -3.64765 842.517C -3.58944 842.445 -3.52893 842.372 -3.46611 842.299C -3.40329 842.225 -3.3383 842.152 -3.27111 842.078C -3.20393 842.004 -3.13475 841.93 -3.06355 841.855C -2.99236 841.781 -2.92682 841.714 -2.86694 841.654C -2.80705 841.594 -2.75388 841.541 -2.70742 841.496C -2.66096 841.45 -2.62191 841.413 -2.59026 841.382C -2.55862 841.352 -2.5348 841.329 -2.5188 841.314L -2.49482 841.291"/>
<path style="stroke:#000000; stroke-width:0.850394; stroke-linejoin:round; stroke-linecap:round; fill:none" d="M -2.49484 841.291C -2.46037 841.255 -2.43924 841.206 -2.43924 841.151C -2.43924 841.038 -2.53091 840.947 -2.64384 840.947C -2.71011 840.947 -2.76906 840.978 -2.80645 841.027"/>
<path style="stroke:#000000; stroke-width:0.850394; stroke-linejoin:round; stroke-linecap:round; fill:none" d="M -2.80647 841.027L -2.8303 841.054C -2.84618 841.072 -2.87013 841.099 -2.90213 841.135C -2.93414 841.171 -2.9745 841.216 -3.02322 841.27C -3.07194 841.325 -3.1295 841.388 -3.19591 841.46C -3.26231 841.532 -3.33831 841.613 -3.42389 841.703C -3.50947 841.793 -3.59645 841.883 -3.68483 841.972C -3.77321 842.062 -3.8631 842.152 -3.95449 842.242C -4.04589 842.332 -4.13884 842.422 -4.23335 842.512C -4.32785 842.601 -4.42385 842.691 -4.52132 842.781C -4.6188 842.871 -4.71765 842.96 -4.81786 843.05C -4.91807 843.14 -5.00926 843.22 -5.09144 843.292C -5.17361 843.364 -5.24604 843.426 -5.30872 843.48C -5.37141 843.534 -5.42388 843.579 -5.46613 843.615C -5.50838 843.65 -5.54013 843.677 -5.56137 843.695L -5.59323 843.722"/>
<path style="stroke:#000000; stroke-width:0.850394; stroke-linejoin:round; stroke-linecap:round; fill:none" d="M -5.73717 843.618C -5.74535 843.632 -5.75006 843.647 -5.75006 843.664C -5.75006 843.713 -5.71019 843.753 -5.66107 843.753C -5.6339 843.753 -5.60957 843.741 -5.59324 843.722"/>
<path style="stroke:#000000; stroke-width:0.850394; stroke-linejoin:round; stroke-linecap:round; fill:none" d="M -5.73717 843.618L -5.72576 843.598C -5.71815 843.585 -5.70659 843.565 -5.69107 843.538C -5.67556 843.512 -5.65571 843.478 -5.63154 843.438C -5.60737 843.398 -5.57825 843.351 -5.54418 843.298C -5.51012 843.245 -5.47016 843.184 -5.42432 843.117C -5.37848 843.05 -5.33087 842.983 -5.28149 842.916C -5.23211 842.849 -5.18082 842.782 -5.12763 842.715C -5.07444 842.648 -5.01929 842.58 -4.96217 842.513C -4.90506 842.446 -4.84608 842.378 -4.78524 842.311C -4.7244 842.243 -4.66184 842.176 -4.59757 842.108C -4.5333 842.04 -4.4742 841.979 -4.42027 841.925C -4.36634 841.871 -4.31849 841.824 -4.27673 841.783C -4.23496 841.742 -4.19986 841.708 -4.17144 841.681C -4.14302 841.654 -4.12163 841.633 -4.10727 841.62L -4.08574 841.6"/>
<path style="stroke:#000000; stroke-width:0.850394; stroke-linejoin:round; stroke-linecap:round; fill:none" d="M -4.08576 841.599C -4.04984 841.562 -4.02776 841.511 -4.02776 841.455C -4.02776 841.34 -4.12142 841.246 -4.2368 841.246C -4.30512 841.246 -4.36582 841.279 -4.40398 841.33"/>
<path style="stroke:#000000; stroke-width:0.850394; stroke-linejoin:round; stroke-linecap:round; fill:none" d="M -4.40399 841.33L -4.42873 841.363C -4.44523 841.385 -4.47021 841.417 -4.50369 841.461C -4.53718 841.505 -4.57977 841.56 -4.63149 841.625C -4.6832 841.691 -4.74496 841.767 -4.81675 841.853C -4.88854 841.94 -4.97134 842.036 -5.06515 842.142C -5.15895 842.249 -5.25447 842.354 -5.3517 842.458C -5.44893 842.562 -5.54766 842.664 -5.64788 842.766C -5.7481 842.867 -5.84995 842.966 -5.95344 843.065C -6.05692 843.163 -6.16221 843.26 -6.26931 843.356C -6.3764 843.451 -6.48522 843.546 -6.59578 843.64C -6.70633 843.734 -6.80715 843.817 -6.89823 843.891C -6.98931 843.964 -7.0697 844.028 -7.13941 844.082C -7.20912 844.136 -7.26751 844.181 -7.31459 844.217C -7.36168 844.253 -7.39707 844.28 -7.42076 844.298L -7.4563 844.325"/>
<path style="stroke:#000000; stroke-width:0.850394; stroke-linejoin:round; stroke-linecap:round; fill:none" d="M -7.45628 844.325C -7.48478 844.358 -7.50195 844.402 -7.50195 844.45C -7.50195 844.557 -7.4147 844.645 -7.3072 844.645C -7.25119 844.645 -7.20067 844.621 -7.16513 844.583"/>
<path style="stroke:#000000; stroke-width:0.850394; stroke-linejoin:round; stroke-linecap:round; fill:none" d="M -7.1651 844.583L -6.47443 843.974"/>
<path style="stroke:#000000; stroke-width:0.850394; stroke-linejoin:round; stroke-linecap:round; fill:none" d="M -6.36999 844.047C -6.36703 844.04 -6.36541 844.032 -6.36541 844.023C -6.36541 843.987 -6.39481 843.958 -6.43102 843.958C -6.44766 843.958 -6.46285 843.964 -6.47442 843.974"/>
<path style="stroke:#000000; stroke-width:0.850394; stroke-linejoin:round; stroke-linecap:round; fill:none" d="M -6.37005 844.047C -6.38444 844.084 -6.39234 844.123 -6.39234 844.165C -6.39234 844.341 -6.24922 844.484 -6.0729 844.484C -5.9641 844.484 -5.86793 844.43 -5.81024 844.347"/>
<path style="stroke:#000000; stroke-width:0.850394; stroke-linejoin:round; stroke-linecap:round; fill:none" d="M -5.81023 844.347L -5.80032 844.337C -5.79371 844.33 -5.78379 844.32 -5.77056 844.307C -5.75733 844.294 -5.74078 844.277 -5.72091 844.258C -5.70105 844.238 -5.67784 844.215 -5.65129 844.189C -5.62475 844.163 -5.59483 844.133 -5.56155 844.101C -5.52827 844.068 -5.49494 844.036 -5.46156 844.004C -5.42817 843.972 -5.39473 843.94 -5.36123 843.908C -5.32773 843.876 -5.29417 843.844 -5.26055 843.813C -5.22694 843.781 -5.19326 843.75 -5.15953 843.719C -5.1258 843.688 -5.09201 843.656 -5.05817 843.626C -5.02434 843.595 -4.99384 843.567 -4.96669 843.542C -4.93955 843.518 -4.91577 843.496 -4.89537 843.478C -4.87497 843.46 -4.85796 843.445 -4.84434 843.432C -4.83072 843.42 -4.8205 843.411 -4.81369 843.405L -4.80347 843.396"/>
<path style="stroke:#000000; stroke-width:0.850394; stroke-linejoin:round; stroke-linecap:round; fill:none" d="M -4.70871 843.468C -4.70296 843.459 -4.69963 843.448 -4.69963 843.436C -4.69963 843.403 -4.72642 843.377 -4.75942 843.377C -4.77684 843.377 -4.79253 843.384 -4.80346 843.396"/>
<path style="stroke:#000000; stroke-width:0.850394; stroke-linejoin:round; stroke-linecap:round; fill:none" d="M -4.70871 843.468L -5.00729 843.946"/>
<path style="stroke:#000000; stroke-width:0.850394; stroke-linejoin:round; stroke-linecap:round; fill:none" d="M -5.00729 843.946C -5.03699 843.993 -5.05416 844.049 -5.05416 844.109C -5.05416 844.28 -4.91592 844.418 -4.7456 844.418C -4.6569 844.418 -4.5769 844.381 -4.5206 844.321"/>
<path style="stroke:#000000; stroke-width:0.850394; stroke-linejoin:round; stroke-linecap:round; fill:none" d="M -4.52055 844.321L -4.50204 844.303C -4.48969 844.291 -4.47125 844.273 -4.4467 844.249C -4.42215 844.225 -4.39167 844.196 -4.35526 844.161C -4.31885 844.126 -4.27679 844.086 -4.2291 844.041C -4.1814 843.995 -4.12849 843.946 -4.07038 843.891C -4.01226 843.837 -3.95497 843.784 -3.89851 843.732C -3.84204 843.681 -3.78648 843.631 -3.73181 843.582C -3.67714 843.533 -3.62342 843.486 -3.57065 843.44C -3.51789 843.394 -3.46604 843.35 -3.41513 843.307C -3.36421 843.264 -3.31416 843.222 -3.26497 843.182C -3.21578 843.142 -3.17214 843.107 -3.13406 843.076C -3.09599 843.046 -3.063 843.02 -3.03511 842.999C -3.00723 842.977 -2.98413 842.959 -2.96583 842.945C -2.94754 842.932 -2.93385 842.921 -2.92477 842.914L -2.91116 842.904"/>
<path style="stroke:#000000; stroke-width:0.850394; stroke-linejoin:round; stroke-linecap:round; fill:none" d="M -2.8171 842.977C -2.81491 842.97 -2.81372 842.963 -2.81372 842.956C -2.81372 842.922 -2.84179 842.894 -2.87637 842.894C -2.88924 842.894 -2.9012 842.897 -2.91116 842.904"/>
<path style="stroke:#000000; stroke-width:0.850394; stroke-linejoin:round; stroke-linecap:round; fill:none" d="M -1.85148 843.555C -1.85312 843.561 -1.854 843.567 -1.854 843.573C -1.854 843.606 -1.82685 843.633 -1.79341 843.633C -1.78882 843.633 -1.78434 843.633 -1.78004 843.632"/>
<path style="stroke:#000000; stroke-width:0.850394; stroke-linejoin:round; stroke-linecap:round; fill:none" d="M -1.85147 843.556L -1.84909 843.548C -1.84751 843.542 -1.84497 843.534 -1.84147 843.524C -1.83796 843.514 -1.83308 843.502 -1.82683 843.488C -1.82057 843.473 -1.81231 843.458 -1.80206 843.441C -1.79181 843.424 -1.77895 843.406 -1.76349 843.388C -1.74802 843.37 -1.73153 843.353 -1.71402 843.337C -1.6965 843.32 -1.67822 843.305 -1.65918 843.29C -1.64014 843.275 -1.62048 843.261 -1.60021 843.247C -1.57994 843.234 -1.55903 843.221 -1.53749 843.209C -1.51595 843.197 -1.49363 843.187 -1.47055 843.177C -1.44746 843.168 -1.42591 843.161 -1.4059 843.156C -1.38589 843.151 -1.36786 843.148 -1.35182 843.147C -1.33578 843.145 -1.32218 843.144 -1.311 843.144C -1.29982 843.144 -1.29138 843.144 -1.28567 843.144L -1.2771 843.145"/>
<path style="stroke:#000000; stroke-width:0.850394; stroke-linejoin:round; stroke-linecap:round; fill:none" d="M -1.21932 843.272C -1.20831 843.259 -1.2017 843.241 -1.2017 843.223C -1.2017 843.18 -1.23525 843.146 -1.27711 843.145"/>
<path style="stroke:#000000; stroke-width:0.850394; stroke-linejoin:round; stroke-linecap:round; fill:none" d="M -1.21931 843.272L -1.22353 843.277C -1.22635 843.281 -1.23061 843.286 -1.23633 843.292C -1.24205 843.299 -1.24934 843.307 -1.2582 843.317C -1.26706 843.327 -1.27767 843.338 -1.29004 843.35C -1.3024 843.362 -1.31678 843.375 -1.33316 843.389C -1.34954 843.403 -1.3664 843.417 -1.38373 843.43C -1.40106 843.444 -1.41887 843.457 -1.43717 843.469C -1.45546 843.482 -1.47424 843.495 -1.49351 843.507C -1.51277 843.519 -1.53249 843.531 -1.55268 843.542C -1.57286 843.553 -1.59347 843.564 -1.61451 843.574C -1.63556 843.584 -1.65482 843.593 -1.67229 843.599C -1.68977 843.606 -1.70524 843.612 -1.71869 843.616C -1.73215 843.62 -1.74344 843.623 -1.75256 843.625C -1.76168 843.628 -1.76854 843.629 -1.77314 843.63L -1.78004 843.632"/>
<path style="stroke:#000000; stroke-width:0.850394; stroke-linejoin:round; stroke-linecap:round; fill:none" d="M 0.622565 842.551C 0.62593 842.547 0.627919 842.541 0.627919 842.535C 0.627919 842.52 0.615596 842.507 0.600413 842.507C 0.600132 842.507 0.599851 842.507 0.599572 842.507"/>
<path style="stroke:#000000; stroke-width:0.850394; stroke-linejoin:round; stroke-linecap:round; fill:none" d="M 0.599572 842.507L 0.589096 842.511C 0.582112 842.514 0.571722 842.518 0.557925 842.523C 0.544128 842.529 0.527137 842.535 0.506953 842.543C 0.486769 842.551 0.463741 842.561 0.437869 842.572C 0.411998 842.583 0.383818 842.595 0.353329 842.609C 0.322841 842.623 0.293361 842.637 0.264889 842.651C 0.236417 842.665 0.209034 842.68 0.182742 842.695C 0.156449 842.709 0.131291 842.724 0.107268 842.74C 0.0832449 842.755 0.0603064 842.771 0.0384524 842.786C 0.0165984 842.802 -0.00426922 842.819 -0.0241505 842.835C -0.0440318 842.852 -0.0612162 842.868 -0.0757037 842.882C -0.0901913 842.896 -0.102503 842.908 -0.112638 842.919C -0.122774 842.93 -0.131062 842.94 -0.137502 842.947C -0.143942 842.955 -0.148733 842.96 -0.151874 842.964L -0.156585 842.97"/>
<path style="stroke:#000000; stroke-width:0.850394; stroke-linejoin:round; stroke-linecap:round; fill:none" d="M -0.156577 842.97C -0.172891 842.986 -0.183053 843.008 -0.183053 843.032C -0.183053 843.037 -0.182668 843.041 -0.181928 843.046"/>
<path style="stroke:#000000; stroke-width:0.850394; stroke-linejoin:round; stroke-linecap:round; fill:none" d="M -0.181916 843.046L -0.181305 843.05C -0.180897 843.052 -0.180288 843.056 -0.179477 843.06C -0.178666 843.065 -0.177659 843.071 -0.176456 843.079C -0.175252 843.086 -0.173875 843.094 -0.172322 843.104C -0.17077 843.113 -0.169143 843.124 -0.16744 843.136C -0.165738 843.148 -0.16425 843.16 -0.162978 843.172C -0.161705 843.184 -0.160744 843.195 -0.160094 843.207C -0.159443 843.219 -0.159175 843.232 -0.159288 843.244C -0.159401 843.256 -0.159913 843.268 -0.160823 843.281C -0.161732 843.293 -0.163028 843.305 -0.16471 843.318C -0.166391 843.331 -0.168195 843.342 -0.170121 843.352C -0.172048 843.363 -0.173887 843.372 -0.17564 843.379C -0.177394 843.387 -0.178922 843.394 -0.180226 843.399C -0.18153 843.404 -0.182524 843.408 -0.18321 843.41L -0.184239 843.414"/>
<path style="stroke:#000000; stroke-width:0.850394; stroke-linejoin:round; stroke-linecap:round; fill:none" d="M -0.221951 843.462C -0.203878 843.452 -0.190139 843.435 -0.184223 843.414"/>
<path style="stroke:#000000; stroke-width:0.850394; stroke-linejoin:round; stroke-linecap:round; fill:none" d="M -0.221952 843.462L -0.228326 843.466C -0.232575 843.469 -0.239119 843.474 -0.247958 843.48C -0.256798 843.486 -0.268358 843.494 -0.28264 843.504C -0.296922 843.513 -0.314612 843.524 -0.335708 843.537C -0.356805 843.549 -0.38221 843.564 -0.411923 843.58C -0.441635 843.596 -0.472853 843.612 -0.505577 843.629C -0.5383 843.645 -0.572159 843.661 -0.607152 843.676C -0.642146 843.692 -0.677628 843.707 -0.713598 843.721C -0.749569 843.735 -0.784994 843.748 -0.819874 843.759C -0.854754 843.77 -0.887845 843.779 -0.919146 843.785C -0.950447 843.791 -0.978732 843.794 -1.004 843.794C -1.02927 843.794 -1.05053 843.79 -1.06777 843.783C -1.08502 843.775 -1.0977 843.764 -1.10583 843.748C -1.11396 843.733 -1.11768 843.714 -1.117 843.691C -1.11632 843.669 -1.11189 843.643 -1.10372 843.615C -1.09554 843.588 -1.08457 843.558 -1.07078 843.527C -1.057 843.496 -1.04144 843.465 -1.02409 843.433C -1.00674 843.401 -0.9885 843.37 -0.969367 843.339C -0.950234 843.308 -0.930785 843.278 -0.911019 843.249C -0.891254 843.22 -0.871515 843.193 -0.851803 843.167C -0.832091 843.141 -0.814506 843.118 -0.799047 843.1C -0.783587 843.082 -0.770172 843.066 -0.758801 843.054C -0.747429 843.042 -0.738003 843.032 -0.73052 843.024C -0.723038 843.017 -0.717439 843.011 -0.713722 843.007L -0.708148 843.002"/>
<path style="stroke:#000000; stroke-width:0.850394; stroke-linejoin:round; stroke-linecap:round; fill:none" d="M -0.708153 843.002C -0.691439 842.989 -0.680618 842.969 -0.680618 842.947C -0.680618 842.926 -0.689981 842.907 -0.704741 842.895"/>
<path style="stroke:#000000; stroke-width:0.850394; stroke-linejoin:round; stroke-linecap:round; fill:none" d="M -0.704735 842.895L -0.711014 842.889C -0.7152 842.886 -0.721676 842.881 -0.730441 842.874C -0.739207 842.867 -0.750755 842.859 -0.765086 842.851C -0.779416 842.842 -0.797317 842.833 -0.818788 842.824C -0.840258 842.814 -0.866364 842.806 -0.897104 842.798C -0.927844 842.79 -0.96048 842.784 -0.995013 842.779C -1.02955 842.775 -1.06586 842.772 -1.10396 842.771C -1.14207 842.77 -1.18176 842.772 -1.22306 842.775C -1.26435 842.779 -1.30694 842.786 -1.35084 842.795C -1.39473 842.805 -1.43949 842.819 -1.48512 842.837C -1.53075 842.854 -1.57665 842.876 -1.6228 842.903C -1.66895 842.929 -1.71455 842.96 -1.75959 842.996C -1.80464 843.032 -1.84805 843.071 -1.88984 843.114C -1.93163 843.157 -1.97047 843.202 -2.00637 843.249C -2.04227 843.297 -2.07381 843.344 -2.10099 843.392C -2.12817 843.439 -2.14957 843.485 -2.16519 843.529C -2.1808 843.574 -2.18936 843.615 -2.19085 843.653C -2.19234 843.691 -2.18568 843.727 -2.17086 843.759C -2.15603 843.791 -2.13257 843.82 -2.10046 843.845C -2.06836 843.87 -2.02761 843.889 -1.97823 843.902C -1.92885 843.915 -1.87769 843.92 -1.82476 843.917C -1.77183 843.914 -1.72188 843.906 -1.6749 843.895C -1.62792 843.883 -1.58718 843.871 -1.55267 843.858C -1.51815 843.846 -1.49187 843.836 -1.47382 843.829L -1.44674 843.818"/>
<path style="stroke:#000000; stroke-width:0.850394; stroke-linejoin:round; stroke-linecap:round; fill:none" d="M -1.33128 843.843C -1.35129 843.823 -1.37875 843.811 -1.40903 843.811C -1.42227 843.811 -1.43497 843.813 -1.44675 843.818"/>
<path style="stroke:#000000; stroke-width:0.850394; stroke-linejoin:round; stroke-linecap:round; fill:none" d="M -1.33126 843.843C -1.31427 843.882 -1.2894 843.919 -1.13375 844.06C -1.00384 844.049 -0.907942 844.035 -0.354691 843.844C -0.162865 843.723 -0.162865 843.723 -0.0755856 843.664"/>
<path style="stroke:#000000; stroke-width:0.850394; stroke-linejoin:round; stroke-linecap:round; fill:none" d="M 0.00253734 843.643C -0.00171675 843.643 -0.00604766 843.642 -0.0104402 843.642C -0.0349527 843.642 -0.0575463 843.651 -0.0755803 843.664"/>
<path style="stroke:#000000; stroke-width:0.850394; stroke-linejoin:round; stroke-linecap:round; fill:none" d="M 0.00253835 843.643L 0.0137809 843.644C 0.0212759 843.645 0.0321589 843.646 0.0464301 843.647C 0.0607012 843.648 0.0774619 843.649 0.0967121 843.649C 0.115962 843.649 0.136229 843.648 0.157511 843.645C 0.178793 843.642 0.198912 843.636 0.217866 843.627C 0.236821 843.618 0.251839 843.607 0.262922 843.592C 0.274004 843.578 0.281286 843.561 0.284767 843.541C 0.288249 843.522 0.288568 843.5 0.285724 843.476C 0.282881 843.452 0.278327 843.427 0.272062 843.401C 0.265797 843.375 0.259656 843.35 0.253639 843.324C 0.247621 843.299 0.243775 843.277 0.2421 843.26C 0.240425 843.242 0.240499 843.228 0.242322 843.217C 0.244146 843.207 0.246436 843.198 0.249195 843.192C 0.251954 843.186 0.254216 843.182 0.255981 843.179L 0.258628 843.175"/>
<path style="stroke:#000000; stroke-width:0.850394; stroke-linejoin:round; stroke-linecap:round; fill:none" d="M 0.258628 843.175L 0.262563 843.17C 0.265186 843.166 0.269112 843.16 0.274341 843.152C 0.27957 843.144 0.286081 843.134 0.293873 843.122C 0.301665 843.11 0.310703 843.097 0.320988 843.081C 0.331272 843.065 0.342749 843.047 0.355417 843.027C 0.368086 843.006 0.380653 842.986 0.393118 842.966C 0.405583 842.945 0.417939 842.925 0.430184 842.904C 0.442429 842.884 0.45456 842.863 0.466576 842.842C 0.478593 842.821 0.4905 842.8 0.502296 842.779C 0.514093 842.757 0.525788 842.736 0.537382 842.714C 0.548976 842.693 0.559336 842.674 0.568462 842.656C 0.577588 842.639 0.585534 842.624 0.5923 842.611C 0.599066 842.597 0.604687 842.586 0.609164 842.578C 0.61364 842.569 0.616993 842.562 0.619222 842.558L 0.622567 842.551"/>
<path style="stroke:#000000; stroke-width:0.850394; stroke-linejoin:round; stroke-linecap:round; fill:none" d="M 2.33205 841.934L 2.33598 841.937C 2.3386 841.939 2.34229 841.943 2.34706 841.948C 2.35182 841.952 2.35705 841.959 2.36275 841.968C 2.36844 841.977 2.37363 841.989 2.37832 842.004C 2.383 842.019 2.38581 842.039 2.38674 842.063C 2.38767 842.088 2.38615 842.115 2.38218 842.145C 2.37821 842.175 2.3719 842.207 2.36325 842.243C 2.3546 842.278 2.3439 842.315 2.33114 842.355C 2.31839 842.394 2.30406 842.436 2.28814 842.479C 2.27223 842.521 2.25531 842.565 2.23736 842.61C 2.21941 842.655 2.20103 842.7 2.18222 842.745C 2.16341 842.79 2.1447 842.835 2.12609 842.879C 2.10749 842.923 2.08941 842.967 2.07186 843.009C 2.05431 843.051 2.03753 843.092 2.02153 843.132C 2.00553 843.172 1.99044 843.21 1.97624 843.247C 1.96205 843.284 1.95003 843.316 1.94019 843.343C 1.93035 843.37 1.92217 843.393 1.91565 843.412C 1.90912 843.431 1.90387 843.447 1.89989 843.459C 1.89592 843.471 1.89299 843.48 1.89109 843.486L 1.88825 843.495"/>
<path style="stroke:#000000; stroke-width:0.850394; stroke-linejoin:round; stroke-linecap:round; fill:none" d="M 1.88822 843.495C 1.88594 843.508 1.88475 843.522 1.88475 843.536C 1.88475 843.667 1.99126 843.773 2.12248 843.773C 2.24369 843.773 2.34382 843.682 2.35839 843.565"/>
<path style="stroke:#000000; stroke-width:0.850394; stroke-linejoin:round; stroke-linecap:round; fill:none" d="M 2.35837 843.565L 2.35588 843.56C 2.35422 843.557 2.35201 843.551 2.34925 843.544C 2.34649 843.536 2.34386 843.526 2.34136 843.514C 2.33887 843.501 2.33763 843.485 2.33763 843.465C 2.33764 843.445 2.34044 843.419 2.34602 843.389C 2.35161 843.359 2.3599 843.325 2.37089 843.29C 2.38188 843.254 2.39531 843.215 2.41116 843.174C 2.42701 843.133 2.4447 843.09 2.46423 843.044C 2.48376 842.999 2.50425 842.951 2.52569 842.902C 2.54713 842.852 2.5685 842.802 2.5898 842.75C 2.6111 842.698 2.63129 842.645 2.65037 842.591C 2.66944 842.538 2.68647 842.484 2.70145 842.43C 2.71642 842.376 2.72866 842.322 2.73816 842.268C 2.74765 842.215 2.75405 842.161 2.75736 842.108C 2.76066 842.055 2.76073 842.003 2.75756 841.951C 2.75439 841.899 2.74894 841.853 2.74121 841.812C 2.73348 841.772 2.72527 841.737 2.71659 841.707C 2.70791 841.677 2.70004 841.652 2.69298 841.632C 2.68592 841.613 2.68047 841.598 2.67662 841.588L 2.67085 841.573"/>
<path style="stroke:#000000; stroke-width:0.850394; stroke-linejoin:round; stroke-linecap:round; fill:none" d="M 2.67089 841.573C 2.64114 841.493 2.56401 841.436 2.47362 841.436C 2.45824 841.436 2.44324 841.438 2.42879 841.441"/>
<path style="stroke:#000000; stroke-width:0.850394; stroke-linejoin:round; stroke-linecap:round; fill:none" d="M 2.4288 841.441L 2.40991 841.444C 2.39733 841.446 2.37852 841.449 2.35351 841.453C 2.3285 841.457 2.29747 841.462 2.26044 841.468C 2.2234 841.474 2.18068 841.482 2.13229 841.49C 2.08389 841.498 2.03556 841.507 1.98729 841.515C 1.93902 841.524 1.89708 841.531 1.86149 841.538C 1.82589 841.544 1.79624 841.55 1.77254 841.554C 1.74885 841.559 1.73083 841.562 1.7185 841.564C 1.70617 841.567 1.69939 841.568 1.69818 841.568L 1.69637 841.568"/>
<path style="stroke:#000000; stroke-width:0.850394; stroke-linejoin:round; stroke-linecap:round; fill:none" d="M 1.69637 841.568L 1.69962 841.556C 1.70179 841.547 1.70744 841.525 1.71658 841.489C 1.72572 841.454 1.73856 841.405 1.7551 841.343C 1.77165 841.28 1.79236 841.205 1.81722 841.117C 1.84209 841.029 1.87177 840.928 1.90626 840.815C 1.94075 840.701 1.97936 840.58 2.02208 840.451C 2.0648 840.322 2.10426 840.207 2.14046 840.105C 2.17666 840.004 2.20887 839.915 2.23708 839.84C 2.2653 839.764 2.28905 839.702 2.30832 839.652C 2.3276 839.602 2.34212 839.565 2.35187 839.54L 2.3665 839.503"/>
<path style="stroke:#000000; stroke-width:0.850394; stroke-linejoin:round; stroke-linecap:round; fill:none" d="M 2.36651 839.503C 2.38754 839.467 2.3996 839.425 2.3996 839.38C 2.3996 839.246 2.2909 839.138 2.15698 839.138C 2.02306 839.138 1.91436 839.246 1.91436 839.38C 1.91436 839.38 1.91436 839.381 1.91436 839.381"/>
<path style="stroke:#000000; stroke-width:0.850394; stroke-linejoin:round; stroke-linecap:round; fill:none" d="M 1.91436 839.381L 1.90332 839.431C 1.89596 839.464 1.88492 839.514 1.8702 839.58C 1.85547 839.646 1.83705 839.728 1.81493 839.826C 1.7928 839.924 1.76696 840.036 1.73739 840.163C 1.70782 840.29 1.67473 840.428 1.63813 840.579C 1.60152 840.729 1.56857 840.862 1.53927 840.977C 1.50998 841.092 1.48437 841.191 1.46245 841.273C 1.44053 841.356 1.42234 841.423 1.40786 841.476C 1.39338 841.529 1.38264 841.569 1.37564 841.594L 1.36513 841.632"/>
<path style="stroke:#000000; stroke-width:0.850394; stroke-linejoin:round; stroke-linecap:round; fill:none" d="M 1.36513 841.632L 1.35252 841.634C 1.34412 841.636 1.33067 841.638 1.31218 841.642C 1.2937 841.645 1.2704 841.65 1.24228 841.655C 1.21416 841.66 1.18158 841.666 1.14453 841.673C 1.10748 841.679 1.07107 841.685 1.0353 841.691C 0.999525 841.696 0.96796 841.701 0.940605 841.705C 0.913249 841.708 0.890611 841.711 0.872691 841.713C 0.85477 841.715 0.84137 841.716 0.832489 841.717L 0.819167 841.719"/>
<path style="stroke:#000000; stroke-width:0.850394; stroke-linejoin:round; stroke-linecap:round; fill:none" d="M 0.772094 841.7C 0.782145 841.712 0.796978 841.719 0.813513 841.719C 0.815422 841.719 0.817309 841.719 0.819167 841.719"/>
<path style="stroke:#000000; stroke-width:0.850394; stroke-linejoin:round; stroke-linecap:round; fill:none" d="M 0.772049 841.7C 0.71556 841.635 0.632195 841.594 0.539264 841.594C 0.369258 841.594 0.231265 841.732 0.231265 841.902C 0.231265 842.072 0.369258 842.21 0.539264 842.21C 0.553708 842.21 0.567921 842.209 0.581838 842.207"/>
<path style="stroke:#000000; stroke-width:0.850394; stroke-linejoin:round; stroke-linecap:round; fill:none" d="M 0.581837 842.207L 0.597142 842.205C 0.607345 842.203 0.622677 842.201 0.643137 842.198C 0.663598 842.194 0.689253 842.19 0.720105 842.183C 0.750956 842.177 0.787144 842.169 0.828667 842.158C 0.870191 842.147 0.913276 842.135 0.957921 842.122C 1.00257 842.108 1.04227 842.096 1.07704 842.086C 1.11181 842.075 1.14137 842.066 1.16572 842.059C 1.19006 842.052 1.20898 842.046 1.22248 842.042C 1.23597 842.038 1.24393 842.036 1.24637 842.035L 1.25003 842.034"/>
<path style="stroke:#000000; stroke-width:0.850394; stroke-linejoin:round; stroke-linecap:round; fill:none" d="M 1.25003 842.034L 1.24954 842.036C 1.24921 842.037 1.24513 842.051 1.23727 842.077C 1.22942 842.104 1.2178 842.143 1.20241 842.194C 1.18701 842.245 1.16783 842.308 1.14485 842.382C 1.12187 842.456 1.09507 842.54 1.06445 842.634C 1.03383 842.727 1.00332 842.818 0.972914 842.906C 0.942509 842.993 0.915875 843.069 0.893012 843.131C 0.870149 843.194 0.851083 843.246 0.835815 843.287C 0.820547 843.327 0.809092 843.358 0.801452 843.378L 0.789991 843.408"/>
<path style="stroke:#000000; stroke-width:0.850394; stroke-linejoin:round; stroke-linecap:round; fill:none" d="M 0.789974 843.408C 0.768453 843.447 0.756203 843.492 0.756203 843.539C 0.756203 843.69 0.878312 843.812 1.02875 843.812C 1.17699 843.812 1.29773 843.693 1.30122 843.546"/>
<path style="stroke:#000000; stroke-width:0.850394; stroke-linejoin:round; stroke-linecap:round; fill:none" d="M 1.30122 843.546L 1.30792 843.502C 1.31239 843.473 1.31922 843.43 1.32839 843.372C 1.33756 843.314 1.34936 843.242 1.3638 843.155C 1.37824 843.069 1.39517 842.972 1.41459 842.865C 1.43401 842.758 1.45431 842.651 1.47549 842.545C 1.49666 842.44 1.51554 842.348 1.53211 842.271C 1.54868 842.195 1.56247 842.132 1.57349 842.083C 1.5845 842.034 1.59243 842 1.59727 841.979L 1.60454 841.947"/>
<path style="stroke:#000000; stroke-width:0.850394; stroke-linejoin:round; stroke-linecap:round; fill:none" d="M 1.60454 841.947L 1.61665 841.945C 1.62472 841.943 1.63859 841.94 1.65825 841.936C 1.67791 841.933 1.70339 841.928 1.73469 841.923C 1.766 841.917 1.80303 841.911 1.84579 841.905C 1.88856 841.899 1.93092 841.893 1.97288 841.888C 2.01483 841.883 2.05238 841.879 2.08552 841.876C 2.11865 841.873 2.14604 841.87 2.16768 841.869C 2.18932 841.867 2.20549 841.866 2.2162 841.865L 2.23226 841.863"/>
<path style="stroke:#000000; stroke-width:0.850394; stroke-linejoin:round; stroke-linecap:round; fill:none" d="M 2.33207 841.934C 2.32105 841.893 2.28379 841.863 2.23956 841.863C 2.23711 841.863 2.23467 841.863 2.23226 841.863"/>
<path style="stroke:#000000; stroke-width:0.850394; stroke-linejoin:round; stroke-linecap:round; fill:none" d="M 2.88413 840.281C 2.82502 840.323 2.78642 840.392 2.78642 840.47C 2.78642 840.598 2.88998 840.701 3.01756 840.701C 3.06821 840.701 3.11507 840.685 3.15316 840.657"/>
<path style="stroke:#000000; stroke-width:0.850394; stroke-linejoin:round; stroke-linecap:round; fill:none" d="M 3.15317 840.657L 3.1882 840.635C 3.21155 840.619 3.24649 840.596 3.29304 840.566C 3.33958 840.536 3.39753 840.498 3.46688 840.453C 3.53624 840.407 3.61668 840.355 3.70821 840.295C 3.79974 840.235 3.90187 840.169 4.01461 840.095C 4.12735 840.021 4.23917 839.948 4.35007 839.875C 4.46098 839.803 4.57089 839.731 4.6798 839.66C 4.78872 839.588 4.89659 839.518 5.00342 839.447C 5.11025 839.377 5.21607 839.308 5.32088 839.239C 5.42568 839.17 5.52955 839.102 5.63248 839.034C 5.7354 838.967 5.82735 838.906 5.90831 838.853C 5.98927 838.799 6.05974 838.753 6.11973 838.714C 6.17972 838.674 6.22955 838.641 6.26923 838.615C 6.3089 838.589 6.33862 838.569 6.35838 838.556L 6.38802 838.537"/>
<path style="stroke:#000000; stroke-width:0.850394; stroke-linejoin:round; stroke-linecap:round; fill:none" d="M 6.38802 838.537C 6.40658 838.525 6.41899 838.505 6.41899 838.482C 6.41899 838.446 6.39022 838.418 6.35478 838.418C 6.35018 838.418 6.34569 838.418 6.34136 838.419"/>
<path style="stroke:#000000; stroke-width:0.850394; stroke-linejoin:round; stroke-linecap:round; fill:none" d="M 6.34136 838.419L 6.31215 838.439C 6.29267 838.452 6.26329 838.471 6.22402 838.497C 6.18474 838.523 6.13518 838.556 6.07532 838.594C 6.01546 838.633 5.94467 838.678 5.86293 838.73C 5.7812 838.781 5.68754 838.839 5.58195 838.903C 5.47636 838.967 5.36891 839.03 5.2596 839.093C 5.15029 839.156 5.03899 839.219 4.92569 839.281C 4.81239 839.344 4.69703 839.406 4.57961 839.468C 4.4622 839.529 4.34283 839.591 4.22151 839.652C 4.10019 839.713 3.97707 839.773 3.85216 839.834C 3.72725 839.894 3.61351 839.948 3.51095 839.996C 3.40839 840.044 3.31796 840.086 3.23966 840.122C 3.16135 840.157 3.0958 840.187 3.04299 840.211C 2.99018 840.234 2.9505 840.252 2.92395 840.264L 2.88412 840.281"/>
<path style="stroke:#000000; stroke-width:0.850394; stroke-linejoin:round; stroke-linecap:round; fill:none" d="M 14.2106 841.931L 14.2103 841.927C 14.2101 841.924 14.2098 841.917 14.2093 841.905C 14.2087 841.894 14.209 841.878 14.2102 841.857C 14.2113 841.836 14.2153 841.81 14.2221 841.779C 14.2289 841.748 14.2413 841.712 14.2591 841.67C 14.277 841.629 14.3014 841.585 14.3323 841.538C 14.3632 841.491 14.3974 841.446 14.435 841.403C 14.4725 841.36 14.5114 841.32 14.5516 841.284C 14.5917 841.247 14.6312 841.215 14.6699 841.187C 14.7086 841.159 14.7447 841.137 14.7782 841.12C 14.8117 841.102 14.8411 841.091 14.8666 841.084C 14.8921 841.078 14.9128 841.077 14.9287 841.081C 14.9447 841.085 14.9557 841.094 14.9618 841.107C 14.968 841.12 14.9695 841.136 14.9664 841.155C 14.9633 841.175 14.9562 841.196 14.945 841.22C 14.9339 841.244 14.9196 841.269 14.9022 841.295C 14.8847 841.322 14.865 841.349 14.843 841.376C 14.821 841.404 14.7977 841.432 14.7729 841.46C 14.7481 841.487 14.7227 841.515 14.6966 841.542C 14.6706 841.57 14.6443 841.596 14.6178 841.623C 14.5913 841.649 14.5647 841.676 14.538 841.701C 14.5113 841.727 14.4846 841.752 14.458 841.776C 14.4314 841.8 14.4071 841.821 14.3851 841.84C 14.3631 841.859 14.3436 841.875 14.3266 841.889C 14.3096 841.903 14.2955 841.914 14.2841 841.923C 14.2727 841.932 14.2643 841.938 14.2589 841.943L 14.2508 841.949"/>
<path style="stroke:#000000; stroke-width:0.850394; stroke-linejoin:round; stroke-linecap:round; fill:none" d="M 14.2106 841.931C 14.2112 841.94 14.2112 841.94 14.2508 841.949"/>
<path style="stroke:#000000; stroke-width:0.850394; stroke-linejoin:round; stroke-linecap:round; fill:none" d="M 7.16669 840.961L 7.17028 840.957C 7.17266 840.955 7.1869 840.939 7.21298 840.912C 7.23906 840.884 7.27761 840.844 7.32864 840.791C 7.37966 840.738 7.44458 840.672 7.52341 840.593C 7.60223 840.515 7.69721 840.424 7.80833 840.322C 7.91945 840.219 8.03367 840.12 8.15099 840.024C 8.26831 839.927 8.37359 839.844 8.46683 839.775C 8.56006 839.706 8.63894 839.648 8.70347 839.604C 8.768 839.559 8.8167 839.525 8.84956 839.503L 8.89885 839.47"/>
<path style="stroke:#000000; stroke-width:0.850394; stroke-linejoin:round; stroke-linecap:round; fill:none" d="M 8.89885 839.47L 8.93294 839.447C 8.95566 839.432 8.98912 839.41 9.03331 839.381C 9.0775 839.352 9.13083 839.318 9.19331 839.279C 9.25579 839.241 9.32481 839.2 9.40038 839.158C 9.47594 839.116 9.55406 839.077 9.63472 839.041C 9.71538 839.005 9.78851 838.977 9.8541 838.958C 9.9197 838.939 9.97702 838.928 10.0261 838.927C 10.0751 838.925 10.1152 838.931 10.1462 838.946C 10.1772 838.961 10.1985 838.984 10.2101 839.014C 10.2217 839.045 10.2232 839.082 10.2144 839.125C 10.2056 839.168 10.1865 839.216 10.1571 839.27C 10.1277 839.323 10.0884 839.38 10.0392 839.441C 9.99002 839.501 9.93205 839.564 9.8653 839.629C 9.79856 839.694 9.72472 839.761 9.6438 839.828C 9.56288 839.896 9.47687 839.963 9.38579 840.031C 9.29471 840.099 9.20069 840.166 9.10374 840.232C 9.00679 840.298 8.90899 840.362 8.81032 840.424C 8.71165 840.486 8.61396 840.546 8.51722 840.602C 8.42049 840.658 8.32605 840.71 8.23389 840.758C 8.14174 840.805 8.05277 840.847 7.96699 840.884C 7.8812 840.92 7.79923 840.95 7.72109 840.972C 7.64294 840.995 7.57345 841.009 7.5126 841.016C 7.45175 841.022 7.40067 841.022 7.35936 841.018C 7.31805 841.013 7.28444 841.006 7.25851 840.998C 7.23258 840.99 7.21267 840.982 7.19878 840.976C 7.18489 840.97 7.17607 840.966 7.17232 840.964L 7.16669 840.961"/>
<path style="stroke:#000000; stroke-width:0.850394; stroke-linejoin:round; stroke-linecap:round; fill:none" d="M 14.1962 842.495L 14.203 842.499C 14.2075 842.502 14.212 842.505 14.2166 842.508C 14.2212 842.511 14.2259 842.514 14.2306 842.517C 14.2353 842.52 14.2401 842.523 14.2449 842.525C 14.2497 842.528 14.2546 842.531 14.2595 842.534L 14.2668 842.538"/>
<path style="stroke:#000000; stroke-width:0.850394; stroke-linejoin:round; stroke-linecap:round; fill:none" d="M 14.2668 842.538L 14.3076 842.562C 14.3347 842.577 14.3757 842.597 14.4305 842.621C 14.4852 842.645 14.5544 842.664 14.638 842.679C 14.7215 842.694 14.8203 842.692 14.9341 842.675C 15.048 842.657 15.1774 842.617 15.3224 842.554C 15.4674 842.491 15.5986 842.424 15.7159 842.353C 15.8332 842.283 15.9361 842.217 16.0246 842.157C 16.1131 842.096 16.187 842.044 16.2462 842.001C 16.3054 841.957 16.3498 841.924 16.3795 841.901L 16.4239 841.868"/>
<path style="stroke:#000000; stroke-width:0.850394; stroke-linejoin:round; stroke-linecap:round; fill:none" d="M 16.4239 841.868C 16.4373 841.858 16.446 841.842 16.446 841.824C 16.446 841.794 16.4214 841.769 16.3912 841.769C 16.3789 841.769 16.3676 841.773 16.3584 841.78"/>
<path style="stroke:#000000; stroke-width:0.850394; stroke-linejoin:round; stroke-linecap:round; fill:none" d="M 16.3584 841.78L 16.3205 841.805C 16.2952 841.821 16.2574 841.845 16.2069 841.877C 16.1565 841.909 16.0936 841.948 16.0182 841.992C 15.9428 842.037 15.8552 842.086 15.7554 842.138C 15.6556 842.191 15.5442 842.241 15.4211 842.289C 15.2979 842.337 15.1882 842.369 15.0919 842.385C 14.9956 842.401 14.9122 842.405 14.8418 842.398C 14.7714 842.391 14.7132 842.38 14.6672 842.365C 14.6212 842.35 14.5868 842.338 14.564 842.328L 14.5299 842.313"/>
<path style="stroke:#000000; stroke-width:0.850394; stroke-linejoin:round; stroke-linecap:round; fill:none" d="M 14.5299 842.313L 14.5239 842.311C 14.52 842.309 14.5161 842.307 14.5122 842.306C 14.5083 842.304 14.5045 842.302 14.5007 842.3C 14.4969 842.298 14.4932 842.297 14.4895 842.295C 14.4858 842.293 14.4822 842.291 14.4786 842.289L 14.4732 842.286"/>
<path style="stroke:#000000; stroke-width:0.850394; stroke-linejoin:round; stroke-linecap:round; fill:none" d="M 14.4634 842.205C 14.4585 842.209 14.4545 842.214 14.447 842.232C 14.4461 842.245 14.4469 842.252 14.4542 842.27C 14.4542 842.27 14.4542 842.27 14.4732 842.286"/>
<path style="stroke:#000000; stroke-width:0.850394; stroke-linejoin:round; stroke-linecap:round; fill:none" d="M 14.4634 842.205L 14.4845 842.186C 14.4986 842.174 14.5195 842.155 14.5473 842.13C 14.5751 842.106 14.6091 842.075 14.6494 842.038C 14.6897 842.001 14.7351 841.958 14.7857 841.909C 14.8363 841.859 14.8897 841.805 14.946 841.745C 15.0023 841.684 15.054 841.625 15.1011 841.567C 15.1482 841.508 15.1896 841.451 15.2252 841.396C 15.2608 841.34 15.2898 841.286 15.312 841.235C 15.3343 841.184 15.3495 841.135 15.3576 841.088C 15.3657 841.042 15.3669 840.999 15.3613 840.959C 15.3557 840.92 15.344 840.884 15.326 840.852C 15.3081 840.82 15.2848 840.793 15.2563 840.77C 15.2278 840.748 15.195 840.73 15.1577 840.718C 15.1205 840.706 15.0797 840.7 15.0352 840.7C 14.9907 840.7 14.9434 840.706 14.8931 840.719C 14.8428 840.732 14.7903 840.752 14.7358 840.778C 14.6812 840.805 14.6255 840.838 14.5687 840.877C 14.5118 840.917 14.4552 840.962 14.3988 841.013C 14.3425 841.064 14.288 841.12 14.2356 841.179C 14.1831 841.238 14.1345 841.3 14.0896 841.364C 14.0448 841.428 14.0055 841.493 13.9717 841.558C 13.938 841.623 13.9116 841.686 13.8924 841.747C 13.8733 841.807 13.862 841.86 13.8585 841.904C 13.8551 841.949 13.8553 841.986 13.8593 842.017C 13.8633 842.047 13.8679 842.072 13.8731 842.091C 13.8783 842.11 13.8824 842.123 13.8854 842.132L 13.8898 842.144"/>
<path style="stroke:#000000; stroke-width:0.850394; stroke-linejoin:round; stroke-linecap:round; fill:none" d="M 13.8669 842.204C 13.8726 842.201 13.8776 842.197 13.8888 842.181C 13.8928 842.165 13.8928 842.165 13.8898 842.144"/>
<path style="stroke:#000000; stroke-width:0.850394; stroke-linejoin:round; stroke-linecap:round; fill:none" d="M 13.8669 842.204L 13.8658 842.205C 13.8651 842.205 13.8577 842.209 13.8438 842.217C 13.8299 842.225 13.8094 842.236 13.7822 842.25C 13.755 842.264 13.7212 842.28 13.6808 842.298C 13.6403 842.316 13.5938 842.333 13.5412 842.35C 13.4886 842.366 13.4322 842.376 13.3721 842.38C 13.3121 842.384 13.2561 842.378 13.2042 842.363C 13.1524 842.347 13.1063 842.322 13.0659 842.288C 13.0256 842.254 12.9927 842.211 12.9671 842.159C 12.9416 842.108 12.9257 842.056 12.9194 842.004C 12.9131 841.951 12.9122 841.903 12.9165 841.858C 12.9209 841.814 12.9265 841.775 12.9336 841.743C 12.9406 841.711 12.9464 841.687 12.951 841.67L 12.9578 841.645"/>
<path style="stroke:#000000; stroke-width:0.850394; stroke-linejoin:round; stroke-linecap:round; fill:none" d="M 12.9579 841.645C 12.961 841.634 12.9627 841.622 12.9627 841.609C 12.9627 841.534 12.9018 841.473 12.8268 841.473C 12.7724 841.473 12.7254 841.505 12.7037 841.552"/>
<path style="stroke:#000000; stroke-width:0.850394; stroke-linejoin:round; stroke-linecap:round; fill:none" d="M 12.7037 841.552L 12.6953 841.569C 12.6896 841.58 12.6811 841.597 12.6697 841.619C 12.6584 841.642 12.644 841.669 12.6266 841.701C 12.6092 841.733 12.5886 841.769 12.5648 841.809C 12.5411 841.849 12.5138 841.891 12.483 841.936C 12.4523 841.981 12.4211 842.023 12.3895 842.062C 12.3579 842.102 12.3261 842.139 12.294 842.172C 12.2619 842.206 12.2299 842.236 12.198 842.264C 12.1661 842.291 12.1348 842.314 12.104 842.334C 12.0733 842.354 12.0439 842.37 12.0157 842.382C 11.9876 842.394 11.9615 842.401 11.9375 842.404C 11.9135 842.407 11.8922 842.405 11.8737 842.398C 11.8552 842.391 11.84 842.379 11.8281 842.362C 11.8162 842.345 11.8079 842.322 11.8032 842.295C 11.7985 842.267 11.7975 842.234 11.8002 842.197C 11.8028 842.159 11.8081 842.121 11.8161 842.083C 11.8241 842.045 11.8327 842.009 11.8419 841.976C 11.8511 841.943 11.8595 841.915 11.867 841.891C 11.8746 841.867 11.8804 841.849 11.8846 841.836L 11.8908 841.818"/>
<path style="stroke:#000000; stroke-width:0.850394; stroke-linejoin:round; stroke-linecap:round; fill:none" d="M 11.8908 841.818C 11.9001 841.796 11.9053 841.772 11.9053 841.748C 11.9053 841.65 11.8264 841.571 11.7291 841.57"/>
<path style="stroke:#000000; stroke-width:0.850394; stroke-linejoin:round; stroke-linecap:round; fill:none" d="M 11.7291 841.57L 11.7225 841.57C 11.718 841.57 11.7114 841.569 11.7027 841.568C 11.6939 841.567 11.683 841.566 11.6699 841.564C 11.6569 841.562 11.6418 841.559 11.6247 841.556C 11.6076 841.553 11.5886 841.548 11.5678 841.543C 11.5469 841.537 11.5263 841.531 11.506 841.523C 11.4857 841.516 11.4657 841.508 11.4461 841.499C 11.4264 841.49 11.407 841.479 11.3879 841.468C 11.3688 841.457 11.3501 841.446 11.3316 841.433C 11.3132 841.42 11.295 841.406 11.2771 841.392C 11.2592 841.377 11.2432 841.364 11.2293 841.351C 11.2154 841.338 11.2033 841.327 11.1931 841.316C 11.1829 841.306 11.1744 841.297 11.1677 841.29C 11.161 841.283 11.1559 841.278 11.1526 841.274L 11.1476 841.269"/>
<path style="stroke:#000000; stroke-width:0.850394; stroke-linejoin:round; stroke-linecap:round; fill:none" d="M 11.1476 841.269C 11.1109 841.225 11.056 841.198 10.9948 841.198C 10.9185 841.198 10.8522 841.24 10.8185 841.303"/>
<path style="stroke:#000000; stroke-width:0.850394; stroke-linejoin:round; stroke-linecap:round; fill:none" d="M 10.8185 841.303L 10.8096 841.332C 10.8036 841.351 10.7944 841.379 10.7819 841.417C 10.7693 841.454 10.7527 841.5 10.732 841.554C 10.7113 841.608 10.6853 841.668 10.6538 841.735C 10.6224 841.801 10.5837 841.872 10.5379 841.947C 10.4921 842.021 10.4432 842.091 10.3913 842.156C 10.3394 842.221 10.2852 842.281 10.2287 842.335C 10.1723 842.39 10.1152 842.439 10.0575 842.483C 9.99987 842.526 9.94468 842.565 9.89195 842.598C 9.83923 842.631 9.7902 842.66 9.74486 842.684C 9.69952 842.708 9.66208 842.726 9.63252 842.738C 9.60296 842.75 9.57897 842.759 9.56054 842.764C 9.54212 842.77 9.52759 842.773 9.51696 842.775C 9.50632 842.777 9.49854 842.779 9.49364 842.779L 9.48627 842.78"/>
<path style="stroke:#000000; stroke-width:0.850394; stroke-linejoin:round; stroke-linecap:round; fill:none" d="M 9.39788 842.707C 9.39919 842.748 9.43303 842.781 9.47453 842.781C 9.47852 842.781 9.48244 842.781 9.48627 842.78"/>
<path style="stroke:#000000; stroke-width:0.850394; stroke-linejoin:round; stroke-linecap:round; fill:none" d="M 9.39788 842.707L 9.39758 842.698C 9.39738 842.692 9.39747 842.683 9.39785 842.671C 9.39822 842.659 9.39984 842.646 9.40271 842.63C 9.40557 842.614 9.41111 842.597 9.41931 842.578C 9.42751 842.56 9.43976 842.541 9.45606 842.521C 9.47237 842.501 9.49091 842.482 9.51169 842.464C 9.53248 842.445 9.55469 842.427 9.57833 842.408C 9.60198 842.389 9.62631 842.37 9.65134 842.349C 9.67637 842.328 9.70152 842.307 9.72677 842.284C 9.75203 842.261 9.77695 842.237 9.80154 842.211C 9.82612 842.186 9.84772 842.162 9.86633 842.14C 9.88494 842.117 9.90082 842.097 9.914 842.08C 9.92717 842.062 9.93796 842.047 9.94637 842.035C 9.95478 842.022 9.96104 842.013 9.96516 842.007L 9.97133 841.997"/>
<path style="stroke:#000000; stroke-width:0.850394; stroke-linejoin:round; stroke-linecap:round; fill:none" d="M 9.97132 841.997C 9.99096 841.968 10.0024 841.932 10.0024 841.894C 10.0024 841.79 9.91822 841.706 9.81453 841.706C 9.7533 841.706 9.69888 841.736 9.66457 841.781"/>
<path style="stroke:#000000; stroke-width:0.850394; stroke-linejoin:round; stroke-linecap:round; fill:none" d="M 9.66456 841.781L 9.66068 841.786C 9.65809 841.789 9.65365 841.795 9.64735 841.803C 9.64106 841.811 9.63149 841.822 9.61866 841.837C 9.60582 841.852 9.58751 841.872 9.56371 841.897C 9.53991 841.922 9.50791 841.955 9.46772 841.995C 9.42753 842.034 9.38276 842.077 9.33342 842.122C 9.28408 842.168 9.23118 842.215 9.1747 842.263C 9.11822 842.311 9.05959 842.359 8.99879 842.407C 8.938 842.455 8.87698 842.5 8.81574 842.543C 8.7545 842.587 8.69535 842.625 8.6383 842.66C 8.58125 842.695 8.52863 842.723 8.48043 842.746C 8.43223 842.768 8.39049 842.784 8.3552 842.792C 8.31991 842.8 8.29248 842.8 8.27291 842.792C 8.25333 842.784 8.24201 842.769 8.23894 842.746C 8.23587 842.724 8.24019 842.695 8.25191 842.662C 8.26364 842.628 8.28111 842.591 8.30432 842.551C 8.32754 842.511 8.35437 842.47 8.38482 842.428C 8.41528 842.387 8.44708 842.347 8.48024 842.309C 8.51339 842.271 8.54586 842.235 8.57764 842.203C 8.60942 842.17 8.63887 842.141 8.66599 842.115C 8.69311 842.089 8.71465 842.068 8.73062 842.053C 8.74659 842.037 8.75859 842.024 8.76663 842.015C 8.77467 842.006 8.78046 841.998 8.784 841.993C 8.78753 841.988 8.78996 841.984 8.79127 841.982L 8.79324 841.979"/>
<path style="stroke:#000000; stroke-width:0.850394; stroke-linejoin:round; stroke-linecap:round; fill:none" d="M 8.79325 841.979C 8.80937 841.95 8.81858 841.918 8.81858 841.883C 8.81858 841.775 8.73139 841.688 8.62398 841.688C 8.5968 841.688 8.57091 841.694 8.5474 841.704"/>
<path style="stroke:#000000; stroke-width:0.850394; stroke-linejoin:round; stroke-linecap:round; fill:none" d="M 8.54741 841.704L 8.51822 841.716C 8.49876 841.725 8.46919 841.738 8.42952 841.756C 8.38986 841.774 8.33915 841.799 8.27742 841.83C 8.21568 841.861 8.14182 841.902 8.05584 841.951C 7.96985 842.001 7.87224 842.06 7.76299 842.129C 7.65374 842.199 7.54628 842.269 7.4406 842.339C 7.33492 842.409 7.23347 842.477 7.13626 842.542C 7.03904 842.607 6.94767 842.667 6.86215 842.722C 6.77663 842.777 6.6967 842.826 6.62236 842.868C 6.54802 842.911 6.47736 842.948 6.41039 842.979C 6.34342 843.011 6.28417 843.036 6.23263 843.054C 6.1811 843.072 6.13561 843.086 6.09617 843.096C 6.05672 843.107 6.02354 843.115 5.99662 843.12C 5.9697 843.126 5.94944 843.13 5.93582 843.133L 5.9154 843.137"/>
<path style="stroke:#000000; stroke-width:0.850394; stroke-linejoin:round; stroke-linecap:round; fill:none" d="M 5.70365 842.818C 5.68194 842.851 5.66929 842.89 5.66929 842.933C 5.66929 843.047 5.76234 843.14 5.87698 843.14C 5.89011 843.14 5.90295 843.139 5.9154 843.137"/>
<path style="stroke:#000000; stroke-width:0.850394; stroke-linejoin:round; stroke-linecap:round; fill:none" d="M 5.70364 842.818L 5.71638 842.797C 5.72487 842.782 5.73835 842.76 5.75683 842.73C 5.77531 842.7 5.80067 842.661 5.83289 842.612C 5.86512 842.563 5.90711 842.501 5.95888 842.428C 6.01064 842.354 6.07571 842.265 6.15409 842.161C 6.23246 842.057 6.30946 841.958 6.38508 841.863C 6.46069 841.769 6.53013 841.684 6.5934 841.608C 6.65667 841.533 6.71122 841.469 6.75705 841.416C 6.80289 841.363 6.83846 841.323 6.86376 841.294C 6.88907 841.266 6.90342 841.249 6.90682 841.246L 6.91193 841.24"/>
<path style="stroke:#000000; stroke-width:0.850394; stroke-linejoin:round; stroke-linecap:round; fill:none" d="M 6.91193 841.24L 6.92098 841.247C 6.92702 841.251 6.9388 841.26 6.95634 841.272C 6.97387 841.284 6.99809 841.298 7.02899 841.314C 7.0599 841.33 7.09904 841.345 7.14642 841.359C 7.19381 841.373 7.2517 841.381 7.32011 841.385C 7.38852 841.388 7.46558 841.383 7.5513 841.37C 7.63702 841.357 7.72854 841.336 7.82584 841.306C 7.92315 841.277 8.02649 841.239 8.13585 841.194C 8.2452 841.149 8.36002 841.095 8.4803 841.035C 8.60058 840.974 8.72462 840.906 8.85239 840.831C 8.98017 840.755 9.10914 840.673 9.23929 840.585C 9.36944 840.497 9.4976 840.403 9.62376 840.304C 9.74992 840.205 9.87053 840.102 9.9856 839.996C 10.1007 839.889 10.2065 839.781 10.303 839.672C 10.3996 839.563 10.4833 839.455 10.5542 839.349C 10.6251 839.242 10.68 839.141 10.7187 839.046C 10.7574 838.951 10.7775 838.865 10.7791 838.789C 10.7806 838.713 10.7625 838.651 10.7247 838.602C 10.6869 838.552 10.6302 838.519 10.5544 838.5C 10.4787 838.482 10.3874 838.479 10.2804 838.492C 10.1734 838.504 10.0562 838.53 9.92876 838.568C 9.80132 838.606 9.66979 838.654 9.53417 838.711C 9.39855 838.768 9.2779 838.825 9.17223 838.88C 9.06655 838.935 8.97687 838.985 8.90317 839.029C 8.82948 839.073 8.76955 839.11 8.72338 839.14C 8.67722 839.17 8.64297 839.193 8.62063 839.208L 8.58712 839.231"/>
<path style="stroke:#000000; stroke-width:0.850394; stroke-linejoin:round; stroke-linecap:round; fill:none" d="M 8.58712 839.231L 8.52407 839.275C 8.48204 839.304 8.4201 839.347 8.33827 839.405C 8.25643 839.464 8.15748 839.538 8.0414 839.628C 7.92533 839.717 7.81201 839.81 7.70145 839.906C 7.59088 840.003 7.48535 840.099 7.38484 840.196C 7.28434 840.293 7.20217 840.374 7.13833 840.44C 7.07449 840.505 7.02631 840.555 6.99378 840.589C 6.96126 840.623 6.94324 840.642 6.93972 840.646L 6.93444 840.652"/>
<path style="stroke:#000000; stroke-width:0.850394; stroke-linejoin:round; stroke-linecap:round; fill:none" d="M 6.93444 840.652L 6.9336 840.648C 6.93304 840.645 6.93125 840.637 6.92825 840.622C 6.92525 840.608 6.92287 840.592 6.92113 840.577C 6.91939 840.561 6.9183 840.545 6.91786 840.529C 6.91741 840.513 6.91763 840.496 6.91852 840.478C 6.9194 840.461 6.92065 840.445 6.92228 840.43L 6.92473 840.408"/>
<path style="stroke:#000000; stroke-width:0.850394; stroke-linejoin:round; stroke-linecap:round; fill:none" d="M 6.92474 840.408C 6.92544 840.401 6.9258 840.395 6.9258 840.388C 6.9258 840.289 6.84534 840.209 6.74621 840.209C 6.64709 840.209 6.56663 840.289 6.56663 840.388C 6.56663 840.392 6.56675 840.396 6.56699 840.4"/>
<path style="stroke:#000000; stroke-width:0.850394; stroke-linejoin:round; stroke-linecap:round; fill:none" d="M 6.567 840.4L 6.56937 840.437C 6.57094 840.461 6.57381 840.494 6.57795 840.535C 6.58209 840.576 6.58745 840.615 6.59402 840.651C 6.60058 840.688 6.60832 840.723 6.61724 840.756C 6.62615 840.79 6.63616 840.821 6.64725 840.85C 6.65835 840.88 6.66646 840.9 6.67157 840.912L 6.67925 840.93"/>
<path style="stroke:#000000; stroke-width:0.850394; stroke-linejoin:round; stroke-linecap:round; fill:none" d="M 6.67925 840.93L 6.66876 840.942C 6.66177 840.949 6.64169 840.972 6.6085 841.01C 6.57532 841.047 6.53036 841.099 6.47362 841.165C 6.41689 841.23 6.35107 841.309 6.27617 841.4C 6.20127 841.491 6.1213 841.591 6.03626 841.699C 5.95123 841.808 5.86801 841.918 5.78661 842.029C 5.70521 842.14 5.63293 842.243 5.56975 842.338C 5.50657 842.433 5.45705 842.514 5.42119 842.579C 5.38533 842.645 5.35817 842.7 5.33968 842.745C 5.3212 842.79 5.30768 842.826 5.29914 842.854C 5.29059 842.882 5.28465 842.902 5.28132 842.916L 5.27632 842.936"/>
<path style="stroke:#000000; stroke-width:0.850394; stroke-linejoin:round; stroke-linecap:round; fill:none" d="M 5.27624 842.936C 5.2672 842.973 5.2624 843.011 5.2624 843.05C 5.2624 843.313 5.47543 843.526 5.73788 843.526C 5.75987 843.526 5.7815 843.524 5.8027 843.521"/>
<path style="stroke:#000000; stroke-width:0.850394; stroke-linejoin:round; stroke-linecap:round; fill:none" d="M 5.80269 843.521L 5.82912 843.518C 5.84674 843.515 5.87299 843.511 5.90786 843.505C 5.94273 843.499 5.98577 843.49 6.03697 843.477C 6.08818 843.464 6.14682 843.446 6.2129 843.423C 6.27897 843.399 6.35151 843.369 6.43051 843.331C 6.50951 843.293 6.58673 843.252 6.66218 843.209C 6.73762 843.166 6.8113 843.122 6.88321 843.077C 6.95512 843.032 7.02531 842.987 7.09377 842.942C 7.16224 842.898 7.2291 842.855 7.29435 842.812C 7.3596 842.77 7.4234 842.729 7.48575 842.69C 7.5481 842.651 7.60316 842.617 7.65093 842.588C 7.69869 842.559 7.73994 842.535 7.77466 842.514C 7.80938 842.494 7.83807 842.478 7.86074 842.465C 7.8834 842.452 7.90034 842.442 7.91155 842.436L 7.92836 842.426"/>
<path style="stroke:#000000; stroke-width:0.850394; stroke-linejoin:round; stroke-linecap:round; fill:none" d="M 7.97504 842.48C 7.97849 842.475 7.98048 842.468 7.98048 842.461C 7.98048 842.44 7.96369 842.424 7.943 842.424C 7.93781 842.424 7.93286 842.425 7.92836 842.426"/>
<path style="stroke:#000000; stroke-width:0.850394; stroke-linejoin:round; stroke-linecap:round; fill:none" d="M 7.97504 842.48L 7.9691 842.491C 7.96514 842.498 7.95934 842.509 7.95171 842.523C 7.94407 842.537 7.93495 842.554 7.92435 842.575C 7.91374 842.596 7.90223 842.619 7.8898 842.645C 7.87737 842.671 7.86482 842.7 7.85217 842.731C 7.83951 842.762 7.82836 842.791 7.81871 842.82C 7.80906 842.849 7.80103 842.876 7.79462 842.903C 7.78821 842.929 7.78361 842.955 7.78082 842.979C 7.77802 843.003 7.77733 843.025 7.77874 843.046C 7.78015 843.067 7.78401 843.087 7.79032 843.104C 7.79663 843.122 7.80569 843.138 7.8175 843.152C 7.82931 843.166 7.84403 843.177 7.86166 843.187C 7.87928 843.196 7.89972 843.204 7.92298 843.209C 7.94623 843.214 7.97192 843.217 8.00004 843.218C 8.02815 843.219 8.05813 843.218 8.08996 843.215C 8.12179 843.212 8.15479 843.207 8.18896 843.201C 8.22312 843.194 8.25773 843.186 8.29278 843.177C 8.32783 843.167 8.36264 843.157 8.39722 843.145C 8.4318 843.134 8.46558 843.121 8.49855 843.108C 8.53153 843.094 8.56327 843.081 8.59376 843.066C 8.62425 843.052 8.65319 843.037 8.68058 843.023C 8.70796 843.008 8.73363 842.994 8.75758 842.98C 8.78153 842.967 8.80375 842.954 8.82424 842.942C 8.84472 842.93 8.86364 842.92 8.88098 842.911C 8.89832 842.902 8.91439 842.896 8.92918 842.892C 8.94398 842.888 8.95787 842.887 8.97088 842.888C 8.98388 842.89 8.99641 842.895 9.00846 842.902C 9.02052 842.91 9.03251 842.919 9.04443 842.932C 9.05635 842.944 9.06858 842.957 9.08113 842.972C 9.09368 842.987 9.10689 843.002 9.12076 843.017C 9.13463 843.032 9.14949 843.046 9.16531 843.059C 9.18114 843.072 9.19823 843.083 9.21657 843.092C 9.23491 843.101 9.25474 843.108 9.27605 843.113C 9.29735 843.118 9.3203 843.121 9.34488 843.121C 9.36946 843.122 9.39573 843.12 9.42369 843.116C 9.45165 843.112 9.48125 843.107 9.51247 843.099C 9.54369 843.092 9.57633 843.082 9.6104 843.071C 9.64447 843.06 9.67966 843.048 9.71596 843.033C 9.75225 843.019 9.78928 843.003 9.82704 842.986C 9.86479 842.968 9.90285 842.949 9.94121 842.929C 9.97957 842.908 10.0178 842.886 10.0559 842.863C 10.094 842.84 10.1316 842.815 10.1686 842.789C 10.2056 842.763 10.2418 842.736 10.277 842.708C 10.3123 842.679 10.3464 842.65 10.3793 842.62C 10.4123 842.589 10.4438 842.558 10.474 842.526C 10.5042 842.495 10.533 842.462 10.5602 842.43C 10.5874 842.397 10.6131 842.364 10.6374 842.33C 10.6616 842.297 10.6843 842.264 10.7056 842.231C 10.7269 842.198 10.747 842.166 10.7657 842.134C 10.7845 842.102 10.8022 842.072 10.8189 842.042C 10.8357 842.012 10.8517 841.984 10.8671 841.957C 10.8825 841.93 10.8975 841.906 10.9122 841.883C 10.9269 841.86 10.9415 841.839 10.9562 841.821C 10.9708 841.803 10.9856 841.787 11.0007 841.774C 11.0157 841.761 11.0311 841.751 11.0469 841.743C 11.0627 841.736 11.0772 841.731 11.0905 841.729C 11.1038 841.728 11.1157 841.728 11.1261 841.729C 11.1365 841.731 11.1452 841.733 11.1524 841.735C 11.1595 841.737 11.1648 841.739 11.1684 841.74L 11.1738 841.742"/>
<path style="stroke:#000000; stroke-width:0.850394; stroke-linejoin:round; stroke-linecap:round; fill:none" d="M 11.1738 841.742C 11.2641 841.786 11.3594 841.822 11.4586 841.848"/>
<path style="stroke:#000000; stroke-width:0.850394; stroke-linejoin:round; stroke-linecap:round; fill:none" d="M 11.5085 841.992C 11.5203 841.977 11.5273 841.957 11.5273 841.936C 11.5273 841.894 11.4981 841.858 11.4587 841.848"/>
<path style="stroke:#000000; stroke-width:0.850394; stroke-linejoin:round; stroke-linecap:round; fill:none" d="M 11.5085 841.992L 11.5044 842.002C 11.5017 842.008 11.4979 842.018 11.4929 842.031C 11.4879 842.044 11.4825 842.06 11.4765 842.08C 11.4705 842.099 11.465 842.121 11.46 842.147C 11.455 842.172 11.4518 842.2 11.4504 842.231C 11.4491 842.262 11.4502 842.292 11.4539 842.322C 11.4575 842.352 11.4636 842.381 11.4723 842.409C 11.4809 842.438 11.492 842.465 11.5055 842.492C 11.519 842.518 11.5349 842.543 11.553 842.567C 11.5712 842.591 11.5915 842.612 11.6139 842.632C 11.6363 842.652 11.6606 842.669 11.6867 842.684C 11.7129 842.699 11.7406 842.711 11.7698 842.72C 11.7991 842.73 11.8295 842.736 11.861 842.739C 11.8926 842.742 11.9249 842.743 11.9578 842.74C 11.9907 842.738 12.0239 842.733 12.0572 842.725C 12.0906 842.717 12.1236 842.707 12.1564 842.694C 12.1893 842.681 12.2214 842.667 12.2528 842.65C 12.2842 842.634 12.3146 842.616 12.344 842.596C 12.3734 842.576 12.4016 842.555 12.4286 842.532C 12.4556 842.51 12.4802 842.487 12.5023 842.464C 12.5244 842.441 12.5432 842.42 12.5588 842.401C 12.5743 842.381 12.5872 842.365 12.5975 842.35C 12.6078 842.335 12.6159 842.324 12.6218 842.314C 12.6277 842.305 12.6317 842.299 12.6337 842.296L 12.6367 842.291"/>
<path style="stroke:#000000; stroke-width:0.850394; stroke-linejoin:round; stroke-linecap:round; fill:none" d="M 12.7653 842.294C 12.7525 842.272 12.7525 842.272 12.6367 842.291"/>
<path style="stroke:#000000; stroke-width:0.850394; stroke-linejoin:round; stroke-linecap:round; fill:none" d="M 12.7653 842.294L 12.792 842.341C 12.8098 842.372 12.8384 842.415 12.8778 842.469C 12.9173 842.523 12.9707 842.575 13.0383 842.625C 13.1058 842.675 13.1851 842.705 13.2761 842.715C 13.3671 842.724 13.4597 842.716 13.5539 842.69C 13.6481 842.664 13.728 842.637 13.7936 842.609C 13.8592 842.58 13.9107 842.557 13.9482 842.537C 13.9856 842.518 14.0108 842.505 14.0237 842.498L 14.0431 842.488"/>
<path style="stroke:#000000; stroke-width:0.850394; stroke-linejoin:round; stroke-linecap:round; fill:none" d="M 14.1962 842.495C 14.1799 842.484 14.1616 842.477 14.1084 842.469C 14.1084 842.469 14.1084 842.469 14.0431 842.488"/>
<path style="stroke:#000000; stroke-width:0.850394; stroke-linejoin:round; stroke-linecap:round; fill:none" d="M 13.1892 840.427L 13.1141 840.437C 13.064 840.443 13.0085 840.535 12.9474 840.712C 12.8864 840.89 12.8726 840.999 12.9061 841.041L 12.9563 841.104"/>
<path style="stroke:#000000; stroke-width:0.850394; stroke-linejoin:round; stroke-linecap:round; fill:none" d="M 12.9563 841.104L 12.9764 841.129C 12.9898 841.146 13.0188 841.139 13.0635 841.11C 13.1081 841.08 13.151 841.039 13.1922 840.987L 13.2539 840.907"/>
<path style="stroke:#000000; stroke-width:0.850394; stroke-linejoin:round; stroke-linecap:round; fill:none" d="M 13.2539 840.907L 13.3625 840.768C 13.4349 840.676 13.4659 840.59 13.4553 840.512C 13.4447 840.434 13.3977 840.4 13.3143 840.411L 13.1892 840.427"/>
</g>
</svg>