<?xml version="1.0" encoding="UTF-8" standalone="yes"?>
<!-- Created with sK1/UniConvertor (http://sk1project.org/) -->
<svg xmlns="http://www.w3.org/2000/svg" xmlns:xlink="http://www.w3.org/1999/xlink"
  width="595.276pt" height="841.89pt" viewBox="0 0 595.276 841.89"
  fill-rule="evenodd">
<g>
<path style="stroke:#000000; stroke-width:0.850394; stroke-linejoin:round; stroke-linecap:round; fill:none" d="M -21.7978 842.748L -21.8517 842.838C -21.8876 842.898 -21.9414 842.988 -22.013 843.108C -22.0847 843.227 -22.1739 843.375 -22.2806 843.552C -22.3874 843.728 -22.5112 843.932 -22.6521 844.162C -22.793 844.392 -22.9502 844.647 -23.1238 844.926C -23.2973 845.205 -23.4695 845.479 -23.6403 845.748C -23.811 846.016 -23.9803 846.28 -24.148 846.538C -24.3157 846.796 -24.4819 847.049 -24.6464 847.296C -24.811 847.542 -24.974 847.784 -25.1355 848.02C -25.297 848.256 -25.457 848.486 -25.6157 848.712C -25.7743 848.938 -25.916 849.137 -26.0408 849.311C -26.1656 849.484 -26.2743 849.633 -26.3668 849.759C -26.4593 849.885 -26.5362 849.989 -26.5973 850.072C -26.6585 850.154 -26.7044 850.215 -26.7348 850.256L -26.7805 850.317"/>
<path style="stroke:#000000; stroke-width:0.850394; stroke-linejoin:round; stroke-linecap:round; fill:none" d="M -26.7805 850.317C -27.036 850.736 -27.1832 851.228 -27.1832 851.754C -27.1832 853.28 -25.9446 854.518 -24.4187 854.518C -24.0489 854.518 -23.6959 854.446 -23.3734 854.314"/>
<path style="stroke:#000000; stroke-width:0.850394; stroke-linejoin:round; stroke-linecap:round; fill:none" d="M -23.3736 854.313L -23.3025 854.282C -23.2551 854.262 -23.1842 854.231 -23.0897 854.189C -22.9952 854.147 -22.8776 854.095 -22.7369 854.031C -22.5961 853.967 -22.4328 853.89 -22.2471 853.802C -22.0614 853.713 -21.8542 853.611 -21.6256 853.495C -21.397 853.378 -21.1706 853.259 -20.9463 853.135C -20.722 853.012 -20.5004 852.884 -20.2815 852.752C -20.0626 852.62 -19.8472 852.481 -19.6353 852.337C -19.4233 852.194 -19.2158 852.042 -19.0127 851.883C -18.8096 851.724 -18.6121 851.555 -18.42 851.376C -18.228 851.198 -18.0605 851.028 -17.9175 850.866C -17.7745 850.705 -17.6527 850.558 -17.5522 850.424C -17.4517 850.291 -17.3696 850.178 -17.3057 850.083C -17.2419 849.989 -17.1944 849.918 -17.1632 849.869L -17.1165 849.796"/>
<path style="stroke:#000000; stroke-width:0.850394; stroke-linejoin:round; stroke-linecap:round; fill:none" d="M -17.1165 849.796C -16.9907 849.601 -16.9177 849.368 -16.9177 849.118C -16.9177 848.425 -17.4801 847.863 -18.1731 847.863C -18.4802 847.863 -18.7616 847.973 -18.9799 848.157"/>
<path style="stroke:#000000; stroke-width:0.850394; stroke-linejoin:round; stroke-linecap:round; fill:none" d="M -18.98 848.156L -19.8165 849.018"/>
<path style="stroke:#000000; stroke-width:0.850394; stroke-linejoin:round; stroke-linecap:round; fill:none" d="M -21.6636 847.858C -21.7317 848.001 -21.7699 848.161 -21.7699 848.33C -21.7699 848.936 -21.278 849.428 -20.672 849.428C -20.3264 849.428 -20.0179 849.268 -19.8166 849.018"/>
<path style="stroke:#000000; stroke-width:0.850394; stroke-linejoin:round; stroke-linecap:round; fill:none" d="M -21.6635 847.858L -21.5738 847.699C -21.514 847.593 -21.4212 847.432 -21.2955 847.216C -21.1698 847 -21.0034 846.724 -20.7964 846.388C -20.5894 846.051 -20.3292 845.646 -20.0158 845.173C -19.7023 844.7 -19.3165 844.145 -18.8584 843.509C -18.4002 842.873 -17.9063 842.213 -17.3767 841.53C -16.847 840.846 -16.2794 840.137 -15.6737 839.403C -15.0681 838.669 -14.4244 837.91 -13.7426 837.125C -13.0609 836.34 -12.3437 835.532 -11.591 834.7C -10.8384 833.868 -10.0534 833.014 -9.23624 832.139C -8.41904 831.264 -7.6601 830.461 -6.95941 829.73C -6.25871 828.999 -5.63329 828.351 -5.08313 827.786C -4.53296 827.221 -4.06911 826.747 -3.69156 826.363C -3.31401 825.979 -3.02951 825.69 -2.83804 825.497L -2.55084 825.206"/>
<path style="stroke:#000000; stroke-width:0.850394; stroke-linejoin:round; stroke-linecap:round; fill:none" d="M -2.55097 825.206C -2.28671 824.853 -2.13014 824.415 -2.13014 823.94C -2.13014 822.773 -3.07783 821.825 -4.24539 821.825C -4.97212 821.825 -5.61367 822.192 -5.99452 822.751"/>
<path style="stroke:#000000; stroke-width:0.850394; stroke-linejoin:round; stroke-linecap:round; fill:none" d="M -5.99463 822.751L -6.28007 823.049C -6.47037 823.248 -6.75609 823.545 -7.13723 823.941C -7.51837 824.336 -7.99561 824.827 -8.56896 825.413C -9.14231 825.999 -9.81288 826.676 -10.5807 827.443C -11.3485 828.211 -12.2152 829.061 -13.1809 829.995C -14.1466 830.928 -15.1155 831.848 -16.0877 832.754C -17.0599 833.66 -18.0355 834.551 -19.0147 835.426C -19.9939 836.302 -20.9768 837.162 -21.9633 838.007C -22.9498 838.851 -23.9399 839.68 -24.9336 840.494C -25.9272 841.308 -26.9241 842.107 -27.9243 842.893C -28.9246 843.679 -29.8272 844.376 -30.6322 844.983C -31.4372 845.591 -32.1428 846.118 -32.7492 846.562C -33.3555 847.007 -33.8613 847.376 -34.2666 847.668C -34.6719 847.96 -34.9761 848.178 -35.179 848.323L -35.4834 848.54"/>
<path style="stroke:#000000; stroke-width:0.850394; stroke-linejoin:round; stroke-linecap:round; fill:none" d="M -36.6814 847.766C -36.7251 847.859 -36.7496 847.963 -36.7496 848.072C -36.7496 848.469 -36.4273 848.792 -36.0303 848.792C -35.8115 848.792 -35.6154 848.694 -35.4835 848.54"/>
<path style="stroke:#000000; stroke-width:0.850394; stroke-linejoin:round; stroke-linecap:round; fill:none" d="M -36.6813 847.766L -36.5604 847.557C -36.4797 847.417 -36.357 847.207 -36.1921 846.926C -36.0273 846.646 -35.8159 846.295 -35.558 845.873C -35.3001 845.451 -34.9883 844.957 -34.6227 844.391C -34.2572 843.825 -33.8267 843.186 -33.3312 842.473C -32.8358 841.759 -32.3194 841.043 -31.7822 840.324C -31.245 839.605 -30.6853 838.882 -30.1032 838.157C -29.5211 837.431 -28.9159 836.702 -28.2878 835.969C -27.6596 835.236 -27.0096 834.501 -26.3378 833.762C -25.666 833.023 -24.9741 832.281 -24.2622 831.536C -23.5503 830.791 -22.8949 830.118 -22.296 829.518C -21.6972 828.918 -21.1654 828.391 -20.7009 827.939C -20.2363 827.486 -19.8458 827.109 -19.5293 826.806C -19.2128 826.504 -18.9746 826.277 -18.8147 826.125L -18.5748 825.898"/>
<path style="stroke:#000000; stroke-width:0.850394; stroke-linejoin:round; stroke-linecap:round; fill:none" d="M -18.5751 825.897C -18.2304 825.531 -18.0191 825.038 -18.0191 824.496C -18.0191 823.366 -18.9358 822.45 -20.0651 822.45C -20.7278 822.45 -21.3172 822.766 -21.6912 823.255"/>
<path style="stroke:#000000; stroke-width:0.850394; stroke-linejoin:round; stroke-linecap:round; fill:none" d="M -21.6914 823.254L -21.9297 823.525C -22.0885 823.705 -22.3279 823.975 -22.648 824.336C -22.968 824.696 -23.3717 825.147 -23.8589 825.687C -24.3461 826.228 -24.9217 826.858 -25.5857 827.579C -26.2498 828.299 -27.0097 829.109 -27.8656 830.009C -28.7214 830.909 -29.5912 831.809 -30.475 832.708C -31.3588 833.607 -32.2576 834.506 -33.1716 835.405C -34.0855 836.303 -35.015 837.201 -35.9601 838.099C -36.9052 838.997 -37.8651 839.895 -38.8399 840.792C -39.8147 841.689 -40.8031 842.586 -41.8053 843.483C -42.8074 844.379 -43.7193 845.186 -44.541 845.903C -45.3628 846.62 -46.0871 847.247 -46.7139 847.784C -47.3408 848.322 -47.8655 848.77 -48.288 849.128C -48.7105 849.486 -49.0279 849.755 -49.2403 849.934L -49.559 850.202"/>
<path style="stroke:#000000; stroke-width:0.850394; stroke-linejoin:round; stroke-linecap:round; fill:none" d="M -50.9983 849.165C -51.0802 849.299 -51.1273 849.457 -51.1273 849.626C -51.1273 850.117 -50.7286 850.516 -50.2374 850.516C -49.9657 850.516 -49.7223 850.394 -49.559 850.202"/>
<path style="stroke:#000000; stroke-width:0.850394; stroke-linejoin:round; stroke-linecap:round; fill:none" d="M -50.9983 849.165L -50.8842 848.965C -50.8082 848.832 -50.6926 848.632 -50.5374 848.365C -50.3823 848.098 -50.1838 847.765 -49.9421 847.365C -49.7004 846.964 -49.4092 846.497 -49.0685 845.962C -48.7279 845.428 -48.3283 844.826 -47.8699 844.157C -47.4115 843.487 -46.9354 842.817 -46.4416 842.146C -45.9477 841.476 -45.4349 840.804 -44.903 840.132C -44.371 839.46 -43.8195 838.787 -43.2484 838.113C -42.6773 837.44 -42.0875 836.765 -41.4791 836.09C -40.8707 835.415 -40.2451 834.739 -39.6024 834.063C -38.9597 833.386 -38.3687 832.777 -37.8294 832.235C -37.2901 831.693 -36.8116 831.218 -36.3939 830.811C -35.9763 830.404 -35.6253 830.065 -35.3411 829.793C -35.0569 829.522 -34.843 829.318 -34.6994 829.182L -34.4841 828.978"/>
<path style="stroke:#000000; stroke-width:0.850394; stroke-linejoin:round; stroke-linecap:round; fill:none" d="M -34.4843 828.978C -34.1251 828.602 -33.9043 828.094 -33.9043 827.533C -33.9043 826.379 -34.8408 825.443 -35.9947 825.443C -36.6779 825.443 -37.2849 825.771 -37.6664 826.279"/>
<path style="stroke:#000000; stroke-width:0.850394; stroke-linejoin:round; stroke-linecap:round; fill:none" d="M -37.6666 826.279L -37.914 826.608C -38.0789 826.828 -38.3288 827.157 -38.6636 827.596C -38.9984 828.034 -39.4244 828.581 -39.9416 829.235C -40.4587 829.889 -41.0762 830.649 -41.7942 831.514C -42.5121 832.38 -43.3401 833.344 -44.2781 834.408C -45.2162 835.471 -46.1713 836.523 -47.1437 837.562C -48.116 838.602 -49.1033 839.627 -50.1054 840.638C -51.1076 841.649 -52.1262 842.646 -53.161 843.628C -54.1959 844.61 -55.2488 845.581 -56.3197 846.539C -57.3907 847.497 -58.4789 848.445 -59.5845 849.382C -60.69 850.318 -61.6982 851.154 -62.609 851.888C -63.5198 852.623 -64.3237 853.261 -65.0208 853.804C -65.7178 854.347 -66.3018 854.798 -66.7726 855.156C -67.2434 855.514 -67.5973 855.783 -67.8343 855.961L -68.1897 856.229"/>
<path style="stroke:#000000; stroke-width:0.850394; stroke-linejoin:round; stroke-linecap:round; fill:none" d="M -68.1895 856.229C -68.4744 856.568 -68.6462 857.005 -68.6462 857.482C -68.6462 858.557 -67.7736 859.429 -66.6987 859.429C -66.1385 859.429 -65.6333 859.192 -65.2779 858.813"/>
<path style="stroke:#000000; stroke-width:0.850394; stroke-linejoin:round; stroke-linecap:round; fill:none" d="M -65.2777 858.813L -58.3709 852.725"/>
<path style="stroke:#000000; stroke-width:0.850394; stroke-linejoin:round; stroke-linecap:round; fill:none" d="M -57.3266 853.458C -57.297 853.383 -57.2808 853.302 -57.2808 853.217C -57.2808 852.855 -57.5747 852.561 -57.9369 852.561C -58.1032 852.561 -58.2552 852.623 -58.3709 852.725"/>
<path style="stroke:#000000; stroke-width:0.850394; stroke-linejoin:round; stroke-linecap:round; fill:none" d="M -57.3272 853.458C -57.471 853.821 -57.5501 854.217 -57.5501 854.632C -57.5501 856.395 -56.1189 857.826 -54.3557 857.826C -53.2676 857.826 -52.306 857.281 -51.7291 856.449"/>
<path style="stroke:#000000; stroke-width:0.850394; stroke-linejoin:round; stroke-linecap:round; fill:none" d="M -51.729 856.449L -51.6298 856.35C -51.5637 856.284 -51.4646 856.185 -51.3323 856.053C -51.2 855.921 -51.0345 855.756 -50.8358 855.559C -50.6371 855.362 -50.405 855.132 -50.1396 854.871C -49.8741 854.609 -49.575 854.316 -49.2422 853.992C -48.9094 853.667 -48.5761 853.344 -48.2422 853.023C -47.9084 852.701 -47.574 852.381 -47.239 852.063C -46.904 851.744 -46.5684 851.427 -46.2322 851.112C -45.896 850.797 -45.5593 850.483 -45.222 850.171C -44.8846 849.859 -44.5468 849.548 -44.2084 849.238C -43.87 848.929 -43.5651 848.651 -43.2936 848.406C -43.0221 848.161 -42.7844 847.946 -42.5804 847.763C -42.3763 847.58 -42.2062 847.428 -42.07 847.307C -41.9339 847.185 -41.8317 847.094 -41.7635 847.033L -41.6613 846.943"/>
<path style="stroke:#000000; stroke-width:0.850394; stroke-linejoin:round; stroke-linecap:round; fill:none" d="M -40.7138 847.664C -40.6562 847.572 -40.623 847.463 -40.623 847.347C -40.623 847.017 -40.8909 846.749 -41.2209 846.749C -41.3951 846.749 -41.5519 846.824 -41.6613 846.943"/>
<path style="stroke:#000000; stroke-width:0.850394; stroke-linejoin:round; stroke-linecap:round; fill:none" d="M -40.7138 847.664L -43.6996 852.443"/>
<path style="stroke:#000000; stroke-width:0.850394; stroke-linejoin:round; stroke-linecap:round; fill:none" d="M -43.6995 852.443C -43.9966 852.917 -44.1683 853.477 -44.1683 854.078C -44.1683 855.781 -42.7859 857.163 -41.0827 857.163C -40.1957 857.163 -39.3957 856.789 -38.8326 856.189"/>
<path style="stroke:#000000; stroke-width:0.850394; stroke-linejoin:round; stroke-linecap:round; fill:none" d="M -38.8322 856.189L -38.647 856.009C -38.5236 855.889 -38.3391 855.711 -38.0936 855.473C -37.8481 855.236 -37.5433 854.942 -37.1793 854.593C -36.8152 854.243 -36.3946 853.842 -35.9176 853.389C -35.4407 852.936 -34.9116 852.438 -34.3304 851.896C -33.7493 851.354 -33.1764 850.824 -32.6117 850.308C -32.0471 849.791 -31.4914 849.289 -30.9448 848.801C -30.3981 848.312 -29.8609 847.839 -29.3332 847.381C -28.8055 846.922 -28.2871 846.479 -27.778 846.049C -27.2688 845.62 -26.7683 845.204 -26.2764 844.802C -25.7845 844.4 -25.3481 844.048 -24.9673 843.747C -24.5865 843.445 -24.2567 843.186 -23.9778 842.971C -23.6989 842.755 -23.468 842.577 -23.285 842.438C -23.102 842.299 -22.9652 842.195 -22.8744 842.127L -22.7383 842.024"/>
<path style="stroke:#000000; stroke-width:0.850394; stroke-linejoin:round; stroke-linecap:round; fill:none" d="M -21.7976 842.748C -21.7758 842.684 -21.7639 842.616 -21.7639 842.545C -21.7639 842.199 -22.0446 841.919 -22.3904 841.919C -22.519 841.919 -22.6387 841.957 -22.7383 842.024"/>
<path style="stroke:#000000; stroke-width:0.850394; stroke-linejoin:round; stroke-linecap:round; fill:none" d="M -12.1415 848.538C -12.1579 848.593 -12.1666 848.651 -12.1666 848.711C -12.1666 849.046 -11.8952 849.317 -11.5608 849.317C -11.5149 849.317 -11.4701 849.312 -11.4271 849.302"/>
<path style="stroke:#000000; stroke-width:0.850394; stroke-linejoin:round; stroke-linecap:round; fill:none" d="M -12.1414 848.538L -12.1176 848.458C -12.1018 848.405 -12.0763 848.328 -12.0413 848.225C -12.0063 848.123 -11.9575 848.001 -11.8949 847.858C -11.8323 847.716 -11.7498 847.561 -11.6473 847.392C -11.5448 847.224 -11.4162 847.048 -11.2615 846.865C -11.1069 846.683 -10.942 846.511 -10.7668 846.348C -10.5917 846.186 -10.4089 846.031 -10.2185 845.883C -10.028 845.735 -9.83147 845.593 -9.62876 845.457C -9.42605 845.321 -9.21699 845.193 -9.00157 845.074C -8.78615 844.955 -8.56301 844.849 -8.33215 844.755C -8.10129 844.661 -7.8858 844.591 -7.68569 844.544C -7.48557 844.497 -7.30531 844.466 -7.14491 844.45C -6.98451 844.435 -6.84842 844.427 -6.73665 844.426C -6.62488 844.425 -6.54045 844.426 -6.48336 844.427L -6.39772 844.43"/>
<path style="stroke:#000000; stroke-width:0.850394; stroke-linejoin:round; stroke-linecap:round; fill:none" d="M -5.81987 845.703C -5.70978 845.569 -5.64371 845.397 -5.64371 845.21C -5.64371 844.788 -5.97921 844.444 -6.39772 844.43"/>
<path style="stroke:#000000; stroke-width:0.850394; stroke-linejoin:round; stroke-linecap:round; fill:none" d="M -5.81978 845.703L -5.86199 845.755C -5.89014 845.789 -5.93281 845.84 -5.99002 845.908C -6.04722 845.975 -6.12011 846.057 -6.2087 846.154C -6.29728 846.251 -6.40339 846.361 -6.52704 846.482C -6.65068 846.603 -6.79442 846.734 -6.95826 846.876C -7.1221 847.017 -7.29067 847.154 -7.46397 847.287C -7.63727 847.42 -7.8154 847.551 -7.99835 847.678C -8.18131 847.805 -8.3691 847.929 -8.56173 848.051C -8.75437 848.172 -8.9516 848.29 -9.15344 848.403C -9.35527 848.516 -9.5614 848.624 -9.77182 848.725C -9.98223 848.826 -10.1748 848.91 -10.3496 848.977C -10.5244 849.045 -10.679 849.099 -10.8136 849.14C -10.9481 849.181 -11.061 849.213 -11.1523 849.236C -11.2435 849.259 -11.3121 849.276 -11.3581 849.287L -11.4271 849.302"/>
<path style="stroke:#000000; stroke-width:0.850394; stroke-linejoin:round; stroke-linecap:round; fill:none" d="M 12.599 838.495C 12.6326 838.45 12.6525 838.393 12.6525 838.332C 12.6525 838.181 12.5293 838.057 12.3775 838.057C 12.3746 838.057 12.3718 838.057 12.3691 838.057"/>
<path style="stroke:#000000; stroke-width:0.850394; stroke-linejoin:round; stroke-linecap:round; fill:none" d="M 12.369 838.057L 12.2643 838.097C 12.1945 838.123 12.0905 838.163 11.9526 838.216C 11.8146 838.269 11.6447 838.335 11.4429 838.416C 11.241 838.496 11.0107 838.591 10.752 838.699C 10.4933 838.808 10.2115 838.932 9.90662 839.071C 9.60174 839.21 9.30693 839.351 9.02221 839.494C 8.7375 839.637 8.46367 839.782 8.20074 839.93C 7.93782 840.077 7.68624 840.227 7.44601 840.38C 7.20578 840.533 6.97639 840.689 6.75785 840.848C 6.53931 841.007 6.33064 841.171 6.13182 841.338C 5.93301 841.505 5.76117 841.659 5.61629 841.799C 5.47142 841.94 5.3483 842.066 5.24694 842.176C 5.14559 842.286 5.06271 842.379 4.99831 842.454C 4.9339 842.53 4.886 842.587 4.85459 842.625L 4.80748 842.682"/>
<path style="stroke:#000000; stroke-width:0.850394; stroke-linejoin:round; stroke-linecap:round; fill:none" d="M 4.80756 842.682C 4.64442 842.839 4.5428 843.059 4.5428 843.303C 4.5428 843.35 4.54665 843.397 4.55405 843.442"/>
<path style="stroke:#000000; stroke-width:0.850394; stroke-linejoin:round; stroke-linecap:round; fill:none" d="M 4.55417 843.442L 4.56028 843.478C 4.56436 843.503 4.57045 843.539 4.57856 843.588C 4.58667 843.636 4.59674 843.696 4.60877 843.769C 4.62081 843.841 4.63458 843.925 4.6501 844.021C 4.66562 844.116 4.6819 844.223 4.69892 844.342C 4.71595 844.461 4.73083 844.58 4.74355 844.699C 4.75627 844.818 4.76589 844.938 4.77239 845.058C 4.7789 845.178 4.78158 845.299 4.78045 845.421C 4.77932 845.543 4.7742 845.665 4.7651 845.789C 4.756 845.913 4.74305 846.038 4.72623 846.164C 4.70941 846.29 4.69137 846.404 4.67211 846.506C 4.65285 846.608 4.63446 846.698 4.61692 846.776C 4.59939 846.853 4.58411 846.918 4.57107 846.97C 4.55803 847.022 4.54808 847.061 4.54123 847.088L 4.53094 847.127"/>
<path style="stroke:#000000; stroke-width:0.850394; stroke-linejoin:round; stroke-linecap:round; fill:none" d="M 4.15382 847.601C 4.33455 847.5 4.47194 847.33 4.5311 847.127"/>
<path style="stroke:#000000; stroke-width:0.850394; stroke-linejoin:round; stroke-linecap:round; fill:none" d="M 4.15381 847.601L 4.09007 847.647C 4.04758 847.678 3.98214 847.724 3.89374 847.786C 3.80535 847.848 3.68975 847.925 3.54693 848.019C 3.40411 848.113 3.22721 848.223 3.01624 848.351C 2.80527 848.478 2.55123 848.622 2.2541 848.784C 1.95698 848.946 1.64479 849.108 1.31756 849.27C 0.990324 849.432 0.651739 849.591 0.301805 849.747C -0.0481285 849.903 -0.402948 850.052 -0.762653 850.193C -1.12236 850.334 -1.47661 850.46 -1.82541 850.571C -2.17421 850.682 -2.50512 850.769 -2.81813 850.832C -3.13114 850.895 -3.41399 850.926 -3.66668 850.926C -3.91936 850.925 -4.13193 850.887 -4.30438 850.811C -4.47683 850.735 -4.60369 850.619 -4.68498 850.464C -4.76626 850.309 -4.80349 850.119 -4.79667 849.894C -4.78985 849.668 -4.74558 849.416 -4.66385 849.138C -4.58212 848.86 -4.47234 848.565 -4.33452 848.255C -4.1967 847.946 -4.04104 847.631 -3.86756 847.312C -3.69408 846.993 -3.51168 846.679 -3.32035 846.369C -3.12901 846.059 -2.93452 845.76 -2.73686 845.472C -2.53921 845.184 -2.34182 844.909 -2.1447 844.649C -1.94758 844.389 -1.77173 844.167 -1.61714 843.984C -1.46255 843.8 -1.32839 843.647 -1.21468 843.523C -1.10097 843.4 -1.0067 843.301 -0.931876 843.225C -0.857053 843.149 -0.801059 843.093 -0.763895 843.056L -0.708148 843.002"/>
<path style="stroke:#000000; stroke-width:0.850394; stroke-linejoin:round; stroke-linecap:round; fill:none" d="M -0.708198 843.002C -0.54106 842.877 -0.432849 842.677 -0.432849 842.452C -0.432849 842.243 -0.526484 842.055 -0.674086 841.93"/>
<path style="stroke:#000000; stroke-width:0.850394; stroke-linejoin:round; stroke-linecap:round; fill:none" d="M -0.674025 841.929L -0.736813 841.876C -0.778671 841.84 -0.843428 841.789 -0.931085 841.722C -1.01874 841.655 -1.13422 841.577 -1.27753 841.489C -1.42083 841.401 -1.59984 841.311 -1.81455 841.218C -2.02925 841.125 -2.29031 841.04 -2.59771 840.961C -2.90511 840.882 -3.23148 840.82 -3.5768 840.775C -3.92212 840.731 -4.28529 840.704 -4.66631 840.695C -5.04733 840.686 -5.44431 840.7 -5.85724 840.736C -6.27017 840.773 -6.69611 840.84 -7.13505 840.938C -7.57399 841.036 -8.02162 841.173 -8.47792 841.349C -8.93422 841.525 -9.39313 841.745 -9.85464 842.01C -10.3162 842.276 -10.7721 842.586 -11.2226 842.942C -11.6731 843.298 -12.1072 843.692 -12.5251 844.122C -12.943 844.553 -13.3314 845.005 -13.6904 845.477C -14.0494 845.95 -14.3648 846.424 -14.6366 846.9C -14.9084 847.375 -15.1224 847.835 -15.2786 848.278C -15.4347 848.721 -15.5202 849.133 -15.5352 849.515C -15.5501 849.897 -15.4835 850.249 -15.3352 850.573C -15.187 850.897 -14.9524 851.184 -14.6313 851.433C -14.3102 851.683 -13.9028 851.873 -13.409 852.003C -12.9152 852.133 -12.4036 852.183 -11.8743 852.152C -11.345 852.121 -10.8454 852.046 -10.3757 851.928C -9.90588 851.81 -9.49844 851.689 -9.15333 851.565C -8.80822 851.442 -8.5454 851.343 -8.36487 851.27L -8.09407 851.161"/>
<path style="stroke:#000000; stroke-width:0.850394; stroke-linejoin:round; stroke-linecap:round; fill:none" d="M -6.93943 851.413C -7.13962 851.216 -7.41419 851.094 -7.71697 851.094C -7.84937 851.094 -7.97638 851.118 -8.09414 851.16"/>
<path style="stroke:#000000; stroke-width:0.850394; stroke-linejoin:round; stroke-linecap:round; fill:none" d="M -6.93929 851.413C -6.76934 851.803 -6.52071 852.177 -4.96417 853.583C -3.66504 853.47 -2.70609 853.33 2.82642 851.428C 4.74468 850.216 4.74468 850.216 5.61747 849.628"/>
<path style="stroke:#000000; stroke-width:0.850394; stroke-linejoin:round; stroke-linecap:round; fill:none" d="M 6.3987 849.414C 6.35616 849.409 6.31285 849.406 6.26893 849.406C 6.0238 849.406 5.79787 849.489 5.61753 849.628"/>
<path style="stroke:#000000; stroke-width:0.850394; stroke-linejoin:round; stroke-linecap:round; fill:none" d="M 6.39871 849.414L 6.51114 849.426C 6.58609 849.434 6.69492 849.444 6.83763 849.455C 6.98034 849.465 7.14795 849.472 7.34045 849.473C 7.53295 849.474 7.73561 849.461 7.94844 849.432C 8.16126 849.403 8.36245 849.344 8.55199 849.255C 8.74154 849.165 8.89172 849.049 9.00254 848.905C 9.11337 848.761 9.18619 848.591 9.221 848.395C 9.25582 848.199 9.259 847.981 9.23057 847.743C 9.20214 847.504 9.15659 847.255 9.09395 846.995C 9.0313 846.735 8.96989 846.479 8.90971 846.225C 8.84954 845.972 8.81108 845.757 8.79433 845.581C 8.77758 845.405 8.77832 845.263 8.79655 845.156C 8.81479 845.048 8.83769 844.965 8.86528 844.906C 8.89287 844.846 8.91548 844.804 8.93314 844.777L 8.95961 844.737"/>
<path style="stroke:#000000; stroke-width:0.850394; stroke-linejoin:round; stroke-linecap:round; fill:none" d="M 8.95961 844.737L 8.99896 844.678C 9.02519 844.639 9.06445 844.58 9.11674 844.502C 9.16903 844.423 9.23414 844.325 9.31206 844.206C 9.38998 844.088 9.48036 843.949 9.5832 843.79C 9.68605 843.631 9.80081 843.45 9.9275 843.249C 10.0542 843.047 10.1799 842.845 10.3045 842.641C 10.4292 842.437 10.5527 842.232 10.6752 842.025C 10.7976 841.819 10.9189 841.61 11.0391 841.401C 11.1593 841.191 11.2783 840.981 11.3963 840.768C 11.5143 840.556 11.6312 840.343 11.7472 840.128C 11.8631 839.913 11.9667 839.719 12.0579 839.545C 12.1492 839.372 12.2287 839.219 12.2963 839.088C 12.364 838.957 12.4202 838.847 12.465 838.759C 12.5097 838.672 12.5433 838.606 12.5656 838.562L 12.599 838.495"/>
<path style="stroke:#000000; stroke-width:0.850394; stroke-linejoin:round; stroke-linecap:round; fill:none" d="M 29.6938 832.323L 29.7331 832.355C 29.7594 832.376 29.7963 832.411 29.8439 832.459C 29.8915 832.507 29.9438 832.576 30.0008 832.664C 30.0578 832.753 30.1097 832.873 30.1565 833.024C 30.2033 833.175 30.2314 833.373 30.2407 833.617C 30.25 833.861 30.2348 834.133 30.1952 834.433C 30.1555 834.732 30.0924 835.058 30.0058 835.409C 29.9193 835.761 29.8123 836.135 29.6847 836.531C 29.5572 836.927 29.4139 837.34 29.2548 837.769C 29.0957 838.198 28.9264 838.636 28.7469 839.084C 28.5675 839.532 28.3837 839.981 28.1955 840.433C 28.0074 840.885 27.8203 841.332 27.6342 841.775C 27.4482 842.218 27.2674 842.65 27.0919 843.073C 26.9164 843.496 26.7487 843.906 26.5887 844.304C 26.4287 844.701 26.2777 845.084 26.1358 845.453C 25.9938 845.821 25.8737 846.141 25.7753 846.413C 25.6769 846.684 25.595 846.915 25.5298 847.105C 25.4645 847.296 25.412 847.451 25.3723 847.573C 25.3325 847.694 25.3032 847.784 25.2843 847.843L 25.2559 847.932"/>
<path style="stroke:#000000; stroke-width:0.850394; stroke-linejoin:round; stroke-linecap:round; fill:none" d="M 25.2556 847.931C 25.2327 848.064 25.2208 848.2 25.2208 848.338C 25.2208 849.65 26.2859 850.716 27.5981 850.716C 28.8103 850.716 29.8116 849.807 29.9572 848.634"/>
<path style="stroke:#000000; stroke-width:0.850394; stroke-linejoin:round; stroke-linecap:round; fill:none" d="M 29.957 848.634L 29.9321 848.582C 29.9156 848.548 29.8935 848.494 29.8658 848.421C 29.8382 848.347 29.8119 848.247 29.787 848.12C 29.762 847.994 29.7496 847.831 29.7497 847.63C 29.7497 847.43 29.7777 847.178 29.8336 846.873C 29.8894 846.569 29.9723 846.237 30.0823 845.879C 30.1922 845.521 30.3264 845.136 30.4849 844.726C 30.6434 844.316 30.8203 843.882 31.0157 843.425C 31.211 842.969 31.4158 842.494 31.6302 842C 31.8446 841.506 32.0583 840.999 32.2713 840.479C 32.4843 839.958 32.6862 839.431 32.877 838.895C 33.0678 838.36 33.238 837.822 33.3878 837.282C 33.5376 836.741 33.6599 836.203 33.7549 835.666C 33.8498 835.128 33.9139 834.595 33.9469 834.066C 33.98 833.536 33.9807 833.012 33.9489 832.494C 33.9172 831.975 33.8627 831.512 33.7854 831.107C 33.7081 830.701 33.626 830.348 33.5392 830.049C 33.4524 829.75 33.3737 829.502 33.3031 829.305C 33.2325 829.108 33.178 828.961 33.1395 828.863L 33.0818 828.716"/>
<path style="stroke:#000000; stroke-width:0.850394; stroke-linejoin:round; stroke-linecap:round; fill:none" d="M 33.0822 828.716C 32.7848 827.915 32.0134 827.344 31.1096 827.344C 30.9557 827.344 30.8057 827.36 30.6612 827.392"/>
<path style="stroke:#000000; stroke-width:0.850394; stroke-linejoin:round; stroke-linecap:round; fill:none" d="M 30.6613 827.392L 30.4725 827.422C 30.3466 827.443 30.1586 827.473 29.9084 827.514C 29.6583 827.554 29.348 827.605 28.9777 827.667C 28.6073 827.728 28.1802 827.8 27.6962 827.882C 27.2123 827.965 26.7289 828.049 26.2462 828.134C 25.7635 828.22 25.3442 828.295 24.9882 828.36C 24.6322 828.426 24.3357 828.48 24.0988 828.524C 23.8618 828.568 23.6817 828.602 23.5583 828.625C 23.435 828.648 23.3673 828.661 23.3552 828.663L 23.337 828.667"/>
<path style="stroke:#000000; stroke-width:0.850394; stroke-linejoin:round; stroke-linecap:round; fill:none" d="M 23.337 828.667L 23.3695 828.539C 23.3912 828.454 23.4478 828.233 23.5391 827.877C 23.6305 827.522 23.7589 827.032 23.9244 826.409C 24.0898 825.786 24.2969 825.034 24.5456 824.151C 24.7942 823.268 25.091 822.26 25.4359 821.128C 25.7808 819.996 26.1669 818.785 26.5941 817.495C 27.0213 816.205 27.4159 815.052 27.7779 814.036C 28.1399 813.02 28.462 812.135 28.7442 811.381C 29.0263 810.628 29.2638 810.002 29.4566 809.503C 29.6493 809.005 29.7945 808.631 29.892 808.383L 30.0384 808.01"/>
<path style="stroke:#000000; stroke-width:0.850394; stroke-linejoin:round; stroke-linecap:round; fill:none" d="M 30.0384 808.01C 30.2488 807.651 30.3694 807.233 30.3694 806.787C 30.3694 805.448 29.2823 804.36 27.9431 804.36C 26.6039 804.36 25.5169 805.448 25.5169 806.787C 25.5169 806.788 25.5169 806.789 25.5169 806.79"/>
<path style="stroke:#000000; stroke-width:0.850394; stroke-linejoin:round; stroke-linecap:round; fill:none" d="M 25.5169 806.79L 25.4065 807.291C 25.333 807.625 25.2226 808.123 25.0753 808.785C 24.9281 809.448 24.7438 810.267 24.5226 811.244C 24.3014 812.221 24.0429 813.343 23.7472 814.612C 23.4515 815.88 23.1207 817.267 22.7546 818.772C 22.3885 820.277 22.059 821.604 21.7661 822.753C 21.4731 823.901 21.217 824.888 20.9978 825.714C 20.7787 826.539 20.5967 827.217 20.4519 827.747C 20.3071 828.277 20.1997 828.669 20.1297 828.921L 20.0247 829.301"/>
<path style="stroke:#000000; stroke-width:0.850394; stroke-linejoin:round; stroke-linecap:round; fill:none" d="M 20.0247 829.301L 19.8986 829.325C 19.8145 829.341 19.68 829.366 19.4952 829.401C 19.3103 829.437 19.0773 829.48 18.7961 829.533C 18.515 829.585 18.1891 829.644 17.8187 829.71C 17.4482 829.775 17.084 829.836 16.7263 829.891C 16.3686 829.947 16.0529 829.993 15.7794 830.028C 15.5058 830.064 15.2794 830.092 15.1002 830.112C 14.921 830.133 14.787 830.147 14.6982 830.157L 14.565 830.17"/>
<path style="stroke:#000000; stroke-width:0.850394; stroke-linejoin:round; stroke-linecap:round; fill:none" d="M 14.0943 829.984C 14.1948 830.1 14.3431 830.173 14.5085 830.173C 14.5276 830.173 14.5464 830.172 14.565 830.171"/>
<path style="stroke:#000000; stroke-width:0.850394; stroke-linejoin:round; stroke-linecap:round; fill:none" d="M 14.0938 829.984C 13.5289 829.333 12.6953 828.921 11.766 828.921C 10.0659 828.921 8.68598 830.3 8.68598 832C 8.68598 833.701 10.0659 835.081 11.766 835.081C 11.9104 835.081 12.0525 835.071 12.1917 835.051"/>
<path style="stroke:#000000; stroke-width:0.850394; stroke-linejoin:round; stroke-linecap:round; fill:none" d="M 12.1917 835.051L 12.3447 835.03C 12.4468 835.015 12.6001 834.992 12.8047 834.959C 13.0093 834.926 13.2659 834.878 13.5744 834.816C 13.8829 834.754 14.2448 834.669 14.66 834.562C 15.0752 834.455 15.5061 834.335 15.9525 834.201C 16.399 834.067 16.7961 833.947 17.1438 833.84C 17.4914 833.734 17.787 833.644 18.0305 833.572C 18.2739 833.5 18.4631 833.444 18.5981 833.405C 18.733 833.367 18.8127 833.344 18.8371 833.337L 18.8736 833.326"/>
<path style="stroke:#000000; stroke-width:0.850394; stroke-linejoin:round; stroke-linecap:round; fill:none" d="M 18.8736 833.326L 18.8687 833.343C 18.8655 833.354 18.8246 833.492 18.7461 833.758C 18.6676 834.023 18.5513 834.412 18.3974 834.924C 18.2435 835.437 18.0516 836.062 17.8218 836.802C 17.5921 837.542 17.3241 838.381 17.0179 839.319C 16.7117 840.258 16.4065 841.165 16.1025 842.04C 15.7984 842.916 15.5321 843.668 15.3034 844.297C 15.0748 844.926 14.8842 845.443 14.7315 845.85C 14.5788 846.257 14.4642 846.561 14.3878 846.761L 14.2732 847.062"/>
<path style="stroke:#000000; stroke-width:0.850394; stroke-linejoin:round; stroke-linecap:round; fill:none" d="M 14.2731 847.062C 14.0579 847.452 13.9354 847.9 13.9354 848.376C 13.9354 849.881 15.1564 851.102 16.6608 851.102C 18.1433 851.102 19.3506 849.916 19.3855 848.442"/>
<path style="stroke:#000000; stroke-width:0.850394; stroke-linejoin:round; stroke-linecap:round; fill:none" d="M 19.3855 848.442L 19.4526 848.006C 19.4973 847.716 19.5655 847.281 19.6572 846.701C 19.7489 846.122 19.8669 845.401 20.0113 844.537C 20.1558 843.674 20.3251 842.706 20.5193 841.634C 20.7135 840.561 20.9164 839.496 21.1282 838.438C 21.3399 837.38 21.5287 836.466 21.6944 835.697C 21.8601 834.928 21.9981 834.3 22.1082 833.813C 22.2183 833.326 22.2976 832.978 22.346 832.768L 22.4187 832.453"/>
<path style="stroke:#000000; stroke-width:0.850394; stroke-linejoin:round; stroke-linecap:round; fill:none" d="M 22.4187 832.453L 22.5398 832.429C 22.6206 832.412 22.7592 832.385 22.9559 832.347C 23.1525 832.309 23.4073 832.263 23.7203 832.208C 24.0333 832.154 24.4036 832.095 24.8312 832.032C 25.2589 831.969 25.6825 831.913 26.1021 831.864C 26.5217 831.816 26.8971 831.776 27.2285 831.744C 27.5598 831.712 27.8337 831.687 28.0501 831.669C 28.2665 831.651 28.4283 831.638 28.5353 831.63L 28.696 831.618"/>
<path style="stroke:#000000; stroke-width:0.850394; stroke-linejoin:round; stroke-linecap:round; fill:none" d="M 29.694 832.323C 29.5838 831.915 29.2112 831.615 28.7689 831.615C 28.7444 831.615 28.7201 831.616 28.696 831.618"/>
<path style="stroke:#000000; stroke-width:0.850394; stroke-linejoin:round; stroke-linecap:round; fill:none" d="M 35.2146 815.798C 34.6236 816.217 34.2376 816.906 34.2376 817.685C 34.2376 818.961 35.2731 819.996 36.5489 819.996C 37.0554 819.996 37.524 819.833 37.905 819.557"/>
<path style="stroke:#000000; stroke-width:0.850394; stroke-linejoin:round; stroke-linecap:round; fill:none" d="M 37.9051 819.557L 38.2553 819.328C 38.4888 819.176 38.8383 818.948 39.3037 818.644C 39.7691 818.341 40.3486 817.962 41.0422 817.51C 41.7357 817.057 42.5401 816.532 43.4554 815.934C 44.3707 815.336 45.3921 814.669 46.5194 813.932C 47.6468 813.195 48.765 812.463 49.8741 811.738C 50.9831 811.012 52.0822 810.292 53.1714 809.579C 54.2605 808.865 55.3393 808.158 56.4076 807.457C 57.4759 806.756 58.534 806.062 59.5821 805.373C 60.6301 804.685 61.6688 804.003 62.6981 803.326C 63.7274 802.649 64.6468 802.044 65.4564 801.511C 66.266 800.978 66.9707 800.514 67.5706 800.119C 68.1705 799.723 68.6689 799.395 69.0656 799.133C 69.4624 798.872 69.7595 798.676 69.9571 798.546L 70.2535 798.35"/>
<path style="stroke:#000000; stroke-width:0.850394; stroke-linejoin:round; stroke-linecap:round; fill:none" d="M 70.2535 798.35C 70.4391 798.237 70.5632 798.033 70.5632 797.801C 70.5632 797.446 70.2755 797.159 69.9211 797.159C 69.8751 797.159 69.8302 797.163 69.7869 797.173"/>
<path style="stroke:#000000; stroke-width:0.850394; stroke-linejoin:round; stroke-linecap:round; fill:none" d="M 69.787 797.173L 69.4948 797.368C 69.3 797.499 69.0062 797.694 68.6135 797.954C 68.2208 798.214 67.7251 798.539 67.1265 798.927C 66.528 799.316 65.82 799.768 65.0027 800.283C 64.1853 800.798 63.2487 801.374 62.1928 802.012C 61.1369 802.649 60.0624 803.284 58.9693 803.915C 57.8763 804.546 56.7632 805.174 55.6302 805.798C 54.4972 806.422 53.3436 807.043 52.1694 807.66C 50.9953 808.277 49.8016 808.89 48.5884 809.501C 47.3752 810.111 46.1441 810.718 44.8949 811.322C 43.6458 811.926 42.5084 812.467 41.4828 812.946C 40.4572 813.425 39.5529 813.842 38.7699 814.199C 37.9869 814.555 37.3313 814.852 36.8032 815.089C 36.2752 815.325 35.8784 815.503 35.6128 815.621L 35.2145 815.798"/>
<path style="stroke:#000000; stroke-width:0.850394; stroke-linejoin:round; stroke-linecap:round; fill:none" d="M 148.479 832.29L 148.477 832.25C 148.475 832.223 148.471 832.152 148.466 832.036C 148.461 831.921 148.464 831.759 148.475 831.549C 148.487 831.34 148.527 831.081 148.595 830.771C 148.663 830.46 148.786 830.099 148.965 829.685C 149.143 829.272 149.387 828.831 149.696 828.363C 150.005 827.894 150.347 827.444 150.723 827.014C 151.098 826.584 151.487 826.186 151.889 825.82C 152.291 825.454 152.685 825.133 153.072 824.855C 153.459 824.578 153.82 824.352 154.155 824.179C 154.49 824.006 154.785 823.889 155.039 823.827C 155.294 823.764 155.501 823.754 155.661 823.796C 155.82 823.838 155.93 823.923 155.992 824.052C 156.053 824.181 156.068 824.342 156.037 824.536C 156.006 824.731 155.935 824.947 155.824 825.185C 155.713 825.423 155.57 825.674 155.395 825.938C 155.221 826.202 155.023 826.471 154.803 826.747C 154.584 827.023 154.35 827.301 154.102 827.579C 153.855 827.857 153.6 828.132 153.34 828.406C 153.079 828.679 152.816 828.948 152.551 829.213C 152.287 829.478 152.021 829.738 151.753 829.994C 151.486 830.25 151.219 830.499 150.953 830.74C 150.687 830.982 150.444 831.197 150.224 831.385C 150.004 831.572 149.809 831.735 149.64 831.872C 149.47 832.01 149.328 832.123 149.214 832.213C 149.1 832.302 149.016 832.367 148.962 832.409L 148.881 832.471"/>
<path style="stroke:#000000; stroke-width:0.850394; stroke-linejoin:round; stroke-linecap:round; fill:none" d="M 148.479 832.29C 148.486 832.38 148.486 832.38 148.881 832.471"/>
<path style="stroke:#000000; stroke-width:0.850394; stroke-linejoin:round; stroke-linecap:round; fill:none" d="M 77.9746 822.559L 78.0165 822.514C 78.0445 822.484 78.1893 822.33 78.4509 822.05C 78.7124 821.771 79.0985 821.366 79.6091 820.835C 80.1196 820.304 80.7716 819.647 81.5649 818.863C 82.3583 818.08 83.3171 817.176 84.4413 816.152C 85.5656 815.128 86.7174 814.137 87.8968 813.179C 89.0762 812.221 90.1316 811.397 91.0629 810.708C 91.9942 810.019 92.7806 809.453 93.4221 809.008C 94.0635 808.563 94.5471 808.231 94.873 808.012L 95.3618 807.684"/>
<path style="stroke:#000000; stroke-width:0.850394; stroke-linejoin:round; stroke-linecap:round; fill:none" d="M 95.3618 807.684L 95.7027 807.455C 95.93 807.303 96.2645 807.082 96.7064 806.792C 97.1483 806.503 97.6816 806.164 98.3064 805.777C 98.9312 805.39 99.6214 804.986 100.377 804.565C 101.133 804.144 101.914 803.753 102.72 803.392C 103.527 803.03 104.258 802.754 104.914 802.563C 105.57 802.372 106.143 802.268 106.634 802.25C 107.125 802.231 107.525 802.297 107.835 802.447C 108.145 802.597 108.359 802.824 108.475 803.128C 108.591 803.431 108.605 803.799 108.517 804.232C 108.429 804.664 108.239 805.148 107.945 805.681C 107.651 806.215 107.258 806.784 106.766 807.389C 106.274 807.995 105.694 808.623 105.027 809.274C 104.359 809.926 103.621 810.589 102.812 811.264C 102.002 811.939 101.142 812.615 100.232 813.293C 99.3208 813.971 98.3806 814.64 97.4111 815.301C 96.4417 815.961 95.4636 816.602 94.477 817.225C 93.4903 817.847 92.5133 818.439 91.546 819.001C 90.5787 819.563 89.6342 820.082 88.7127 820.558C 87.7912 821.035 86.9015 821.455 86.0436 821.819C 85.1857 822.183 84.3661 822.478 83.5846 822.706C 82.8031 822.933 82.105 823.077 81.4903 823.14C 80.8756 823.202 80.3593 823.208 79.9414 823.158C 79.5236 823.107 79.1832 823.039 78.9202 822.953C 78.6572 822.868 78.4546 822.791 78.3123 822.724C 78.1701 822.657 78.0782 822.613 78.0368 822.591L 77.9746 822.559"/>
<path style="stroke:#000000; stroke-width:0.850394; stroke-linejoin:round; stroke-linecap:round; fill:none" d="M 148.336 837.931L 148.403 837.975C 148.448 838.005 148.494 838.034 148.54 838.063C 148.586 838.093 148.632 838.122 148.679 838.151C 148.726 838.179 148.774 838.208 148.822 838.237C 148.87 838.265 148.919 838.294 148.968 838.322L 149.042 838.364"/>
<path style="stroke:#000000; stroke-width:0.850394; stroke-linejoin:round; stroke-linecap:round; fill:none" d="M 149.042 838.364L 149.449 838.598C 149.721 838.755 150.13 838.953 150.678 839.193C 151.226 839.434 151.917 839.627 152.753 839.773C 153.589 839.92 154.576 839.905 155.714 839.729C 156.853 839.554 158.147 839.151 159.597 838.521C 161.047 837.891 162.359 837.223 163.532 836.517C 164.706 835.811 165.735 835.156 166.62 834.55C 167.505 833.945 168.243 833.424 168.835 832.989C 169.427 832.554 169.871 832.223 170.168 831.998L 170.613 831.66"/>
<path style="stroke:#000000; stroke-width:0.850394; stroke-linejoin:round; stroke-linecap:round; fill:none" d="M 170.613 831.66C 170.746 831.56 170.833 831.4 170.833 831.22C 170.833 830.918 170.588 830.672 170.285 830.672C 170.162 830.672 170.049 830.713 169.957 830.781"/>
<path style="stroke:#000000; stroke-width:0.850394; stroke-linejoin:round; stroke-linecap:round; fill:none" d="M 169.957 830.781L 169.578 831.029C 169.326 831.194 168.947 831.437 168.442 831.756C 167.938 832.076 167.309 832.459 166.555 832.905C 165.802 833.352 164.926 833.838 163.928 834.363C 162.93 834.888 161.815 835.392 160.584 835.875C 159.353 836.357 158.256 836.677 157.292 836.836C 156.329 836.995 155.495 837.038 154.791 836.965C 154.087 836.892 153.505 836.782 153.045 836.634C 152.585 836.486 152.241 836.363 152.013 836.265L 151.672 836.117"/>
<path style="stroke:#000000; stroke-width:0.850394; stroke-linejoin:round; stroke-linecap:round; fill:none" d="M 151.672 836.117L 151.613 836.091C 151.573 836.074 151.534 836.057 151.495 836.039C 151.457 836.022 151.418 836.004 151.381 835.986C 151.343 835.968 151.305 835.95 151.269 835.931C 151.232 835.913 151.195 835.894 151.159 835.875L 151.105 835.847"/>
<path style="stroke:#000000; stroke-width:0.850394; stroke-linejoin:round; stroke-linecap:round; fill:none" d="M 151.008 835.028C 150.959 835.071 150.919 835.123 150.843 835.303C 150.834 835.433 150.842 835.499 150.915 835.68C 150.915 835.68 150.915 835.68 151.105 835.847"/>
<path style="stroke:#000000; stroke-width:0.850394; stroke-linejoin:round; stroke-linecap:round; fill:none" d="M 151.008 835.028L 151.219 834.843C 151.359 834.72 151.569 834.534 151.846 834.287C 152.124 834.039 152.464 833.73 152.867 833.36C 153.27 832.989 153.724 832.559 154.23 832.068C 154.736 831.578 155.271 831.031 155.834 830.429C 156.396 829.826 156.913 829.233 157.385 828.649C 157.856 828.064 158.269 827.494 158.625 826.939C 158.981 826.383 159.271 825.848 159.494 825.333C 159.716 824.818 159.868 824.329 159.949 823.867C 160.03 823.404 160.042 822.975 159.986 822.578C 159.931 822.181 159.813 821.823 159.633 821.504C 159.454 821.186 159.222 820.913 158.937 820.687C 158.652 820.46 158.323 820.286 157.951 820.165C 157.579 820.045 157.17 819.983 156.725 819.982C 156.281 819.981 155.807 820.045 155.304 820.174C 154.801 820.303 154.277 820.5 153.731 820.765C 153.185 821.03 152.628 821.36 152.06 821.756C 151.492 822.152 150.926 822.605 150.362 823.115C 149.798 823.626 149.254 824.178 148.729 824.772C 148.205 825.366 147.718 825.984 147.27 826.626C 146.821 827.268 146.428 827.914 146.091 828.565C 145.753 829.216 145.489 829.845 145.298 830.451C 145.106 831.058 144.993 831.583 144.959 832.028C 144.924 832.472 144.927 832.847 144.966 833.152C 145.006 833.457 145.052 833.703 145.104 833.891C 145.157 834.078 145.198 834.214 145.227 834.298L 145.271 834.424"/>
<path style="stroke:#000000; stroke-width:0.850394; stroke-linejoin:round; stroke-linecap:round; fill:none" d="M 145.042 835.027C 145.099 834.995 145.15 834.953 145.261 834.793C 145.301 834.628 145.301 834.628 145.271 834.424"/>
<path style="stroke:#000000; stroke-width:0.850394; stroke-linejoin:round; stroke-linecap:round; fill:none" d="M 145.042 835.027L 145.031 835.033C 145.024 835.037 144.951 835.078 144.812 835.154C 144.673 835.231 144.467 835.341 144.195 835.482C 143.923 835.623 143.585 835.784 143.181 835.964C 142.777 836.145 142.311 836.317 141.785 836.48C 141.259 836.644 140.695 836.745 140.095 836.783C 139.494 836.821 138.934 836.763 138.416 836.609C 137.897 836.455 137.436 836.206 137.033 835.862C 136.629 835.518 136.3 835.09 136.044 834.577C 135.789 834.064 135.63 833.546 135.567 833.022C 135.505 832.498 135.495 832.013 135.539 831.566C 135.582 831.119 135.639 830.735 135.709 830.415C 135.78 830.094 135.838 829.851 135.883 829.685L 135.952 829.437"/>
<path style="stroke:#000000; stroke-width:0.850394; stroke-linejoin:round; stroke-linecap:round; fill:none" d="M 135.952 829.437C 135.984 829.322 136 829.201 136 829.076C 136 828.326 135.391 827.717 134.641 827.717C 134.097 827.717 133.628 828.037 133.41 828.498"/>
<path style="stroke:#000000; stroke-width:0.850394; stroke-linejoin:round; stroke-linecap:round; fill:none" d="M 133.411 828.499L 133.326 828.67C 133.27 828.784 133.185 828.953 133.071 829.176C 132.957 829.399 132.813 829.672 132.639 829.992C 132.466 830.313 132.26 830.673 132.022 831.072C 131.784 831.47 131.511 831.894 131.204 832.342C 130.896 832.791 130.585 833.212 130.269 833.607C 129.953 834.002 129.634 834.368 129.314 834.705C 128.993 835.042 128.673 835.346 128.353 835.618C 128.034 835.89 127.721 836.126 127.414 836.326C 127.106 836.525 126.812 836.684 126.531 836.803C 126.249 836.921 125.989 836.995 125.748 837.023C 125.508 837.051 125.295 837.031 125.11 836.962C 124.925 836.893 124.773 836.772 124.654 836.6C 124.535 836.428 124.452 836.205 124.405 835.929C 124.359 835.654 124.348 835.327 124.375 834.95C 124.402 834.572 124.455 834.193 124.534 833.812C 124.614 833.43 124.7 833.074 124.792 832.745C 124.884 832.415 124.968 832.131 125.043 831.891C 125.119 831.652 125.178 831.471 125.219 831.346L 125.281 831.16"/>
<path style="stroke:#000000; stroke-width:0.850394; stroke-linejoin:round; stroke-linecap:round; fill:none" d="M 125.281 831.16C 125.374 830.945 125.426 830.708 125.426 830.458C 125.426 829.484 124.637 828.693 123.664 828.688"/>
<path style="stroke:#000000; stroke-width:0.850394; stroke-linejoin:round; stroke-linecap:round; fill:none" d="M 123.664 828.688L 123.598 828.682C 123.554 828.678 123.488 828.672 123.4 828.662C 123.312 828.653 123.203 828.639 123.072 828.621C 122.942 828.603 122.791 828.578 122.62 828.545C 122.449 828.512 122.26 828.467 122.051 828.411C 121.843 828.354 121.637 828.289 121.434 828.216C 121.231 828.143 121.031 828.061 120.834 827.97C 120.637 827.878 120.443 827.778 120.252 827.668C 120.062 827.557 119.874 827.438 119.689 827.31C 119.505 827.182 119.323 827.046 119.144 826.901C 118.965 826.756 118.806 826.62 118.667 826.492C 118.527 826.364 118.407 826.249 118.304 826.146C 118.202 826.044 118.118 825.957 118.05 825.886C 117.983 825.815 117.933 825.761 117.899 825.725L 117.849 825.67"/>
<path style="stroke:#000000; stroke-width:0.850394; stroke-linejoin:round; stroke-linecap:round; fill:none" d="M 117.849 825.67C 117.482 825.236 116.934 824.959 116.321 824.959C 115.558 824.959 114.895 825.387 114.558 826.016"/>
<path style="stroke:#000000; stroke-width:0.850394; stroke-linejoin:round; stroke-linecap:round; fill:none" d="M 114.558 826.016L 114.469 826.303C 114.41 826.494 114.317 826.778 114.192 827.152C 114.067 827.527 113.901 827.983 113.694 828.521C 113.487 829.059 113.226 829.661 112.912 830.329C 112.597 830.996 112.211 831.703 111.752 832.449C 111.294 833.194 110.805 833.892 110.286 834.542C 109.767 835.191 109.225 835.789 108.661 836.335C 108.096 836.88 107.526 837.372 106.949 837.808C 106.372 838.245 105.82 838.631 105.293 838.964C 104.766 839.298 104.275 839.584 103.822 839.822C 103.369 840.061 102.994 840.24 102.698 840.361C 102.403 840.483 102.163 840.57 101.979 840.624C 101.795 840.679 101.649 840.716 101.543 840.736C 101.437 840.756 101.359 840.769 101.31 840.775L 101.236 840.784"/>
<path style="stroke:#000000; stroke-width:0.850394; stroke-linejoin:round; stroke-linecap:round; fill:none" d="M 100.352 840.051C 100.365 840.463 100.704 840.793 101.119 840.793C 101.159 840.793 101.198 840.79 101.236 840.784"/>
<path style="stroke:#000000; stroke-width:0.850394; stroke-linejoin:round; stroke-linecap:round; fill:none" d="M 100.352 840.051L 100.349 839.96C 100.347 839.899 100.348 839.811 100.352 839.694C 100.356 839.577 100.372 839.44 100.4 839.28C 100.429 839.121 100.484 838.949 100.566 838.765C 100.648 838.581 100.771 838.39 100.934 838.192C 101.097 837.995 101.282 837.804 101.49 837.62C 101.698 837.436 101.92 837.25 102.157 837.062C 102.393 836.875 102.636 836.678 102.887 836.472C 103.137 836.267 103.388 836.049 103.641 835.82C 103.894 835.591 104.143 835.349 104.389 835.094C 104.635 834.84 104.851 834.601 105.037 834.378C 105.223 834.155 105.382 833.955 105.513 833.778C 105.645 833.601 105.753 833.451 105.837 833.329C 105.921 833.206 105.984 833.114 106.025 833.051L 106.087 832.958"/>
<path style="stroke:#000000; stroke-width:0.850394; stroke-linejoin:round; stroke-linecap:round; fill:none" d="M 106.087 832.958C 106.283 832.661 106.397 832.305 106.397 831.923C 106.397 830.886 105.556 830.045 104.519 830.045C 103.906 830.045 103.362 830.338 103.019 830.792"/>
<path style="stroke:#000000; stroke-width:0.850394; stroke-linejoin:round; stroke-linecap:round; fill:none" d="M 103.019 830.792L 102.98 830.843C 102.954 830.877 102.91 830.934 102.847 831.012C 102.784 831.091 102.688 831.204 102.56 831.351C 102.432 831.498 102.248 831.699 102.01 831.952C 101.772 832.206 101.452 832.531 101.051 832.929C 100.649 833.326 100.201 833.752 99.7076 834.207C 99.2142 834.662 98.6851 835.131 98.1203 835.614C 97.5555 836.097 96.9692 836.577 96.3613 837.054C 95.7533 837.531 95.1431 837.985 94.5307 838.416C 93.9183 838.848 93.3269 839.237 92.7564 839.584C 92.1858 839.93 91.6596 840.216 91.1776 840.442C 90.6956 840.668 90.2782 840.82 89.9253 840.9C 89.5724 840.979 89.2981 840.979 89.1024 840.9C 88.9067 840.822 88.7935 840.67 88.7627 840.444C 88.732 840.218 88.7752 839.937 88.8925 839.599C 89.0097 839.261 89.1844 838.892 89.4165 838.49C 89.6487 838.089 89.917 837.681 90.2216 837.266C 90.5261 836.852 90.8441 836.453 91.1757 836.071C 91.5072 835.688 91.8319 835.335 92.1497 835.01C 92.4676 834.685 92.7621 834.393 93.0332 834.134C 93.3044 833.875 93.5199 833.666 93.6795 833.509C 93.8392 833.351 93.9592 833.226 94.0396 833.133C 94.1201 833.04 94.1779 832.968 94.2133 832.916C 94.2487 832.865 94.2729 832.827 94.286 832.804L 94.3057 832.77"/>
<path style="stroke:#000000; stroke-width:0.850394; stroke-linejoin:round; stroke-linecap:round; fill:none" d="M 94.3058 832.77C 94.467 832.486 94.5591 832.158 94.5591 831.809C 94.5591 830.735 93.6873 829.863 92.6131 829.863C 92.3413 829.863 92.0824 829.919 91.8473 830.02"/>
<path style="stroke:#000000; stroke-width:0.850394; stroke-linejoin:round; stroke-linecap:round; fill:none" d="M 91.8475 830.02L 91.562 830.142C 91.3718 830.224 91.0819 830.352 90.6925 830.528C 90.303 830.703 89.8029 830.942 89.1922 831.243C 88.5814 831.544 87.847 831.93 86.9888 832.4C 86.1307 832.869 85.1544 833.432 84.0602 834.087C 82.9659 834.743 81.8924 835.404 80.8397 836.071C 79.7869 836.738 78.7838 837.383 77.8302 838.005C 76.8767 838.627 75.9919 839.203 75.1758 839.734C 74.3597 840.265 73.6091 840.74 72.9241 841.16C 72.2392 841.58 71.5963 841.947 70.9954 842.262C 70.3945 842.576 69.8636 842.823 69.4027 843.003C 68.9417 843.182 68.5319 843.323 68.1733 843.425C 67.8147 843.527 67.5113 843.605 67.2631 843.659C 67.015 843.713 66.8277 843.752 66.7014 843.776L 66.5119 843.812"/>
<path style="stroke:#000000; stroke-width:0.850394; stroke-linejoin:round; stroke-linecap:round; fill:none" d="M 64.3938 840.628C 64.1771 840.956 64.0508 841.349 64.0508 841.771C 64.0508 842.917 64.9814 843.848 66.1277 843.848C 66.259 843.848 66.3874 843.836 66.5119 843.812"/>
<path style="stroke:#000000; stroke-width:0.850394; stroke-linejoin:round; stroke-linecap:round; fill:none" d="M 64.3937 840.628L 64.5139 840.424C 64.594 840.289 64.72 840.078 64.8919 839.793C 65.0638 839.508 65.2962 839.129 65.5892 838.658C 65.8821 838.187 66.2594 837.596 66.7211 836.885C 67.1828 836.173 67.7647 835.311 68.4669 834.299C 69.169 833.286 69.8648 832.32 70.5542 831.399C 71.2437 830.478 71.8838 829.65 72.4748 828.914C 73.0657 828.178 73.5779 827.554 74.0114 827.04C 74.4448 826.527 74.7807 826.133 75.019 825.858C 75.2572 825.583 75.3898 825.43 75.4165 825.399L 75.4567 825.353"/>
<path style="stroke:#000000; stroke-width:0.850394; stroke-linejoin:round; stroke-linecap:round; fill:none" d="M 75.4567 825.353L 75.5504 825.426C 75.6129 825.474 75.7328 825.56 75.91 825.684C 76.0872 825.808 76.3313 825.951 76.6423 826.114C 76.9532 826.277 77.3468 826.428 77.823 826.568C 78.2992 826.707 78.881 826.794 79.5682 826.828C 80.2555 826.863 81.0277 826.814 81.885 826.683C 82.7422 826.552 83.6575 826.34 84.6308 826.045C 85.6041 825.751 86.6376 825.376 87.7314 824.922C 88.8252 824.469 89.9736 823.938 91.1766 823.329C 92.3796 822.721 93.62 822.041 94.8979 821.288C 96.1757 820.535 97.4654 819.717 98.7669 818.834C 100.068 817.951 101.35 817.014 102.612 816.024C 103.873 815.034 105.079 814.006 106.23 812.941C 107.38 811.877 108.438 810.798 109.404 809.704C 110.369 808.61 111.207 807.532 111.916 806.469C 112.625 805.406 113.173 804.398 113.56 803.445C 113.947 802.491 114.148 801.635 114.164 800.876C 114.18 800.117 113.999 799.492 113.621 798.999C 113.243 798.506 112.675 798.169 111.918 797.987C 111.16 797.806 110.247 797.777 109.177 797.902C 108.108 798.026 106.936 798.28 105.661 798.662C 104.387 799.045 103.071 799.523 101.715 800.095C 100.359 800.668 99.1524 801.23 98.0956 801.782C 97.0389 802.334 96.142 802.83 95.4051 803.271C 94.6681 803.711 94.0688 804.083 93.6072 804.385C 93.1455 804.687 92.803 804.915 92.5796 805.068L 92.2445 805.297"/>
<path style="stroke:#000000; stroke-width:0.850394; stroke-linejoin:round; stroke-linecap:round; fill:none" d="M 92.2445 805.297L 91.614 805.73C 91.1937 806.018 90.5743 806.454 89.756 807.038C 88.9376 807.621 87.9481 808.362 86.7874 809.259C 85.6267 810.156 84.4935 811.085 83.3878 812.047C 82.2822 813.008 81.2268 813.974 80.2218 814.943C 79.2168 815.913 78.3951 816.725 77.7567 817.378C 77.1183 818.032 76.6365 818.531 76.3112 818.873C 75.986 819.216 75.8058 819.406 75.7706 819.444L 75.7178 819.499"/>
<path style="stroke:#000000; stroke-width:0.850394; stroke-linejoin:round; stroke-linecap:round; fill:none" d="M 75.7178 819.499L 75.7094 819.462C 75.7038 819.437 75.686 819.351 75.656 819.205C 75.626 819.059 75.6023 818.908 75.5849 818.753C 75.5675 818.598 75.5566 818.438 75.5522 818.274C 75.5478 818.109 75.55 817.941 75.5588 817.768C 75.5676 817.595 75.5801 817.434 75.5964 817.285L 75.6209 817.062"/>
<path style="stroke:#000000; stroke-width:0.850394; stroke-linejoin:round; stroke-linecap:round; fill:none" d="M 75.621 817.062C 75.6282 816.997 75.6319 816.931 75.6319 816.863C 75.6319 815.872 74.8268 815.066 73.835 815.066C 72.8431 815.066 72.038 815.872 72.038 816.863C 72.038 816.903 72.0393 816.941 72.0418 816.98"/>
<path style="stroke:#000000; stroke-width:0.850394; stroke-linejoin:round; stroke-linecap:round; fill:none" d="M 72.0418 816.98L 72.0659 817.35C 72.0819 817.597 72.1109 817.924 72.1527 818.332C 72.1945 818.74 72.2484 819.128 72.3143 819.497C 72.3802 819.866 72.4578 820.216 72.547 820.547C 72.6363 820.877 72.7364 821.189 72.8474 821.483C 72.9584 821.777 73.0395 821.983 73.0906 822.101L 73.1673 822.279"/>
<path style="stroke:#000000; stroke-width:0.850394; stroke-linejoin:round; stroke-linecap:round; fill:none" d="M 73.1673 822.279L 73.0623 822.397C 72.9923 822.476 72.7913 822.702 72.4594 823.077C 72.1274 823.452 71.6777 823.968 71.1103 824.627C 70.5428 825.286 69.8845 826.071 69.1354 826.98C 68.3863 827.89 67.5865 828.889 66.7361 829.977C 65.8857 831.066 65.0534 832.164 64.2395 833.272C 63.4255 834.38 62.7026 835.41 62.0708 836.363C 61.439 837.315 60.9438 838.12 60.5852 838.778C 60.2267 839.435 59.955 839.988 59.7701 840.434C 59.5853 840.881 59.4502 841.243 59.3647 841.522C 59.2792 841.801 59.2198 842.007 59.1865 842.142L 59.1366 842.344"/>
<path style="stroke:#000000; stroke-width:0.850394; stroke-linejoin:round; stroke-linecap:round; fill:none" d="M 59.1357 842.344C 59.0453 842.71 58.9974 843.092 58.9974 843.486C 58.9974 846.11 61.1276 848.241 63.7521 848.241C 63.972 848.241 64.1884 848.226 64.4003 848.197"/>
<path style="stroke:#000000; stroke-width:0.850394; stroke-linejoin:round; stroke-linecap:round; fill:none" d="M 64.4002 848.196L 64.6645 848.16C 64.8407 848.136 65.1032 848.093 65.4519 848.033C 65.8007 847.972 66.231 847.879 66.7431 847.753C 67.2551 847.626 67.8415 847.446 68.5023 847.211C 69.1631 846.976 69.8885 846.669 70.6785 846.29C 71.4685 845.912 72.2407 845.507 72.9951 845.075C 73.7495 844.644 74.4863 844.202 75.2054 843.751C 75.9246 843.299 76.6265 842.851 77.3111 842.407C 77.9957 841.962 78.6643 841.529 79.3168 841.107C 79.9693 840.685 80.6073 840.278 81.2308 839.885C 81.8543 839.493 82.4049 839.152 82.8826 838.864C 83.3603 838.575 83.7727 838.329 84.1199 838.127C 84.4671 837.924 84.7541 837.759 84.9807 837.63C 85.2073 837.501 85.3767 837.405 85.4888 837.342L 85.657 837.248"/>
<path style="stroke:#000000; stroke-width:0.850394; stroke-linejoin:round; stroke-linecap:round; fill:none" d="M 86.1237 837.787C 86.1583 837.731 86.1782 837.664 86.1782 837.593C 86.1782 837.386 86.0102 837.218 85.8033 837.218C 85.7514 837.218 85.7019 837.229 85.657 837.248"/>
<path style="stroke:#000000; stroke-width:0.850394; stroke-linejoin:round; stroke-linecap:round; fill:none" d="M 86.1237 837.787L 86.0643 837.895C 86.0247 837.966 85.9668 838.072 85.8904 838.213C 85.814 838.354 85.7228 838.528 85.6168 838.733C 85.5108 838.939 85.3956 839.173 85.2713 839.435C 85.147 839.697 85.0216 839.983 84.895 840.291C 84.7685 840.599 84.657 840.896 84.5604 841.184C 84.4639 841.471 84.3836 841.747 84.3195 842.012C 84.2554 842.277 84.2094 842.529 84.1815 842.769C 84.1536 843.009 84.1467 843.235 84.1607 843.445C 84.1748 843.656 84.2134 843.85 84.2766 844.027C 84.3397 844.204 84.4303 844.362 84.5484 844.5C 84.6665 844.638 84.8136 844.755 84.9899 844.851C 85.1662 844.947 85.3706 845.021 85.6031 845.073C 85.8357 845.125 86.0925 845.155 86.3737 845.164C 86.6549 845.173 86.9546 845.163 87.2729 845.133C 87.5912 845.102 87.9212 845.055 88.2629 844.99C 88.6045 844.925 88.9506 844.845 89.3011 844.751C 89.6516 844.657 89.9998 844.552 90.3455 844.435C 90.6913 844.319 91.0291 844.193 91.3589 844.06C 91.6886 843.927 92.006 843.788 92.3109 843.645C 92.6158 843.502 92.9052 843.357 93.1791 843.212C 93.453 843.067 93.7097 842.925 93.9492 842.787C 94.1886 842.649 94.4108 842.52 94.6157 842.401C 94.8206 842.282 95.0097 842.179 95.1831 842.092C 95.3566 842.005 95.5172 841.942 95.6652 841.902C 95.8131 841.862 95.9521 841.851 96.0821 841.867C 96.2121 841.884 96.3374 841.929 96.4579 842.004C 96.5785 842.079 96.6984 842.177 96.8176 842.299C 96.9368 842.421 97.0592 842.556 97.1846 842.704C 97.3101 842.852 97.4422 843.002 97.5809 843.152C 97.7197 843.302 97.8682 843.441 98.0265 843.57C 98.1848 843.699 98.3556 843.81 98.539 843.902C 98.7225 843.994 98.9207 844.065 99.1338 844.114C 99.3469 844.163 99.5763 844.189 99.8221 844.194C 100.068 844.198 100.331 844.182 100.61 844.145C 100.89 844.107 101.186 844.051 101.498 843.976C 101.81 843.9 102.137 843.807 102.477 843.697C 102.818 843.587 103.17 843.46 103.533 843.316C 103.896 843.173 104.266 843.013 104.644 842.838C 105.021 842.663 105.402 842.473 105.785 842.269C 106.169 842.064 106.551 841.845 106.932 841.611C 107.313 841.378 107.689 841.132 108.059 840.872C 108.43 840.613 108.791 840.341 109.144 840.059C 109.496 839.776 109.837 839.483 110.167 839.18C 110.496 838.877 110.812 838.566 111.114 838.248C 111.416 837.93 111.703 837.606 111.975 837.278C 112.248 836.949 112.505 836.619 112.747 836.287C 112.989 835.954 113.216 835.623 113.43 835.294C 113.643 834.965 113.843 834.642 114.03 834.324C 114.218 834.006 114.395 833.699 114.563 833.402C 114.73 833.105 114.891 832.822 115.044 832.555C 115.198 832.288 115.349 832.04 115.495 831.811C 115.642 831.582 115.789 831.376 115.935 831.194C 116.081 831.011 116.229 830.854 116.38 830.724C 116.53 830.593 116.684 830.489 116.842 830.414C 117 830.338 117.145 830.293 117.279 830.278C 117.412 830.263 117.53 830.263 117.634 830.277C 117.738 830.292 117.826 830.309 117.897 830.331C 117.968 830.352 118.022 830.369 118.058 830.382L 118.112 830.402"/>
<path style="stroke:#000000; stroke-width:0.850394; stroke-linejoin:round; stroke-linecap:round; fill:none" d="M 118.111 830.404C 119.014 830.846 119.967 831.202 120.959 831.461"/>
<path style="stroke:#000000; stroke-width:0.850394; stroke-linejoin:round; stroke-linecap:round; fill:none" d="M 121.458 832.903C 121.576 832.749 121.646 832.556 121.646 832.347C 121.646 831.92 121.355 831.561 120.96 831.458"/>
<path style="stroke:#000000; stroke-width:0.850394; stroke-linejoin:round; stroke-linecap:round; fill:none" d="M 121.458 832.903L 121.418 833.001C 121.39 833.067 121.352 833.165 121.302 833.295C 121.253 833.425 121.198 833.587 121.138 833.78C 121.079 833.973 121.024 834.196 120.973 834.449C 120.923 834.703 120.891 834.983 120.877 835.292C 120.864 835.6 120.875 835.903 120.912 836.201C 120.948 836.5 121.01 836.791 121.096 837.076C 121.182 837.36 121.293 837.635 121.428 837.9C 121.564 838.165 121.722 838.416 121.904 838.652C 122.085 838.888 122.288 839.105 122.512 839.303C 122.736 839.5 122.979 839.673 123.241 839.823C 123.502 839.972 123.779 840.093 124.072 840.185C 124.364 840.278 124.668 840.341 124.984 840.374C 125.299 840.407 125.622 840.411 125.951 840.386C 126.281 840.361 126.612 840.309 126.946 840.23C 127.279 840.151 127.61 840.049 127.938 839.923C 128.266 839.797 128.587 839.652 128.901 839.487C 129.216 839.322 129.52 839.14 129.814 838.942C 130.108 838.744 130.39 838.531 130.66 838.305C 130.929 838.078 131.175 837.851 131.396 837.622C 131.617 837.394 131.805 837.183 131.961 836.99C 132.116 836.797 132.246 836.628 132.348 836.482C 132.451 836.336 132.532 836.218 132.591 836.127C 132.651 836.036 132.69 835.975 132.71 835.943L 132.741 835.895"/>
<path style="stroke:#000000; stroke-width:0.850394; stroke-linejoin:round; stroke-linecap:round; fill:none" d="M 134.026 835.923C 133.898 835.7 133.898 835.7 132.741 835.895"/>
<path style="stroke:#000000; stroke-width:0.850394; stroke-linejoin:round; stroke-linecap:round; fill:none" d="M 134.026 835.923L 134.293 836.391C 134.471 836.702 134.757 837.13 135.152 837.672C 135.546 838.215 136.081 838.736 136.756 839.236C 137.431 839.735 138.224 840.033 139.134 840.129C 140.044 840.226 140.97 840.144 141.912 839.885C 142.854 839.626 143.653 839.354 144.309 839.07C 144.965 838.786 145.48 838.548 145.855 838.357C 146.229 838.167 146.481 838.036 146.611 837.967L 146.804 837.863"/>
<path style="stroke:#000000; stroke-width:0.850394; stroke-linejoin:round; stroke-linecap:round; fill:none" d="M 148.336 837.931C 148.172 837.824 147.989 837.75 147.457 837.677C 147.457 837.677 147.457 837.677 146.804 837.863"/>
<path style="stroke:#000000; stroke-width:0.850394; stroke-linejoin:round; stroke-linecap:round; fill:none" d="M 77.9746 822.559L 78.0165 822.514C 78.0445 822.484 78.1893 822.33 78.4509 822.05C 78.7124 821.771 79.0985 821.366 79.6091 820.835C 80.1196 820.304 80.7716 819.647 81.5649 818.863C 82.3583 818.08 83.3171 817.176 84.4413 816.152C 85.5656 815.128 86.7174 814.137 87.8968 813.179C 89.0762 812.221 90.1316 811.397 91.0629 810.708C 91.9942 810.019 92.7806 809.453 93.4221 809.008C 94.0635 808.563 94.5471 808.231 94.873 808.012L 95.3618 807.684"/>
<path style="stroke:#000000; stroke-width:0.850394; stroke-linejoin:round; stroke-linecap:round; fill:none" d="M 95.3618 807.684L 95.7027 807.455C 95.93 807.303 96.2645 807.082 96.7064 806.792C 97.1483 806.503 97.6816 806.164 98.3064 805.777C 98.9312 805.39 99.6214 804.986 100.377 804.565C 101.133 804.144 101.914 803.753 102.72 803.392C 103.527 803.03 104.258 802.754 104.914 802.563C 105.57 802.372 106.143 802.268 106.634 802.25C 107.125 802.231 107.525 802.297 107.835 802.447C 108.145 802.597 108.359 802.824 108.475 803.128C 108.591 803.431 108.605 803.799 108.517 804.232C 108.429 804.664 108.239 805.148 107.945 805.681C 107.651 806.215 107.258 806.784 106.766 807.389C 106.274 807.995 105.694 808.623 105.027 809.274C 104.359 809.926 103.621 810.589 102.812 811.264C 102.002 811.939 101.142 812.615 100.232 813.293C 99.3208 813.971 98.3806 814.64 97.4111 815.301C 96.4417 815.961 95.4636 816.602 94.477 817.225C 93.4903 817.847 92.5133 818.439 91.546 819.001C 90.5787 819.563 89.6342 820.082 88.7127 820.558C 87.7912 821.035 86.9015 821.455 86.0436 821.819C 85.1857 822.183 84.3661 822.478 83.5846 822.706C 82.8031 822.933 82.105 823.077 81.4903 823.14C 80.8756 823.202 80.3593 823.208 79.9414 823.158C 79.5236 823.107 79.1832 823.039 78.9202 822.953C 78.6572 822.868 78.4546 822.791 78.3123 822.724C 78.1701 822.657 78.0782 822.613 78.0368 822.591L 77.9746 822.559"/>
<path style="stroke:#000000; stroke-width:0.850394; stroke-linejoin:round; stroke-linecap:round; fill:none" d="M 148.479 832.29L 148.477 832.25C 148.475 832.223 148.471 832.152 148.466 832.036C 148.461 831.921 148.464 831.759 148.475 831.549C 148.487 831.34 148.527 831.081 148.595 830.771C 148.663 830.46 148.786 830.099 148.965 829.685C 149.143 829.272 149.387 828.831 149.696 828.363C 150.005 827.894 150.347 827.444 150.723 827.014C 151.098 826.584 151.487 826.186 151.889 825.82C 152.291 825.454 152.685 825.133 153.072 824.855C 153.459 824.578 153.82 824.352 154.155 824.179C 154.49 824.006 154.785 823.889 155.039 823.827C 155.294 823.764 155.501 823.754 155.661 823.796C 155.82 823.838 155.93 823.923 155.992 824.052C 156.053 824.181 156.068 824.342 156.037 824.536C 156.006 824.731 155.935 824.947 155.824 825.185C 155.713 825.423 155.57 825.674 155.395 825.938C 155.221 826.202 155.023 826.471 154.803 826.747C 154.584 827.023 154.35 827.301 154.102 827.579C 153.855 827.857 153.6 828.132 153.34 828.406C 153.079 828.679 152.816 828.948 152.551 829.213C 152.287 829.478 152.021 829.738 151.753 829.994C 151.486 830.25 151.219 830.499 150.953 830.74C 150.687 830.982 150.444 831.197 150.224 831.385C 150.004 831.572 149.809 831.735 149.64 831.872C 149.47 832.01 149.328 832.123 149.214 832.213C 149.1 832.302 149.016 832.367 148.962 832.409L 148.881 832.471"/>
<path style="stroke:#000000; stroke-width:0.850394; stroke-linejoin:round; stroke-linecap:round; fill:none" d="M 148.479 832.29C 148.486 832.38 148.486 832.38 148.881 832.471"/>
<path style="stroke:#000000; stroke-width:0.850394; stroke-linejoin:round; stroke-linecap:round; fill:none" d="M 148.336 837.931L 148.403 837.975C 148.448 838.005 148.494 838.034 148.54 838.063C 148.586 838.093 148.632 838.122 148.679 838.151C 148.726 838.179 148.774 838.208 148.822 838.237C 148.87 838.265 148.919 838.294 148.968 838.322L 149.042 838.364"/>
<path style="stroke:#000000; stroke-width:0.850394; stroke-linejoin:round; stroke-linecap:round; fill:none" d="M 149.042 838.364L 149.449 838.598C 149.721 838.755 150.13 838.953 150.678 839.193C 151.226 839.434 151.917 839.627 152.753 839.773C 153.589 839.92 154.576 839.905 155.714 839.729C 156.853 839.554 158.147 839.151 159.597 838.521C 161.047 837.891 162.359 837.223 163.532 836.517C 164.706 835.811 165.735 835.156 166.62 834.55C 167.505 833.945 168.243 833.424 168.835 832.989C 169.427 832.554 169.871 832.223 170.168 831.998L 170.613 831.66"/>
<path style="stroke:#000000; stroke-width:0.850394; stroke-linejoin:round; stroke-linecap:round; fill:none" d="M 170.613 831.66C 170.746 831.56 170.833 831.4 170.833 831.22C 170.833 830.918 170.588 830.672 170.285 830.672C 170.162 830.672 170.049 830.713 169.957 830.781"/>
<path style="stroke:#000000; stroke-width:0.850394; stroke-linejoin:round; stroke-linecap:round; fill:none" d="M 169.957 830.781L 169.578 831.029C 169.326 831.194 168.947 831.437 168.442 831.756C 167.938 832.076 167.309 832.459 166.555 832.905C 165.802 833.352 164.926 833.838 163.928 834.363C 162.93 834.888 161.815 835.392 160.584 835.875C 159.353 836.357 158.256 836.677 157.292 836.836C 156.329 836.995 155.495 837.038 154.791 836.965C 154.087 836.892 153.505 836.782 153.045 836.634C 152.585 836.486 152.241 836.363 152.013 836.265L 151.672 836.117"/>
<path style="stroke:#000000; stroke-width:0.850394; stroke-linejoin:round; stroke-linecap:round; fill:none" d="M 151.672 836.117L 151.613 836.091C 151.573 836.074 151.534 836.057 151.495 836.039C 151.457 836.022 151.418 836.004 151.381 835.986C 151.343 835.968 151.305 835.95 151.269 835.931C 151.232 835.913 151.195 835.894 151.159 835.875L 151.105 835.847"/>
<path style="stroke:#000000; stroke-width:0.850394; stroke-linejoin:round; stroke-linecap:round; fill:none" d="M 151.008 835.028C 150.959 835.071 150.919 835.123 150.843 835.303C 150.834 835.433 150.842 835.499 150.915 835.68C 150.915 835.68 150.915 835.68 151.105 835.847"/>
<path style="stroke:#000000; stroke-width:0.850394; stroke-linejoin:round; stroke-linecap:round; fill:none" d="M 151.008 835.028L 151.219 834.843C 151.359 834.72 151.569 834.534 151.846 834.287C 152.124 834.039 152.464 833.73 152.867 833.36C 153.27 832.989 153.724 832.559 154.23 832.068C 154.736 831.578 155.271 831.031 155.834 830.429C 156.396 829.826 156.913 829.233 157.385 828.649C 157.856 828.064 158.269 827.494 158.625 826.939C 158.981 826.383 159.271 825.848 159.494 825.333C 159.716 824.818 159.868 824.329 159.949 823.867C 160.03 823.404 160.042 822.975 159.986 822.578C 159.931 822.181 159.813 821.823 159.633 821.504C 159.454 821.186 159.222 820.913 158.937 820.687C 158.652 820.46 158.323 820.286 157.951 820.165C 157.579 820.045 157.17 819.983 156.725 819.982C 156.281 819.981 155.807 820.045 155.304 820.174C 154.801 820.303 154.277 820.5 153.731 820.765C 153.185 821.03 152.628 821.36 152.06 821.756C 151.492 822.152 150.926 822.605 150.362 823.115C 149.798 823.626 149.254 824.178 148.729 824.772C 148.205 825.366 147.718 825.984 147.27 826.626C 146.821 827.268 146.428 827.914 146.091 828.565C 145.753 829.216 145.489 829.845 145.298 830.451C 145.106 831.058 144.993 831.583 144.959 832.028C 144.924 832.472 144.927 832.847 144.966 833.152C 145.006 833.457 145.052 833.703 145.104 833.891C 145.157 834.078 145.198 834.214 145.227 834.298L 145.271 834.424"/>
<path style="stroke:#000000; stroke-width:0.850394; stroke-linejoin:round; stroke-linecap:round; fill:none" d="M 145.042 835.027C 145.099 834.995 145.15 834.953 145.261 834.793C 145.301 834.628 145.301 834.628 145.271 834.424"/>
<path style="stroke:#000000; stroke-width:0.850394; stroke-linejoin:round; stroke-linecap:round; fill:none" d="M 145.042 835.027L 145.031 835.033C 145.024 835.037 144.951 835.078 144.812 835.154C 144.673 835.231 144.467 835.341 144.195 835.482C 143.923 835.623 143.585 835.784 143.181 835.964C 142.777 836.145 142.311 836.317 141.785 836.48C 141.259 836.644 140.695 836.745 140.095 836.783C 139.494 836.821 138.934 836.763 138.416 836.609C 137.897 836.455 137.436 836.206 137.033 835.862C 136.629 835.518 136.3 835.09 136.044 834.577C 135.789 834.064 135.63 833.546 135.567 833.022C 135.505 832.498 135.495 832.013 135.539 831.566C 135.582 831.119 135.639 830.735 135.709 830.415C 135.78 830.094 135.838 829.851 135.883 829.685L 135.952 829.437"/>
<path style="stroke:#000000; stroke-width:0.850394; stroke-linejoin:round; stroke-linecap:round; fill:none" d="M 135.952 829.437C 135.984 829.322 136 829.201 136 829.076C 136 828.326 135.391 827.717 134.641 827.717C 134.097 827.717 133.628 828.037 133.41 828.498"/>
<path style="stroke:#000000; stroke-width:0.850394; stroke-linejoin:round; stroke-linecap:round; fill:none" d="M 133.411 828.499L 133.326 828.67C 133.27 828.784 133.185 828.953 133.071 829.176C 132.957 829.399 132.813 829.672 132.639 829.992C 132.466 830.313 132.26 830.673 132.022 831.072C 131.784 831.47 131.511 831.894 131.204 832.342C 130.896 832.791 130.585 833.212 130.269 833.607C 129.953 834.002 129.634 834.368 129.314 834.705C 128.993 835.042 128.673 835.346 128.353 835.618C 128.034 835.89 127.721 836.126 127.414 836.326C 127.106 836.525 126.812 836.684 126.531 836.803C 126.249 836.921 125.989 836.995 125.748 837.023C 125.508 837.051 125.295 837.031 125.11 836.962C 124.925 836.893 124.773 836.772 124.654 836.6C 124.535 836.428 124.452 836.205 124.405 835.929C 124.359 835.654 124.348 835.327 124.375 834.95C 124.402 834.572 124.455 834.193 124.534 833.812C 124.614 833.43 124.7 833.074 124.792 832.745C 124.884 832.415 124.968 832.131 125.043 831.891C 125.119 831.652 125.178 831.471 125.219 831.346L 125.281 831.16"/>
<path style="stroke:#000000; stroke-width:0.850394; stroke-linejoin:round; stroke-linecap:round; fill:none" d="M 125.281 831.16C 125.374 830.945 125.426 830.708 125.426 830.458C 125.426 829.484 124.637 828.693 123.664 828.688"/>
<path style="stroke:#000000; stroke-width:0.850394; stroke-linejoin:round; stroke-linecap:round; fill:none" d="M 123.664 828.688L 123.598 828.682C 123.554 828.678 123.488 828.672 123.4 828.662C 123.312 828.653 123.203 828.639 123.072 828.621C 122.942 828.603 122.791 828.578 122.62 828.545C 122.449 828.512 122.26 828.467 122.051 828.411C 121.843 828.354 121.637 828.289 121.434 828.216C 121.231 828.143 121.031 828.061 120.834 827.97C 120.637 827.878 120.443 827.778 120.252 827.668C 120.062 827.557 119.874 827.438 119.689 827.31C 119.505 827.182 119.323 827.046 119.144 826.901C 118.965 826.756 118.806 826.62 118.667 826.492C 118.527 826.364 118.407 826.249 118.304 826.146C 118.202 826.044 118.118 825.957 118.05 825.886C 117.983 825.815 117.933 825.761 117.899 825.725L 117.849 825.67"/>
<path style="stroke:#000000; stroke-width:0.850394; stroke-linejoin:round; stroke-linecap:round; fill:none" d="M 117.849 825.67C 117.482 825.236 116.934 824.959 116.321 824.959C 115.558 824.959 114.895 825.387 114.558 826.016"/>
<path style="stroke:#000000; stroke-width:0.850394; stroke-linejoin:round; stroke-linecap:round; fill:none" d="M 114.558 826.016L 114.469 826.303C 114.41 826.494 114.317 826.778 114.192 827.152C 114.067 827.527 113.901 827.983 113.694 828.521C 113.487 829.059 113.226 829.661 112.912 830.329C 112.597 830.996 112.211 831.703 111.752 832.449C 111.294 833.194 110.805 833.892 110.286 834.542C 109.767 835.191 109.225 835.789 108.661 836.335C 108.096 836.88 107.526 837.372 106.949 837.808C 106.372 838.245 105.82 838.631 105.293 838.964C 104.766 839.298 104.275 839.584 103.822 839.822C 103.369 840.061 102.994 840.24 102.698 840.361C 102.403 840.483 102.163 840.57 101.979 840.624C 101.795 840.679 101.649 840.716 101.543 840.736C 101.437 840.756 101.359 840.769 101.31 840.775L 101.236 840.784"/>
<path style="stroke:#000000; stroke-width:0.850394; stroke-linejoin:round; stroke-linecap:round; fill:none" d="M 100.352 840.051C 100.365 840.463 100.704 840.793 101.119 840.793C 101.159 840.793 101.198 840.79 101.236 840.784"/>
<path style="stroke:#000000; stroke-width:0.850394; stroke-linejoin:round; stroke-linecap:round; fill:none" d="M 100.352 840.051L 100.349 839.96C 100.347 839.899 100.348 839.811 100.352 839.694C 100.356 839.577 100.372 839.44 100.4 839.28C 100.429 839.121 100.484 838.949 100.566 838.765C 100.648 838.581 100.771 838.39 100.934 838.192C 101.097 837.995 101.282 837.804 101.49 837.62C 101.698 837.436 101.92 837.25 102.157 837.062C 102.393 836.875 102.636 836.678 102.887 836.472C 103.137 836.267 103.388 836.049 103.641 835.82C 103.894 835.591 104.143 835.349 104.389 835.094C 104.635 834.84 104.851 834.601 105.037 834.378C 105.223 834.155 105.382 833.955 105.513 833.778C 105.645 833.601 105.753 833.451 105.837 833.329C 105.921 833.206 105.984 833.114 106.025 833.051L 106.087 832.958"/>
<path style="stroke:#000000; stroke-width:0.850394; stroke-linejoin:round; stroke-linecap:round; fill:none" d="M 106.087 832.958C 106.283 832.661 106.397 832.305 106.397 831.923C 106.397 830.886 105.556 830.045 104.519 830.045C 103.906 830.045 103.362 830.338 103.019 830.792"/>
<path style="stroke:#000000; stroke-width:0.850394; stroke-linejoin:round; stroke-linecap:round; fill:none" d="M 103.019 830.792L 102.98 830.843C 102.954 830.877 102.91 830.934 102.847 831.012C 102.784 831.091 102.688 831.204 102.56 831.351C 102.432 831.498 102.248 831.699 102.01 831.952C 101.772 832.206 101.452 832.531 101.051 832.929C 100.649 833.326 100.201 833.752 99.7076 834.207C 99.2142 834.662 98.6851 835.131 98.1203 835.614C 97.5555 836.097 96.9692 836.577 96.3613 837.054C 95.7533 837.531 95.1431 837.985 94.5307 838.416C 93.9183 838.848 93.3269 839.237 92.7564 839.584C 92.1858 839.93 91.6596 840.216 91.1776 840.442C 90.6956 840.668 90.2782 840.82 89.9253 840.9C 89.5724 840.979 89.2981 840.979 89.1024 840.9C 88.9067 840.822 88.7935 840.67 88.7627 840.444C 88.732 840.218 88.7752 839.937 88.8925 839.599C 89.0097 839.261 89.1844 838.892 89.4165 838.49C 89.6487 838.089 89.917 837.681 90.2216 837.266C 90.5261 836.852 90.8441 836.453 91.1757 836.071C 91.5072 835.688 91.8319 835.335 92.1497 835.01C 92.4676 834.685 92.7621 834.393 93.0332 834.134C 93.3044 833.875 93.5199 833.666 93.6795 833.509C 93.8392 833.351 93.9592 833.226 94.0396 833.133C 94.1201 833.04 94.1779 832.968 94.2133 832.916C 94.2487 832.865 94.2729 832.827 94.286 832.804L 94.3057 832.77"/>
<path style="stroke:#000000; stroke-width:0.850394; stroke-linejoin:round; stroke-linecap:round; fill:none" d="M 94.3058 832.77C 94.467 832.486 94.5591 832.158 94.5591 831.809C 94.5591 830.735 93.6873 829.863 92.6131 829.863C 92.3413 829.863 92.0824 829.919 91.8473 830.02"/>
<path style="stroke:#000000; stroke-width:0.850394; stroke-linejoin:round; stroke-linecap:round; fill:none" d="M 91.8475 830.02L 91.562 830.142C 91.3718 830.224 91.0819 830.352 90.6925 830.528C 90.303 830.703 89.8029 830.942 89.1922 831.243C 88.5814 831.544 87.847 831.93 86.9888 832.4C 86.1307 832.869 85.1544 833.432 84.0602 834.087C 82.9659 834.743 81.8924 835.404 80.8397 836.071C 79.7869 836.738 78.7838 837.383 77.8302 838.005C 76.8767 838.627 75.9919 839.203 75.1758 839.734C 74.3597 840.265 73.6091 840.74 72.9241 841.16C 72.2392 841.58 71.5963 841.947 70.9954 842.262C 70.3945 842.576 69.8636 842.823 69.4027 843.003C 68.9417 843.182 68.5319 843.323 68.1733 843.425C 67.8147 843.527 67.5113 843.605 67.2631 843.659C 67.015 843.713 66.8277 843.752 66.7014 843.776L 66.5119 843.812"/>
<path style="stroke:#000000; stroke-width:0.850394; stroke-linejoin:round; stroke-linecap:round; fill:none" d="M 64.3938 840.628C 64.1771 840.956 64.0508 841.349 64.0508 841.771C 64.0508 842.917 64.9814 843.848 66.1277 843.848C 66.259 843.848 66.3874 843.836 66.5119 843.812"/>
<path style="stroke:#000000; stroke-width:0.850394; stroke-linejoin:round; stroke-linecap:round; fill:none" d="M 64.3937 840.628L 64.5139 840.424C 64.594 840.289 64.72 840.078 64.8919 839.793C 65.0638 839.508 65.2962 839.129 65.5892 838.658C 65.8821 838.187 66.2594 837.596 66.7211 836.885C 67.1828 836.173 67.7647 835.311 68.4669 834.299C 69.169 833.286 69.8648 832.32 70.5542 831.399C 71.2437 830.478 71.8838 829.65 72.4748 828.914C 73.0657 828.178 73.5779 827.554 74.0114 827.04C 74.4448 826.527 74.7807 826.133 75.019 825.858C 75.2572 825.583 75.3898 825.43 75.4165 825.399L 75.4567 825.353"/>
<path style="stroke:#000000; stroke-width:0.850394; stroke-linejoin:round; stroke-linecap:round; fill:none" d="M 75.4567 825.353L 75.5504 825.426C 75.6129 825.474 75.7328 825.56 75.91 825.684C 76.0872 825.808 76.3313 825.951 76.6423 826.114C 76.9532 826.277 77.3468 826.428 77.823 826.568C 78.2992 826.707 78.881 826.794 79.5682 826.828C 80.2555 826.863 81.0277 826.814 81.885 826.683C 82.7422 826.552 83.6575 826.34 84.6308 826.045C 85.6041 825.751 86.6376 825.376 87.7314 824.922C 88.8252 824.469 89.9736 823.938 91.1766 823.329C 92.3796 822.721 93.62 822.041 94.8979 821.288C 96.1757 820.535 97.4654 819.717 98.7669 818.834C 100.068 817.951 101.35 817.014 102.612 816.024C 103.873 815.034 105.079 814.006 106.23 812.941C 107.38 811.877 108.438 810.798 109.404 809.704C 110.369 808.61 111.207 807.532 111.916 806.469C 112.625 805.406 113.173 804.398 113.56 803.445C 113.947 802.491 114.148 801.635 114.164 800.876C 114.18 800.117 113.999 799.492 113.621 798.999C 113.243 798.506 112.675 798.169 111.918 797.987C 111.16 797.806 110.247 797.777 109.177 797.902C 108.108 798.026 106.936 798.28 105.661 798.662C 104.387 799.045 103.071 799.523 101.715 800.095C 100.359 800.668 99.1524 801.23 98.0956 801.782C 97.0389 802.334 96.142 802.83 95.4051 803.271C 94.6681 803.711 94.0688 804.083 93.6072 804.385C 93.1455 804.687 92.803 804.915 92.5796 805.068L 92.2445 805.297"/>
<path style="stroke:#000000; stroke-width:0.850394; stroke-linejoin:round; stroke-linecap:round; fill:none" d="M 92.2445 805.297L 91.614 805.73C 91.1937 806.018 90.5743 806.454 89.756 807.038C 88.9376 807.621 87.9481 808.362 86.7874 809.259C 85.6267 810.156 84.4935 811.085 83.3878 812.047C 82.2822 813.008 81.2268 813.974 80.2218 814.943C 79.2168 815.913 78.3951 816.725 77.7567 817.378C 77.1183 818.032 76.6365 818.531 76.3112 818.873C 75.986 819.216 75.8058 819.406 75.7706 819.444L 75.7178 819.499"/>
<path style="stroke:#000000; stroke-width:0.850394; stroke-linejoin:round; stroke-linecap:round; fill:none" d="M 75.7178 819.499L 75.7094 819.462C 75.7038 819.437 75.686 819.351 75.656 819.205C 75.626 819.059 75.6023 818.908 75.5849 818.753C 75.5675 818.598 75.5566 818.438 75.5522 818.274C 75.5478 818.109 75.55 817.941 75.5588 817.768C 75.5676 817.595 75.5801 817.434 75.5964 817.285L 75.6209 817.062"/>
<path style="stroke:#000000; stroke-width:0.850394; stroke-linejoin:round; stroke-linecap:round; fill:none" d="M 75.621 817.062C 75.6282 816.997 75.6319 816.931 75.6319 816.863C 75.6319 815.872 74.8268 815.066 73.835 815.066C 72.8431 815.066 72.038 815.872 72.038 816.863C 72.038 816.903 72.0393 816.941 72.0418 816.98"/>
<path style="stroke:#000000; stroke-width:0.850394; stroke-linejoin:round; stroke-linecap:round; fill:none" d="M 72.0418 816.98L 72.0659 817.35C 72.0819 817.597 72.1109 817.924 72.1527 818.332C 72.1945 818.74 72.2484 819.128 72.3143 819.497C 72.3802 819.866 72.4578 820.216 72.547 820.547C 72.6363 820.877 72.7364 821.189 72.8474 821.483C 72.9584 821.777 73.0395 821.983 73.0906 822.101L 73.1673 822.279"/>
<path style="stroke:#000000; stroke-width:0.850394; stroke-linejoin:round; stroke-linecap:round; fill:none" d="M 73.1673 822.279L 73.0623 822.397C 72.9923 822.476 72.7913 822.702 72.4594 823.077C 72.1274 823.452 71.6777 823.968 71.1103 824.627C 70.5428 825.286 69.8845 826.071 69.1354 826.98C 68.3863 827.89 67.5865 828.889 66.7361 829.977C 65.8857 831.066 65.0534 832.164 64.2395 833.272C 63.4255 834.38 62.7026 835.41 62.0708 836.363C 61.439 837.315 60.9438 838.12 60.5852 838.778C 60.2267 839.435 59.955 839.988 59.7701 840.434C 59.5853 840.881 59.4502 841.243 59.3647 841.522C 59.2792 841.801 59.2198 842.007 59.1865 842.142L 59.1366 842.344"/>
<path style="stroke:#000000; stroke-width:0.850394; stroke-linejoin:round; stroke-linecap:round; fill:none" d="M 59.1357 842.344C 59.0453 842.71 58.9974 843.092 58.9974 843.486C 58.9974 846.11 61.1276 848.241 63.7521 848.241C 63.972 848.241 64.1884 848.226 64.4003 848.197"/>
<path style="stroke:#000000; stroke-width:0.850394; stroke-linejoin:round; stroke-linecap:round; fill:none" d="M 64.4002 848.196L 64.6645 848.16C 64.8407 848.136 65.1032 848.093 65.4519 848.033C 65.8007 847.972 66.231 847.879 66.7431 847.753C 67.2551 847.626 67.8415 847.446 68.5023 847.211C 69.1631 846.976 69.8885 846.669 70.6785 846.29C 71.4685 845.912 72.2407 845.507 72.9951 845.075C 73.7495 844.644 74.4863 844.202 75.2054 843.751C 75.9246 843.299 76.6265 842.851 77.3111 842.407C 77.9957 841.962 78.6643 841.529 79.3168 841.107C 79.9693 840.685 80.6073 840.278 81.2308 839.885C 81.8543 839.493 82.4049 839.152 82.8826 838.864C 83.3603 838.575 83.7727 838.329 84.1199 838.127C 84.4671 837.924 84.7541 837.759 84.9807 837.63C 85.2073 837.501 85.3767 837.405 85.4888 837.342L 85.657 837.248"/>
<path style="stroke:#000000; stroke-width:0.850394; stroke-linejoin:round; stroke-linecap:round; fill:none" d="M 86.1237 837.787C 86.1583 837.731 86.1782 837.664 86.1782 837.593C 86.1782 837.386 86.0102 837.218 85.8033 837.218C 85.7514 837.218 85.7019 837.229 85.657 837.248"/>
<path style="stroke:#000000; stroke-width:0.850394; stroke-linejoin:round; stroke-linecap:round; fill:none" d="M 86.1237 837.787L 86.0643 837.895C 86.0247 837.966 85.9668 838.072 85.8904 838.213C 85.814 838.354 85.7228 838.528 85.6168 838.733C 85.5108 838.939 85.3956 839.173 85.2713 839.435C 85.147 839.697 85.0216 839.983 84.895 840.291C 84.7685 840.599 84.657 840.896 84.5604 841.184C 84.4639 841.471 84.3836 841.747 84.3195 842.012C 84.2554 842.277 84.2094 842.529 84.1815 842.769C 84.1536 843.009 84.1467 843.235 84.1607 843.445C 84.1748 843.656 84.2134 843.85 84.2766 844.027C 84.3397 844.204 84.4303 844.362 84.5484 844.5C 84.6665 844.638 84.8136 844.755 84.9899 844.851C 85.1662 844.947 85.3706 845.021 85.6031 845.073C 85.8357 845.125 86.0925 845.155 86.3737 845.164C 86.6549 845.173 86.9546 845.163 87.2729 845.133C 87.5912 845.102 87.9212 845.055 88.2629 844.99C 88.6045 844.925 88.9506 844.845 89.3011 844.751C 89.6516 844.657 89.9998 844.552 90.3455 844.435C 90.6913 844.319 91.0291 844.193 91.3589 844.06C 91.6886 843.927 92.006 843.788 92.3109 843.645C 92.6158 843.502 92.9052 843.357 93.1791 843.212C 93.453 843.067 93.7097 842.925 93.9492 842.787C 94.1886 842.649 94.4108 842.52 94.6157 842.401C 94.8206 842.282 95.0097 842.179 95.1831 842.092C 95.3566 842.005 95.5172 841.942 95.6652 841.902C 95.8131 841.862 95.9521 841.851 96.0821 841.867C 96.2121 841.884 96.3374 841.929 96.4579 842.004C 96.5785 842.079 96.6984 842.177 96.8176 842.299C 96.9368 842.421 97.0592 842.556 97.1846 842.704C 97.3101 842.852 97.4422 843.002 97.5809 843.152C 97.7197 843.302 97.8682 843.441 98.0265 843.57C 98.1848 843.699 98.3556 843.81 98.539 843.902C 98.7225 843.994 98.9207 844.065 99.1338 844.114C 99.3469 844.163 99.5763 844.189 99.8221 844.194C 100.068 844.198 100.331 844.182 100.61 844.145C 100.89 844.107 101.186 844.051 101.498 843.976C 101.81 843.9 102.137 843.807 102.477 843.697C 102.818 843.587 103.17 843.46 103.533 843.316C 103.896 843.173 104.266 843.013 104.644 842.838C 105.021 842.663 105.402 842.473 105.785 842.269C 106.169 842.064 106.551 841.845 106.932 841.611C 107.313 841.378 107.689 841.132 108.059 840.872C 108.43 840.613 108.791 840.341 109.144 840.059C 109.496 839.776 109.837 839.483 110.167 839.18C 110.496 838.877 110.812 838.566 111.114 838.248C 111.416 837.93 111.703 837.606 111.975 837.278C 112.248 836.949 112.505 836.619 112.747 836.287C 112.989 835.954 113.216 835.623 113.43 835.294C 113.643 834.965 113.843 834.642 114.03 834.324C 114.218 834.006 114.395 833.699 114.563 833.402C 114.73 833.105 114.891 832.822 115.044 832.555C 115.198 832.288 115.349 832.04 115.495 831.811C 115.642 831.582 115.789 831.376 115.935 831.194C 116.081 831.011 116.229 830.854 116.38 830.724C 116.53 830.593 116.684 830.489 116.842 830.414C 117 830.338 117.145 830.293 117.279 830.278C 117.412 830.263 117.53 830.263 117.634 830.277C 117.738 830.292 117.826 830.309 117.897 830.331C 117.968 830.352 118.022 830.369 118.058 830.382L 118.112 830.402"/>
<path style="stroke:#000000; stroke-width:0.850394; stroke-linejoin:round; stroke-linecap:round; fill:none" d="M 118.111 830.404C 119.014 830.846 119.967 831.202 120.959 831.461"/>
<path style="stroke:#000000; stroke-width:0.850394; stroke-linejoin:round; stroke-linecap:round; fill:none" d="M 121.458 832.903C 121.576 832.749 121.646 832.556 121.646 832.347C 121.646 831.92 121.355 831.561 120.96 831.458"/>
<path style="stroke:#000000; stroke-width:0.850394; stroke-linejoin:round; stroke-linecap:round; fill:none" d="M 121.458 832.903L 121.418 833.001C 121.39 833.067 121.352 833.165 121.302 833.295C 121.253 833.425 121.198 833.587 121.138 833.78C 121.079 833.973 121.024 834.196 120.973 834.449C 120.923 834.703 120.891 834.983 120.877 835.292C 120.864 835.6 120.875 835.903 120.912 836.201C 120.948 836.5 121.01 836.791 121.096 837.076C 121.182 837.36 121.293 837.635 121.428 837.9C 121.564 838.165 121.722 838.416 121.904 838.652C 122.085 838.888 122.288 839.105 122.512 839.303C 122.736 839.5 122.979 839.673 123.241 839.823C 123.502 839.972 123.779 840.093 124.072 840.185C 124.364 840.278 124.668 840.341 124.984 840.374C 125.299 840.407 125.622 840.411 125.951 840.386C 126.281 840.361 126.612 840.309 126.946 840.23C 127.279 840.151 127.61 840.049 127.938 839.923C 128.266 839.797 128.587 839.652 128.901 839.487C 129.216 839.322 129.52 839.14 129.814 838.942C 130.108 838.744 130.39 838.531 130.66 838.305C 130.929 838.078 131.175 837.851 131.396 837.622C 131.617 837.394 131.805 837.183 131.961 836.99C 132.116 836.797 132.246 836.628 132.348 836.482C 132.451 836.336 132.532 836.218 132.591 836.127C 132.651 836.036 132.69 835.975 132.71 835.943L 132.741 835.895"/>
<path style="stroke:#000000; stroke-width:0.850394; stroke-linejoin:round; stroke-linecap:round; fill:none" d="M 134.026 835.923C 133.898 835.7 133.898 835.7 132.741 835.895"/>
<path style="stroke:#000000; stroke-width:0.850394; stroke-linejoin:round; stroke-linecap:round; fill:none" d="M 134.026 835.923L 134.293 836.391C 134.471 836.702 134.757 837.13 135.152 837.672C 135.546 838.215 136.081 838.736 136.756 839.236C 137.431 839.735 138.224 840.033 139.134 840.129C 140.044 840.226 140.97 840.144 141.912 839.885C 142.854 839.626 143.653 839.354 144.309 839.07C 144.965 838.786 145.48 838.548 145.855 838.357C 146.229 838.167 146.481 838.036 146.611 837.967L 146.804 837.863"/>
<path style="stroke:#000000; stroke-width:0.850394; stroke-linejoin:round; stroke-linecap:round; fill:none" d="M 148.336 837.931C 148.172 837.824 147.989 837.75 147.457 837.677C 147.457 837.677 147.457 837.677 146.804 837.863"/>
<path style="stroke:#000000; stroke-width:0.850394; stroke-linejoin:round; stroke-linecap:round; fill:none" d="M 137.391 823.422L 137.524 823.283C 137.613 823.19 137.747 823.05 137.927 822.864C 138.107 822.677 138.335 822.442 138.612 822.158C 138.888 821.875 139.217 821.541 139.597 821.158C 139.977 820.775 140.413 820.344 140.905 819.865C 141.396 819.385 141.845 818.957 142.251 818.58C 142.658 818.203 143.017 817.878 143.331 817.603C 143.644 817.328 143.907 817.101 144.12 816.922C 144.333 816.743 144.494 816.61 144.601 816.521L 144.763 816.389"/>
<path style="stroke:#000000; stroke-width:0.850394; stroke-linejoin:round; stroke-linecap:round; fill:none" d="M 144.763 816.388C 144.936 816.246 145.047 816.03 145.047 815.789C 145.047 815.361 144.7 815.014 144.273 815.014C 144.085 815.014 143.914 815.081 143.78 815.192"/>
<path style="stroke:#000000; stroke-width:0.850394; stroke-linejoin:round; stroke-linecap:round; fill:none" d="M 143.782 815.189L 143.547 815.381C 143.389 815.509 143.168 815.689 142.882 815.923C 142.597 816.156 142.283 816.415 141.942 816.698C 141.6 816.982 141.27 817.259 140.951 817.528C 140.633 817.798 140.307 818.064 139.974 818.327C 139.64 818.589 139.292 818.841 138.929 819.082C 138.566 819.323 138.181 819.565 137.776 819.807C 137.371 820.05 136.997 820.27 136.655 820.466C 136.312 820.663 136.046 820.815 135.856 820.922L 135.572 821.083"/>
<path style="stroke:#000000; stroke-width:0.850394; stroke-linejoin:round; stroke-linecap:round; fill:none" d="M 135.572 821.083C 135.118 821.34 134.811 821.828 134.811 822.386C 134.811 823.213 135.482 823.884 136.309 823.884C 136.734 823.884 137.118 823.707 137.39 823.422"/>
</g>
</svg>