<?xml version="1.0" encoding="utf-8"?>
<!-- Svg Vector Icons : http://www.onlinewebfonts.com/icon -->
<!DOCTYPE svg PUBLIC "-//W3C//DTD SVG 1.1//EN" "http://www.w3.org/Graphics/SVG/1.1/DTD/svg11.dtd">
<svg version="1.1" xmlns="http://www.w3.org/2000/svg" xmlns:xlink="http://www.w3.org/1999/xlink" x="0px" y="0px" viewBox="0 0 1000 1000" enable-background="new 0 0 1000 1000" xml:space="preserve">
<metadata> Svg Vector Icons : http://www.onlinewebfonts.com/icon </metadata>
<g><g transform="translate(0.000000,471.000000) scale(0.100000,-0.100000)"><path d="M4644.9,2337.2C3468.3,2251,2376,1752.7,1542.4,919.1c-141.8-141.8-310.4-323.8-373.7-402.4C858.3,122,551.7-418.4,386.9-864.9c-174.4-475.2-281.7-1036.7-285.5-1512c-3.8-281.7-1.9-300.8,40.2-369.8c47.9-76.7,166.7-155.2,266.4-176.3c78.6-15.3,210.8,19.2,289.4,80.5c109.2,82.4,132.2,153.3,155.2,504c40.2,630.5,176.3,1140.2,436.9,1653.8c197.4,389,412,686,724.4,1006c634.3,655.4,1374,1050.1,2276.6,1215c314.3,57.5,1063.5,63.2,1364.4,9.6c868.1-157.1,1586.7-515.5,2192.3-1096.1c548.1-527,906.4-1103.8,1121-1816.6c93.9-306.6,143.7-596,166.7-969.7c23-350.7,44.1-423.5,155.2-505.9c214.6-162.9,505.9-70.9,590.2,187.8c55.6,168.6-11.5,816.4-134.1,1305c-93.9,367.9-178.2,597.9-354.5,956.2C8759.2,898.1,7565.3,1862,6172.2,2205C5697,2321.9,5118.2,2371.7,4644.9,2337.2z"/><path d="M4671.7,1204.7C3236.4,1085.9,1965.9,122,1460-1234.8c-139.9-371.7-241.5-904.5-241.5-1257.1c0-226.1,120.7-389,318.1-431.2c138-28.7,333.4,72.8,396.7,207c19.2,40.2,38.3,164.8,51.7,341.1c30.7,427.3,109.2,745.4,268.3,1086.6C2663.4-412.7,3424.2,191,4393.9,405.6c254.9,57.5,902.6,63.2,1161.3,9.6C6635.9,194.8,7509.8-567.9,7849-1589.3c97.7-293.2,132.2-473.3,155.2-793.3c19.2-297,42.2-366,147.6-454.2c187.8-155.2,459.9-95.8,569.2,122.6c53.7,109.2,59.4,197.4,28.7,511.7C8628.9-987.6,7946.7,83.6,6900.4,698.8c-482.9,283.6-1031,456.1-1609.7,505.9C5033.9,1227.7,4955.3,1227.7,4671.7,1204.7z"/><path d="M4792.5,83.6c-632.4-63.2-1178.5-310.4-1621.2-730.1c-482.9-461.8-766.5-1071.2-814.4-1753.4c-15.3-226.1,13.4-322,126.5-425.4c141.8-126.5,348.8-130.3,488.7-9.6c97.7,86.2,124.6,166.7,143.7,415.8c38.3,475.2,216.5,870,544.2,1195.8c239.5,239.5,548.1,415.8,883.4,505.9c189.7,51.7,710.9,51.7,891.1,0c366-101.6,655.4-266.4,896.8-511.7c327.7-331.5,500.2-710.9,540.4-1195.8c19.2-237.6,38.3-302.8,111.1-379.4c145.7-153.3,364.1-162.9,521.2-21.1c113.1,103.5,141.8,199.3,126.5,425.4c-32.6,442.7-178.2,904.5-390.9,1237.9C6835.2-531.5,6208.6-100.3,5491.9,37.7C5309.9,74.1,4936.2,97.1,4792.5,83.6z"/></g></g>
</svg>