<?xml version="1.0" encoding="UTF-8" standalone="no"?>
<!-- Created with Inkscape (http://www.inkscape.org/) -->

<svg
   xmlns:dc="http://purl.org/dc/elements/1.1/"
   xmlns:cc="http://creativecommons.org/ns#"
   xmlns:rdf="http://www.w3.org/1999/02/22-rdf-syntax-ns#"
   xmlns:svg="http://www.w3.org/2000/svg"
   xmlns="http://www.w3.org/2000/svg"
   xmlns:sodipodi="http://sodipodi.sourceforge.net/DTD/sodipodi-0.dtd"
   xmlns:inkscape="http://www.inkscape.org/namespaces/inkscape"
   version="1.1"
   id="svg4485"
   width="769.62024"
   height="769.62024"
   viewBox="0 0 769.62024 769.62024"
   sodipodi:docname="You Shall not Pass.svg"
   inkscape:version="0.92.0 r15299">
  <metadata
     id="metadata4491">
    <rdf:RDF>
      <cc:Work
         rdf:about="">
        <dc:format>image/svg+xml</dc:format>
        <dc:type
           rdf:resource="http://purl.org/dc/dcmitype/StillImage" />
        <dc:title></dc:title>
      </cc:Work>
    </rdf:RDF>
  </metadata>
  <defs
     id="defs4489" />
  <sodipodi:namedview
     pagecolor="#ffffff"
     bordercolor="#666666"
     borderopacity="1"
     objecttolerance="10"
     gridtolerance="10"
     guidetolerance="10"
     inkscape:pageopacity="0"
     inkscape:pageshadow="2"
     inkscape:window-width="2560"
     inkscape:window-height="1017"
     id="namedview4487"
     showgrid="false"
     inkscape:zoom="0.55092106"
     inkscape:cx="245.36381"
     inkscape:cy="272.01633"
     inkscape:window-x="-8"
     inkscape:window-y="-8"
     inkscape:window-maximized="1"
     inkscape:current-layer="svg4485" />
  <path
     style="fill:#000000;stroke-width:0.18828487"
     d="m 65.596827,566.74045 c -0.611728,-0.10383 -1.04031,-0.29802 -1.223836,-0.5546 -0.155303,-0.21714 -0.550654,-0.7297 -0.878482,-1.13893 -0.56651,-0.70726 -1.004347,-2.06029 -1.004347,-3.10394 0,-0.25082 -0.139067,-1.08894 -0.309089,-1.86251 -0.28648,-1.30402 -0.28648,-1.54157 0,-3.26151 0.170022,-1.02027 0.309089,-2.37347 0.309089,-3.00704 0,-1.42345 0.383742,-3.46727 1.000174,-5.32734 0.653988,-1.97334 0.997141,-6.39185 0.619544,-7.97849 -0.144758,-0.60831 -0.442998,-1.32853 -0.662712,-1.60044 -0.219791,-0.27192 -0.557407,-0.83813 -0.750265,-1.25837 -0.192857,-0.42016 -0.571972,-0.90905 -0.84252,-1.08628 -0.270623,-0.1773 -0.619922,-0.62865 -0.776363,-1.00298 -0.156441,-0.37434 -0.58047,-1.00837 -0.942363,-1.40904 -0.361968,-0.40058 -0.658084,-0.79654 -0.658084,-0.87992 0,-0.0833 -0.787743,-0.9561 -1.750591,-1.9395 -1.303952,-1.33179 -2.124243,-1.9895 -3.215234,-2.57801 -0.805648,-0.4345 -1.580494,-0.79003 -1.721987,-0.79003 -0.141419,0 -0.579789,0.19059 -0.974001,0.42358 -0.592077,0.3499 -0.995472,0.42366 -2.317253,0.42366 H 47.89806 l -1.438316,-0.94138 c -1.869249,-1.22354 -2.519139,-2.17569 -2.332881,-3.41804 0.131782,-0.87871 0.271759,-1.0598 1.723808,-2.23052 l 0.700571,-0.56485 h 2.674593 2.674594 l 1.025137,0.70603 c 0.563854,0.38836 1.094251,0.70611 1.178617,0.70611 0.08443,0 0.521142,0.3389 0.970511,0.75314 0.44937,0.41417 0.901546,0.75315 1.004726,0.75315 0.103179,0 0.318345,0.25272 0.478124,0.56166 0.159703,0.30893 0.52668,0.6838 0.815435,0.83311 0.288756,0.14931 0.622579,0.48564 0.741844,0.74731 0.119189,0.26167 0.473191,0.60839 0.786604,0.77044 0.313338,0.16206 0.699584,0.54565 0.858226,0.85238 0.158641,0.30681 1.236201,1.50402 2.394487,2.66056 2.215437,2.21196 3.67614,3.14923 4.500069,2.8877 1.138409,-0.36135 1.644072,-0.85776 2.026221,-1.98927 0.209475,-0.62037 0.591849,-1.3786 0.849571,-1.68495 0.26532,-0.31532 0.524181,-0.92659 0.596406,-1.40844 0.07061,-0.46825 0.326304,-1.12451 0.569011,-1.45833 0.242707,-0.33382 0.665751,-1.0306 0.940089,-1.54832 0.274273,-0.51781 0.652091,-1.11087 0.83949,-1.318 0.187388,-0.20712 0.488821,-0.75786 0.669835,-1.22391 0.18095,-0.46599 0.654682,-1.22854 1.052533,-1.69452 0.397927,-0.46599 0.849722,-0.99555 1.003974,-1.1768 0.239053,-0.28079 0.623405,-0.3295 2.601754,-0.3295 2.248818,0 2.347289,0.0175 3.153783,0.54929 0.457856,0.3021 1.192802,0.69267 1.63314,0.86794 0.648598,0.25811 0.892068,0.50058 1.281955,1.27678 0.284119,0.56568 0.439274,1.1256 0.378732,1.36677 -0.116679,0.46485 -1.820077,1.69377 -2.610105,1.88306 -0.354614,0.0849 -0.644202,0.35893 -0.89123,0.84306 -0.201199,0.39444 -0.54299,0.7734 -0.759601,0.84206 -0.231927,0.0736 -0.547762,0.48556 -0.768393,1.00222 -0.206057,0.48246 -0.577738,1.09023 -0.825905,1.35062 -0.248242,0.2603 -0.578414,0.83356 -0.733796,1.27391 -0.155305,0.44027 -0.500202,1.08605 -0.766426,1.43506 -0.266148,0.34899 -0.635775,1.17375 -0.821347,1.83275 -0.185572,0.65907 -0.551878,1.50978 -0.814071,1.89049 -0.262214,0.38071 -0.580629,1.22042 -0.707625,1.86599 -0.127007,0.64548 -0.467508,1.60492 -0.75671,2.13198 -0.308871,0.56295 -0.615,1.52753 -0.741932,2.33797 -0.118882,0.75876 -0.436468,1.81439 -0.705798,2.34585 -0.290803,0.57387 -0.559305,1.52745 -0.661194,2.34814 -0.09437,0.75997 -0.388673,1.94966 -0.654058,2.64363 -0.487757,1.2755 -0.543302,1.52944 -1.223767,5.59242 -0.208109,1.24265 -0.536165,2.64311 -0.729013,3.11199 -0.359783,0.87467 -0.462198,2.31087 -0.389823,5.46678 0.03042,1.32056 -0.02504,1.68404 -0.304152,2.00937 -0.411587,0.47918 -1.483836,0.64018 -2.78893,0.4188 z m 458.518263,-0.13133 c -0.62873,-0.69473 -0.22329,-3.95875 0.60064,-4.83579 0.54747,-0.58274 1.35661,-3.99857 1.51988,-6.41636 0.0697,-1.0356 0.21342,-2.13706 0.31887,-2.44775 0.46189,-1.36084 0.40552,-18.66381 -0.0676,-20.5917 -0.16153,-0.65915 -0.24779,-1.48156 -0.19165,-1.82767 0.0862,-0.53115 -0.0159,-0.77744 -0.65391,-1.57882 -0.41576,-0.52229 -0.86444,-0.94951 -0.99699,-0.94951 -0.13253,0 -0.45643,0.16942 -0.71976,0.37655 -0.94069,0.73994 -1.45485,0.31083 -1.45485,-1.21429 0,-0.7954 0.0744,-0.93188 0.96095,-1.754 0.52857,-0.49034 1.62222,-1.54764 2.43044,-2.3495 1.37854,-1.36775 1.54856,-1.47624 2.7507,-1.75506 2.35336,-0.54573 4.39802,0.27275 4.40287,1.76266 0,0.17639 0.0886,0.63577 0.19551,1.02088 0.48618,1.75044 2.09276,2.49319 2.72954,1.26191 0.16903,-0.32683 0.58016,-0.69684 0.94258,-0.84828 0.35355,-0.14772 0.77463,-0.46978 0.93577,-0.71574 0.17624,-0.26895 0.64048,-0.54452 1.16473,-0.69124 0.4794,-0.13429 1.15085,-0.4892 1.4921,-0.7888 0.49907,-0.43814 0.94122,-0.59663 2.26097,-0.81028 0.90237,-0.14613 1.92599,-0.35977 2.27476,-0.47486 0.49822,-0.16448 0.78357,-0.15037 1.33218,0.066 0.38389,0.15127 1.12172,0.33428 1.63944,0.40658 0.94289,0.13179 1.03303,0.19301 2.63597,1.79018 1.66456,1.65857 1.977,2.07706 1.977,2.64835 0,0.61826 0.46666,1.69263 0.73515,1.69263 0.25803,0 0.54838,0.95951 0.59823,1.97698 0.025,0.5178 0.0531,2.33949 0.0622,4.04812 0.0167,3.10538 0.0159,3.10728 -0.57328,4.35099 -0.381,0.80427 -0.84031,1.43558 -1.29871,1.78518 -0.39004,0.29756 -0.82652,0.82181 -0.96999,1.16519 -0.3332,0.79753 -3.81655,4.26388 -4.77743,4.75408 -0.40165,0.205 -0.82515,0.54975 -0.941,0.76626 -0.11585,0.21654 -0.56879,0.55211 -1.00655,0.74572 -0.43769,0.19362 -0.95373,0.52653 -1.14675,0.7398 -0.19301,0.21326 -0.80489,0.51977 -1.35987,0.68107 -0.5549,0.16138 -1.20229,0.50187 -1.43862,0.75671 -0.23656,0.25507 -0.86634,0.57858 -1.40107,0.71968 -0.66757,0.17611 -1.1711,0.46805 -1.61007,0.93343 -0.46341,0.49146 -0.79716,0.67726 -1.21618,0.67726 -0.81756,0 -1.4566,0.28027 -2.39828,1.05193 -0.69891,0.57266 -0.8511,0.8275 -1.03931,1.73943 -0.12125,0.58769 -0.38231,1.38719 -0.58017,1.7767 -0.19787,0.38951 -0.47737,1.54666 -0.62115,2.57133 -0.27273,1.94314 -0.43336,2.39373 -1.16882,3.27783 -0.24355,0.2927 -0.44278,0.69465 -0.44278,0.89313 0,0.19854 -0.58335,1.02301 -1.29637,1.83213 -1.33641,1.51663 -1.72759,1.74226 -3.50739,2.02319 -0.60491,0.0956 -0.82097,0.0471 -1.08264,-0.24194 z m 15.39486,-21.69044 c 0.51773,-0.28975 1.36085,-0.62819 1.87357,-0.75209 0.57501,-0.13899 1.20632,-0.47312 1.64802,-0.8721 0.39375,-0.35576 0.80353,-0.64678 0.91065,-0.64678 0.10715,0 0.55452,-0.36008 0.99426,-0.80019 0.43966,-0.44012 0.96147,-0.8913 1.15964,-1.00268 0.26388,-0.14833 0.39347,-0.50073 0.48458,-1.31799 0.0682,-0.61355 0.26933,-1.64832 0.44649,-2.29958 0.29179,-1.07262 0.2955,-1.26737 0.0394,-2.07112 -0.15531,-0.48792 -0.34043,-1.35312 -0.41144,-1.92267 -0.13914,-1.11663 -0.4436,-1.85401 -0.93349,-2.2605 -0.16972,-0.14089 -0.47334,-0.57903 -0.67463,-0.97362 -0.22585,-0.44262 -0.5992,-0.81673 -0.97475,-0.97659 -0.33481,-0.14256 -0.79684,-0.47972 -1.02681,-0.74935 -0.22988,-0.26964 -0.63737,-0.54527 -0.90549,-0.61263 -0.79282,-0.19893 -2.16566,0.0409 -2.69895,0.47198 -0.27297,0.22054 -0.83522,0.56718 -1.24939,0.77022 -0.41425,0.20309 -1.06702,0.73099 -1.4507,1.17308 -0.38357,0.44215 -1.00243,1.15804 -1.3751,1.59095 -0.50195,0.58305 -0.80929,1.24205 -1.18538,2.54183 -0.44322,1.53201 -0.50233,2.04154 -0.46522,4.0142 0.0357,1.88587 0.26395,3.85162 0.72614,6.24724 0.15863,0.82189 0.53259,0.97476 2.38515,0.97492 1.55743,0 1.84126,-0.0554 2.68309,-0.52653 z m -159.70709,20.31957 c -0.22988,-0.0925 -0.47388,-0.39095 -0.54216,-0.66301 -0.18724,-0.74624 0.0858,-2.8846 0.45012,-3.52448 0.17701,-0.31083 0.42646,-0.74472 0.55438,-0.96422 0.36037,-0.61832 0.33488,-20.81483 -0.0288,-22.83119 -0.14681,-0.814 -0.40559,-2.75092 -0.57509,-4.30433 -0.43616,-3.99706 -0.42638,-3.95427 -1.11268,-4.85338 -0.65437,-0.85724 -1.43437,-2.87907 -1.43437,-3.71787 0,-0.57424 0.99722,-2.16764 1.57958,-2.52392 0.21858,-0.13375 1.14114,-0.43715 2.0502,-0.67431 1.64194,-0.42843 1.66037,-0.42897 2.79431,-0.0857 0.85207,0.25802 1.26427,0.50664 1.62586,0.98074 0.26645,0.3493 0.74594,0.7703 1.0655,0.93554 0.31955,0.16524 1.41487,1.14659 2.43395,2.18083 2.37195,2.40701 5.73376,5.40451 6.06143,5.40451 0.1393,0 0.6329,0.31773 1.09683,0.70602 0.81211,0.67979 2.00073,1.48286 3.19126,2.15612 0.31152,0.17616 0.87431,0.62097 1.25069,0.98848 0.37631,0.36751 0.78366,0.66818 0.90512,0.66818 0.12147,0 0.50908,0.25303 0.86126,0.56225 0.97195,0.85338 2.3913,1.83065 3.24345,2.23328 0.42017,0.19847 0.914,0.5898 1.09729,0.86953 0.18329,0.2798 0.62007,0.6285 0.97058,0.77499 0.35052,0.14643 0.9159,0.50886 1.25631,0.80543 0.34035,0.29648 0.8731,0.66991 1.18378,0.82977 0.31068,0.15986 0.77023,0.51052 1.02134,0.77924 0.25106,0.26873 0.56849,0.4886 0.7055,0.4886 0.13702,0 0.58184,0.30067 0.98849,0.66809 1.38977,1.25556 2.51999,1.262 2.86321,0.0167 0.11798,-0.42819 0.45733,-1.56327 0.75413,-2.5224 0.60809,-1.96475 0.69511,-3.52871 0.24491,-4.39939 -0.16221,-0.31363 -0.46128,-1.55916 -0.66469,-2.76783 -0.47873,-2.84552 -0.69123,-3.62014 -1.12005,-4.0837 -0.19316,-0.20879 -0.51894,-0.91862 -0.72393,-1.57731 -0.20508,-0.65861 -0.58276,-1.41979 -0.83941,-1.69141 -0.25675,-0.27161 -0.56234,-0.85503 -0.67925,-1.29651 -0.11692,-0.44149 -0.46318,-1.08811 -0.76946,-1.43696 -0.73312,-0.83501 -0.72061,-1.36176 0.0417,-1.77016 0.32951,-0.1764 0.7873,-0.51501 1.01747,-0.75232 0.54641,-0.56355 1.38953,-0.7923 2.92041,-0.7923 1.02795,0 1.35555,0.0813 1.88405,0.46781 0.35188,0.2572 0.99388,0.63297 1.42678,0.83486 0.43283,0.20196 0.88986,0.5634 1.01566,0.80314 0.12579,0.23983 0.50392,0.74397 0.84024,1.12028 0.37495,0.4194 0.66211,0.98319 0.74214,1.45668 0.0721,0.42486 0.33458,1.07331 0.58412,1.44089 0.49831,0.73433 0.69397,1.46897 1.01603,3.81528 0.11782,0.85808 0.32402,1.87486 0.45824,2.25936 0.4779,1.36936 0.75254,3.69162 0.51652,4.36851 -0.11949,0.34286 -0.21835,0.97074 -0.21964,1.39546 0,0.42463 -0.21319,1.43194 -0.47077,2.23851 -0.25749,0.80647 -0.46826,1.62396 -0.46826,1.81659 0,0.19271 -0.25476,0.83456 -0.56605,1.42632 -0.31129,0.59178 -0.67971,1.56835 -0.81877,2.17014 -0.17936,0.77652 -0.43867,1.28652 -0.89321,1.75659 -0.35217,0.36425 -0.97597,1.05586 -1.38603,1.53688 -0.41015,0.48092 -1.06392,1.0368 -1.45289,1.23528 -0.38906,0.19847 -0.79192,0.51895 -0.8954,0.71226 -0.1034,0.19331 -0.67819,0.5489 -1.27717,0.79032 -0.59906,0.24142 -1.35525,0.5942 -1.68049,0.7841 -0.32517,0.18982 -1.0033,0.39399 -1.50691,0.45362 -0.80146,0.0949 -0.9743,0.0501 -1.38573,-0.35765 -0.25849,-0.25635 -0.82453,-0.64586 -1.25782,-0.8655 -0.43329,-0.21972 -1.02643,-0.62357 -1.31799,-0.8976 -0.29164,-0.27405 -0.79321,-0.60998 -1.11459,-0.74663 -0.32137,-0.13671 -0.72553,-0.46394 -0.89806,-0.72721 -0.17252,-0.26333 -0.60035,-0.59851 -0.95078,-0.74494 -0.35044,-0.14644 -0.6939,-0.44482 -0.76317,-0.66317 -0.0691,-0.21826 -0.43752,-0.55589 -0.8183,-0.75026 -0.38087,-0.19437 -0.86187,-0.54102 -1.06899,-0.77037 -0.20713,-0.22927 -0.75785,-0.61234 -1.22384,-0.85124 -0.46599,-0.23892 -0.95223,-0.60832 -1.08052,-0.82105 -0.12829,-0.21267 -0.50961,-0.52903 -0.8473,-0.70308 -0.33769,-0.17396 -0.72508,-0.47365 -0.86081,-0.66597 -0.13572,-0.19226 -0.51704,-0.48776 -0.84729,-0.65657 -0.33026,-0.16888 -0.91848,-0.592 -1.30715,-0.94039 -0.38859,-0.34832 -0.78819,-0.63335 -0.88804,-0.63335 -0.0997,0 -0.61073,-0.38123 -1.13544,-0.84722 -0.52472,-0.46606 -1.04684,-0.8473 -1.16027,-0.8473 -0.11342,0 -0.52439,-0.28747 -0.91322,-0.63874 -1.22665,-1.10822 -3.0978,-1.06747 -3.41424,0.0744 -0.37365,1.34834 -0.74988,5.10861 -0.91543,9.15043 -0.18838,4.59832 -0.2484,5.12386 -0.91134,7.98312 -0.20409,0.88022 -0.47614,2.26324 -0.60452,3.07336 -0.1531,0.96671 -0.38465,1.67858 -0.67356,2.07114 -0.2421,0.32904 -0.58957,0.90609 -0.77219,1.2824 -0.18254,0.37638 -0.7979,1.10593 -1.36744,1.62116 -0.91498,0.82781 -1.16504,0.95291 -2.14778,1.0746 -0.61165,0.0759 -1.20479,0.16706 -1.31798,0.20287 -0.1132,0.0357 -0.39391,-0.0107 -0.62387,-0.10328 z M 227.25472,553.41467 c -1.25554,-0.62356 -1.44939,-0.79549 -1.91651,-1.69969 -0.28587,-0.55331 -0.66081,-1.16185 -0.83318,-1.35235 -0.33671,-0.37198 -0.83942,-3.21236 -0.8417,-4.75544 0,-0.49527 -0.12844,-1.20457 -0.28375,-1.57641 -0.36235,-0.86724 -0.35757,-1.59558 0.0159,-2.47171 0.21691,-0.5084 0.31737,-1.49901 0.36676,-3.61848 0.0858,-3.67582 0.38889,-7.09196 0.75465,-8.50335 0.15553,-0.60012 0.36979,-1.74959 0.47616,-2.55434 0.43237,-3.27053 0.82961,-12.57764 0.57773,-13.53669 -0.0824,-0.31387 -0.41932,-0.72317 -0.80117,-0.97339 -0.48404,-0.31721 -0.74806,-0.6942 -0.99509,-1.42095 -0.48973,-1.44073 -0.2235,-2.26186 1.16344,-3.58805 0.59254,-0.56658 1.38044,-1.33225 1.75098,-1.70157 0.66612,-0.66401 0.69146,-0.67145 2.25943,-0.66864 0.87211,0 1.69256,0.0706 1.82306,0.15355 0.13056,0.0829 0.62097,0.9077 1.08985,1.83291 1.21488,2.39738 1.29173,3.28262 1.01368,11.67459 -0.24119,7.27791 -0.2223,7.49884 0.66043,7.72038 0.61082,0.15333 2.10512,-0.52789 2.26536,-1.03272 0.0691,-0.21865 0.3955,-0.53548 0.72476,-0.70414 0.62001,-0.31759 2.76382,-2.41269 2.76382,-2.70106 0,-0.09 0.16759,-0.21684 0.37237,-0.28186 0.20477,-0.0652 0.7046,-0.39573 1.11071,-0.73509 1.37019,-1.14472 4.83185,-1.34705 5.83763,-0.34125 0.25675,0.25673 0.89639,0.66445 1.4214,0.90616 1.32983,0.61212 4.02339,3.60869 4.46404,4.96629 0.11835,0.36453 0.4857,0.96527 0.81641,1.33497 0.44262,0.49467 0.66287,0.99153 0.83463,1.88284 0.12837,0.6659 0.43768,1.50993 0.68729,1.87562 0.24962,0.36568 0.54815,1.12824 0.6634,1.69453 0.29224,1.43611 0.37995,6.80494 0.13512,8.27172 -0.3323,1.99093 -1.58216,4.18771 -3.50786,6.16553 -2.55571,2.62489 -4.13931,3.89585 -4.85415,3.89585 -0.86118,0 -1.26525,-0.39422 -1.12975,-1.10214 0.52812,-2.75934 0.65072,-3.15826 1.12134,-3.64943 0.2996,-0.31274 0.56332,-0.87227 0.66323,-1.40729 0.0914,-0.48844 0.37685,-1.20472 0.63458,-1.59165 0.6662,-1.00002 1.09386,-4.61266 0.64313,-5.43339 -0.76172,-1.38719 -1.05646,-2.08503 -1.06413,-2.51907 -0.01,-0.57471 -0.66771,-2.07114 -0.9102,-2.07114 -0.0965,0 -0.39822,-0.44481 -0.67052,-0.98848 -0.64086,-1.27946 -1.97145,-2.845 -3.4823,-4.09714 -0.9438,-0.78221 -1.43413,-1.04539 -2.27439,-1.22072 -1.25349,-0.2616 -2.79225,0.0235 -3.11045,0.5766 -0.10458,0.18178 -0.3276,0.45483 -0.49549,0.60664 -0.1679,0.15189 -1.05762,0.98341 -1.97698,1.84793 -1.58824,1.49325 -1.88231,1.77905 -2.99029,2.90553 -0.25841,0.26274 -0.64876,0.81347 -0.86748,1.22385 -0.21865,0.41044 -0.51348,0.96314 -0.65505,1.22823 -0.19946,0.37335 -0.21623,0.7341 -0.0744,1.60045 0.10071,0.61507 0.18359,1.57465 0.1842,2.13221 0,1.03325 0.26827,2.97155 0.57478,4.17026 0.16328,0.63852 1.00723,1.75469 2.11454,2.79667 2.39084,2.24973 2.5815,2.63264 1.68905,3.39269 -0.31546,0.26865 -0.66969,0.67886 -0.78721,0.91149 -0.11744,0.23268 -0.52841,0.5838 -0.9133,0.78023 -0.38488,0.19642 -0.86293,0.53753 -1.06238,0.75808 -0.19947,0.22055 -0.8033,0.5291 -1.34189,0.6857 -0.53859,0.15651 -1.12991,0.45111 -1.31405,0.6546 -0.46439,0.5131 -0.90943,0.45157 -2.52058,-0.34847 z m -125.50714,-0.41128 c -0.31067,-0.0791 -1.02089,-0.15379 -1.57821,-0.166 -0.650279,-0.0144 -1.23036,-0.15644 -1.618968,-0.39657 -0.333053,-0.20584 -1.273368,-0.50202 -2.089643,-0.65823 -1.002834,-0.19187 -1.729418,-0.45864 -2.240928,-0.8228 -0.41622,-0.29642 -1.084088,-0.64542 -1.484057,-0.77553 -0.750423,-0.24415 -3.976431,-3.25908 -4.460856,-4.16889 -0.131553,-0.24711 -0.484264,-0.7552 -0.783945,-1.12916 -0.711043,-0.88744 -0.949031,-2.40359 -0.957157,-6.09831 -0.0075,-3.25173 0.235657,-4.79437 0.873926,-5.5529 0.246114,-0.29247 0.549825,-0.94206 0.67493,-1.44348 0.128221,-0.5137 0.464391,-1.15813 0.770295,-1.47648 0.298542,-0.31068 0.682518,-0.90375 0.85329,-1.31798 0.314094,-0.76203 0.562035,-1.0523 2.857444,-3.34603 2.176517,-2.17485 2.57884,-2.54053 3.06463,-2.78537 0.258861,-0.1305 0.767254,-0.46908 1.129681,-0.75246 0.362426,-0.28338 0.870819,-0.57478 1.129691,-0.64755 0.258925,-0.0728 0.772488,-0.36909 1.141277,-0.65845 1.02378,-0.80315 3.01593,-1.1199 6.57842,-1.0457 3.68053,0.0765 4.76067,0.22989 5.51746,0.7832 0.33101,0.242 1.06686,0.65837 1.63519,0.92536 0.56834,0.2669 1.10245,0.60869 1.1869,0.7596 0.0845,0.15082 0.47835,0.43996 0.87545,0.64253 0.60769,0.31007 1.77888,1.51365 4.42957,4.55219 0.23914,0.27419 0.54148,0.82158 0.67182,1.21648 0.13026,0.39489 0.44482,1.1318 0.69882,1.63761 0.25409,0.50582 0.58609,1.61062 0.73774,2.45512 0.15175,0.84448 0.37056,1.87433 0.48633,2.28856 0.37434,1.33962 0.35249,4.01156 -0.0432,5.27204 -0.19497,0.62129 -0.41317,1.50797 -0.48486,1.9703 -0.0867,0.55938 -0.30227,1.00117 -0.64399,1.32034 -0.28238,0.26387 -0.64881,0.74146 -0.81421,1.06133 -0.16547,0.31986 -0.50392,0.71476 -0.75224,0.87742 -0.24832,0.16273 -0.55945,0.55656 -0.69147,0.87521 -0.13201,0.31873 -0.30946,0.57949 -0.39436,0.57949 -0.0849,0 -0.54117,0.38125 -1.01384,0.84731 -0.47273,0.46598 -0.98348,0.84721 -1.13514,0.84721 -0.15166,0 -0.46499,0.25606 -0.69639,0.56902 -0.27859,0.37683 -0.73099,0.66111 -1.33968,0.84191 -0.50552,0.15014 -1.19601,0.51606 -1.53445,0.81324 -0.42229,0.37077 -0.99137,0.61431 -1.81341,0.77598 -0.65893,0.12967 -1.61267,0.44588 -2.11954,0.70269 -1.32155,0.66969 -5.06362,1.02438 -6.62241,0.62775 z m 9.27243,-6.26045 c 0.31508,-0.23307 0.97149,-0.72022 1.45873,-1.08265 1.36365,-1.01444 1.86712,-2.17734 2.16452,-4.99958 0.16676,-1.58277 0.14666,-1.79801 -0.28192,-3.0126 -0.25378,-0.71937 -0.4637,-1.51979 -0.46652,-1.77865 -0.009,-0.80634 -0.37464,-1.84831 -0.84639,-2.40891 -0.24884,-0.29572 -0.55149,-0.93083 -0.67249,-1.41138 -0.15599,-0.61946 -0.40204,-1.01254 -0.84556,-1.35084 -0.34407,-0.26242 -0.67963,-0.64761 -0.74579,-0.85595 -0.066,-0.20833 -0.37077,-0.50831 -0.67698,-0.66666 -0.30628,-0.1584 -0.7778,-0.536 -1.0479,-0.8391 -0.27008,-0.30309 -0.79729,-0.64731 -1.17147,-0.76491 -0.37426,-0.11752 -1.23112,-0.47888 -1.90424,-0.80292 -1.2164,-0.58554 -1.24514,-0.58949 -4.70718,-0.64798 l -3.483279,-0.0592 -0.895324,0.86686 c -0.492454,0.47684 -1.033939,1.13728 -1.203271,1.46762 -0.169342,0.33033 -0.494517,0.82431 -0.722575,1.09765 -0.303088,0.36334 -0.503083,1.04737 -0.743361,2.54182 -0.180714,1.12469 -0.456804,2.40906 -0.61355,2.85441 -0.266825,0.75831 -0.259849,0.86771 0.110842,1.72942 0.217665,0.50598 0.399453,1.24312 0.404,1.63816 0.0075,0.39496 0.121923,1.03681 0.260914,1.42625 0.249757,0.70005 0.433061,0.93106 2.052315,2.58697 0.455675,0.46599 0.905277,0.99274 0.999191,1.17058 0.09383,0.17783 0.611884,0.70004 1.151241,1.16033 0.704056,0.60102 1.256451,0.89624 1.959007,1.04684 0.53812,0.11546 1.2802,0.3964 1.64899,0.62431 1.01663,0.62827 2.46876,0.86013 5.49577,0.87758 2.56913,0.0144 2.78695,-0.0122 3.32228,-0.40787 z m 26.03096,6.06486 c -2.0669,-0.58518 -4.17293,-1.45828 -4.68776,-1.94345 -0.26949,-0.25408 -0.78661,-0.58381 -1.14904,-0.73275 -0.3625,-0.14899 -0.77423,-0.48645 -0.91512,-0.74996 -0.14081,-0.26349 -0.45718,-0.58669 -0.70293,-0.71824 -0.24573,-0.13148 -0.49526,-0.39155 -0.55437,-0.57789 -0.0592,-0.18626 -0.43556,-0.59853 -0.83653,-0.91603 -0.4408,-0.34916 -0.77878,-0.80428 -0.85504,-1.15138 -0.069,-0.31578 -0.36235,-0.84314 -0.6511,-1.17203 -0.28868,-0.32888 -0.61636,-0.92893 -0.72804,-1.33339 -0.11168,-0.40452 -0.43192,-0.97438 -0.71172,-1.26639 -0.55711,-0.58145 -0.69746,-1.26025 -0.92521,-4.4726 -0.15508,-2.187 0.12366,-3.87256 0.69761,-4.21845 0.20772,-0.12518 0.59344,-0.65126 0.85723,-1.16906 0.26372,-0.5178 0.70133,-1.20426 0.97242,-1.52556 0.27107,-0.32124 0.63804,-0.82963 0.81543,-1.12969 0.17738,-0.30006 0.50444,-0.76892 0.72682,-1.0419 0.53496,-0.65679 0.67257,-1.95528 0.30127,-2.84393 l -0.2895,-0.69284 -1.65827,-0.0546 c -1.59301,-0.0523 -1.66781,-0.0744 -1.90149,-0.56316 -0.35567,-0.74382 -0.13216,-1.30366 0.96003,-2.40435 1.88208,-1.89672 2.07418,-2.03556 3.11373,-2.25012 0.55565,-0.11464 1.24196,-0.37335 1.52511,-0.57501 0.61393,-0.43715 1.99883,-0.77917 2.43675,-0.60179 1.06155,0.43003 3.34959,2.54494 3.50147,3.23663 0.2814,1.28112 -0.87408,4.5462 -2.06429,5.83338 -0.23945,0.25887 -0.58358,0.76727 -0.76492,1.12968 -0.18125,0.3625 -0.60572,0.96726 -0.94335,1.34402 -0.58585,0.65383 -0.61999,0.77666 -0.75147,2.70486 -0.17389,2.55146 0.10178,4.37762 0.83804,5.55153 0.29301,0.4672 0.59087,1.10359 0.66188,1.41427 0.11479,0.50172 0.67022,1.20661 1.73753,2.20504 1.35457,1.26715 2.02343,1.84308 2.14041,1.84308 0.0744,0 0.47251,0.327 0.88425,0.72659 0.61075,0.59269 1.00527,0.7854 2.14094,1.04555 2.3762,0.5445 2.94104,0.55041 5.01681,0.0523 1.59953,-0.38368 2.05642,-0.57706 2.66753,-1.12923 0.40568,-0.36653 0.95572,-0.80929 1.2224,-0.98402 0.26675,-0.17472 0.57455,-0.62607 0.68403,-1.00297 0.32183,-1.10777 0.15985,-17.65576 -0.18011,-18.40261 -0.23702,-0.52045 -0.22686,-0.67993 0.0944,-1.48065 0.44731,-1.11504 2.02129,-2.48098 3.05188,-2.64857 0.38344,-0.0622 1.07856,-0.18694 1.54454,-0.27677 1.02142,-0.19695 1.67661,0.0592 2.02812,0.79237 0.13361,0.27867 0.32305,1.63359 0.42106,3.01085 0.098,1.37724 0.25704,2.9701 0.35341,3.53973 0.0964,0.56953 0.23026,3.62249 0.29755,6.7843 0.0675,3.1619 0.1946,6.51916 0.28291,7.46061 0.14628,1.55956 0.22192,1.79331 0.85133,2.62984 0.98394,1.30789 1.10137,1.36791 2.67679,1.36791 1.57844,0 2.1951,0.27153 2.39115,1.05276 0.19422,0.77385 -0.19113,1.88676 -0.73979,2.13675 -0.26243,0.11957 -0.65255,0.5147 -0.86688,0.87795 -0.2144,0.36334 -0.45642,0.66059 -0.53799,0.66059 -0.0815,0 -0.44239,0.30287 -0.80185,0.67303 -0.4323,0.44505 -0.93371,0.73509 -1.48072,0.85647 -0.45484,0.10103 -1.13333,0.38489 -1.50774,0.63093 -0.85231,0.56015 -2.07812,0.89935 -2.69257,0.7451 -0.84966,-0.21319 -2.47924,-2.25064 -3.4823,-4.35378 -0.50339,-1.05549 -0.62311,-1.17848 -1.26404,-1.29872 -0.50863,-0.0953 -0.84351,-0.0477 -1.18955,0.1685 -0.26486,0.1657 -0.86285,0.50794 -1.32892,0.7605 -0.46598,0.25265 -1.0167,0.64701 -1.22383,0.8766 -0.20712,0.22949 -0.7775,0.62052 -1.26753,0.86906 -0.49004,0.24847 -1.0265,0.6587 -1.1922,0.91157 -0.16569,0.25287 -0.61204,0.56211 -0.99183,0.68729 -0.37987,0.12511 -0.90731,0.38739 -1.17209,0.58282 -0.51106,0.3773 -2.40315,0.89784 -3.19013,0.8778 -0.25893,-0.009 -1.02149,-0.16797 -1.69459,-0.35848 z m 64.61435,0.18435 c -0.55163,-0.098 -1.35652,-0.38496 -1.78874,-0.63782 -0.43215,-0.25279 -1.36996,-0.5527 -2.0839,-0.66643 -1.31207,-0.20894 -1.84831,-0.40499 -2.38651,-0.87241 -0.16259,-0.1412 -0.75565,-0.41744 -1.318,-0.61378 -2.14138,-0.74784 -4.38769,-2.32993 -4.83752,-3.4071 -0.15243,-0.36501 -0.51931,-0.93956 -0.81528,-1.27687 -0.47001,-0.5354 -0.51113,-0.67272 -0.32434,-1.08257 0.1176,-0.25826 0.28329,-0.46948 0.36812,-0.46948 0.0848,0 0.32167,-0.32829 0.52636,-0.72947 1.1919,-2.33622 4.24577,-2.78044 7.43027,-1.08082 0.50733,0.27077 1.02105,0.49231 1.1416,0.49231 0.12055,0 0.46082,0.25225 0.75618,0.56051 0.31114,0.3248 0.94258,0.67841 1.50136,0.84093 0.65035,0.18905 1.09842,0.46166 1.37603,0.83721 0.32032,0.4332 0.65314,0.60589 1.49939,0.7778 0.59823,0.12147 1.62564,0.43367 2.28318,0.69382 1.74111,0.68866 2.40352,0.72387 4.47754,0.23793 1.72078,-0.40309 1.89369,-0.48845 2.83392,-1.39917 0.87863,-0.85102 1.00139,-1.06155 1.00139,-1.71744 0,-0.74267 -0.0258,-0.78766 -1.78876,-3.16432 -0.3169,-0.42722 -0.65975,-0.56408 -2.16521,-0.86445 -0.98386,-0.19627 -2.0945,-0.48533 -2.46816,-0.64239 -0.72089,-0.30293 -2.74743,-0.59237 -5.534,-0.79046 -1.27277,-0.0904 -1.92889,-0.23952 -2.63597,-0.59892 -0.51781,-0.2631 -1.42611,-0.62614 -2.01849,-0.80662 -1.06966,-0.32594 -1.86887,-0.82023 -2.65509,-1.64204 -0.22555,-0.23578 -0.69215,-0.71399 -1.0369,-1.0626 -0.54648,-0.55263 -0.65201,-0.82189 -0.82287,-2.10057 -0.13755,-1.02924 -0.13535,-2.00392 0.008,-3.26796 0.17337,-1.53764 0.27062,-1.85986 0.66446,-2.20118 0.25378,-0.21994 0.59762,-0.66332 0.76415,-0.98531 0.16646,-0.32206 0.55907,-0.71809 0.87256,-0.88015 0.31334,-0.16205 0.66734,-0.50878 0.78653,-0.77044 0.11927,-0.26168 0.47259,-0.60801 0.78508,-0.76961 0.31259,-0.16168 0.72151,-0.48876 0.90884,-0.7269 0.19095,-0.2427 0.78486,-0.56211 1.35175,-0.72689 0.55604,-0.16161 1.49484,-0.54839 2.08616,-0.85945 0.59124,-0.31106 1.21473,-0.56651 1.38544,-0.56772 0.48472,0 3.06174,-0.68092 3.796,-0.99797 0.46212,-0.19947 1.49105,-0.30454 3.41506,-0.34877 l 2.75374,-0.063 0.83569,0.60012 c 0.45962,0.33011 1.05541,0.65528 1.32398,0.72272 0.26857,0.0676 0.74807,0.40803 1.06558,0.75695 0.35263,0.38746 0.88978,0.71695 1.3802,0.84662 0.44154,0.11668 1.05708,0.44336 1.36775,0.7259 0.31069,0.28254 0.7948,0.61113 1.07589,0.73008 0.32267,0.13665 0.69518,0.5798 1.01088,1.20283 l 0.49989,0.98652 -0.39193,0.76225 c -0.21555,0.41924 -0.55885,1.16276 -0.76301,1.65227 -0.31212,0.74852 -0.59701,1.03742 -1.79209,1.81758 -1.5233,0.99441 -2.80562,1.33513 -3.71862,0.98803 -0.53192,-0.20218 -1.71684,-1.19797 -3.86664,-3.24929 -0.74563,-0.7115 -1.46586,-1.29394 -1.60045,-1.29441 -0.13459,0 -0.626,-0.25422 -1.09198,-0.56406 -0.82386,-0.54764 -0.9105,-0.56325 -3.12677,-0.56402 h -2.2794 l -0.87256,0.66628 c -0.90169,0.68851 -1.09979,1.10215 -1.13294,2.36558 -0.0167,0.64049 0.0873,0.83683 0.77772,1.46798 0.43837,0.40073 0.79709,0.82082 0.79709,0.93341 0,0.11259 0.50809,0.53495 1.12914,0.9385 0.97142,0.63114 1.36762,0.76423 2.83687,0.95268 0.93927,0.12047 2.35807,0.43131 3.15296,0.69071 0.8363,0.27305 2.50502,0.58927 3.96109,0.75071 2.06097,0.22852 2.7082,0.37753 3.57887,0.82401 0.58457,0.29975 1.35942,0.68038 1.72183,0.84572 0.36244,0.16538 1.00687,0.57514 1.43203,0.91065 0.42516,0.3354 0.91299,0.69456 1.08409,0.79813 0.33139,0.20059 1.62616,3.15067 1.62616,3.70511 0,0.18163 -0.12489,0.60847 -0.2776,0.94858 -0.15265,0.34005 -0.37115,0.99092 -0.48542,1.44629 -0.17039,0.67857 -0.51908,1.12869 -1.93282,2.49478 -0.94865,0.91673 -1.82874,1.66676 -1.95566,1.66676 -0.12693,0 -0.52076,0.25462 -0.87515,0.56576 -0.3543,0.31112 -1.01003,0.69472 -1.45713,0.85245 -0.44709,0.15781 -1.08234,0.581 -1.41168,0.94061 -0.32935,0.35955 -0.77006,0.65377 -0.97931,0.65377 -0.20918,0 -0.73532,0.29649 -1.16921,0.65899 -0.43382,0.36243 -0.93652,0.65899 -1.11717,0.65899 -0.18063,0 -1.37997,0.33914 -2.66518,0.75369 -2.52886,0.81565 -4.17899,1.02703 -5.78749,0.74131 z m 105.69399,-0.009 c -0.84039,-0.1135 -1.55241,-0.33883 -1.97706,-0.6257 -0.36493,-0.24656 -1.12959,-0.58062 -1.69915,-0.74221 -0.6011,-0.17056 -1.13384,-0.45302 -1.26973,-0.67319 -0.12883,-0.20856 -0.55825,-0.5445 -0.95427,-0.74662 -0.82416,-0.42039 -2.10657,-1.75825 -2.10657,-2.19761 0,-0.16266 -0.3329,-0.5945 -0.73979,-0.95981 -0.55013,-0.49382 -0.7728,-0.86444 -0.86848,-1.44544 -0.0706,-0.42972 -0.34459,-1.28962 -0.60847,-1.91098 -0.41833,-0.98493 -0.49109,-1.47595 -0.56794,-3.8313 -0.081,-2.48484 -0.0562,-2.75773 0.3056,-3.40201 0.34125,-0.60725 0.36515,-0.79336 0.17965,-1.39788 -0.17639,-0.57477 -0.15925,-0.8121 0.0977,-1.35084 0.19506,-0.40908 0.39102,-1.62245 0.52388,-3.24368 0.11675,-1.42466 0.42159,-3.73402 0.67742,-5.13205 0.52729,-2.88157 0.85998,-5.85652 0.87848,-7.85551 0.01,-1.0969 -0.0637,-1.46259 -0.38109,-1.89209 -0.21645,-0.29277 -0.60718,-0.95184 -0.86823,-1.46456 -0.26107,-0.51272 -0.69465,-1.18644 -0.96361,-1.49712 -0.26887,-0.31067 -0.48898,-0.69313 -0.48913,-0.85003 0,-0.4895 1.384,-2.21688 1.97676,-2.46641 0.31067,-0.13087 0.83205,-0.43753 1.15867,-0.68152 0.32646,-0.244 1.00973,-0.50946 1.5182,-0.5898 1.20207,-0.19005 3.48404,0.0447 3.67894,0.37865 0.0819,0.14036 0.50339,0.84829 0.93652,1.57313 l 0.78744,1.31799 0.0212,4.14228 c 0.0152,2.90015 -0.0493,4.3399 -0.21508,4.80126 -0.13019,0.36242 -0.33216,1.41715 -0.44893,2.34388 -0.11675,0.92667 -0.25369,1.75189 -0.3043,1.83383 -0.13944,0.22563 -0.51673,6.16978 -0.54754,8.62564 -0.0471,3.72765 0.21047,7.81431 0.52903,8.40874 0.15758,0.29414 0.50908,0.95845 0.78114,1.47625 0.52577,1.00056 2.79773,3.30278 3.76407,3.81407 0.41667,0.22047 1.25092,0.32882 2.97708,0.38654 3.25279,0.10873 4.66205,-0.0599 5.55183,-0.6646 0.39103,-0.26577 1.05784,-0.60164 1.48172,-0.74633 0.42388,-0.14475 1.05472,-0.55626 1.40198,-0.91443 0.71187,-0.73449 1.28316,-0.8253 1.77471,-0.28209 0.27585,0.30477 0.31114,0.5543 0.20196,1.42792 -0.12291,0.98409 -0.22494,1.15617 -1.44909,2.44487 -0.94243,0.99213 -1.56699,1.47822 -2.19677,1.7097 -0.48404,0.17791 -1.09182,0.51697 -1.35076,0.75338 -0.25886,0.23648 -0.97908,0.56134 -1.60045,0.72188 -0.62128,0.16062 -1.55333,0.45688 -2.07114,0.65847 -1.87228,0.72871 -5.20564,1.05882 -7.52669,0.74533 z m 30.6858,0.11168 c -0.1035,-0.0357 -0.84359,-0.12101 -1.64453,-0.18914 -1.09418,-0.0931 -1.6248,-0.2383 -2.13463,-0.58434 -0.37327,-0.25325 -1.11595,-0.55338 -1.6506,-0.66689 -0.69722,-0.14817 -1.16755,-0.39937 -1.66418,-0.88888 -0.38064,-0.37524 -1.1639,-1.10592 -1.7405,-1.62373 -0.5766,-0.5178 -1.21359,-1.30152 -1.4154,-1.74164 -0.20197,-0.44011 -0.44739,-0.80019 -0.5455,-0.80019 -0.26492,0 -0.72022,-1.26882 -0.87832,-2.44775 -0.0764,-0.56954 -0.2487,-1.33209 -0.38284,-1.69452 -0.45134,-1.21958 -0.48852,-3.64548 -0.0906,-5.91312 0.20167,-1.14895 0.45628,-3.48698 0.5659,-5.1957 0.23012,-3.58896 0.25273,-3.73547 0.88555,-5.74273 0.42547,-1.34962 0.48525,-1.91992 0.57455,-5.48544 0.0546,-2.1885 0.0477,-4.18673 -0.016,-4.44051 -0.0637,-0.2537 -0.37456,-0.78699 -0.69086,-1.18499 -0.31629,-0.39801 -0.73972,-1.06869 -0.94099,-1.49044 -0.20121,-0.42175 -0.46227,-0.89729 -0.58002,-1.05677 -0.16844,-0.22798 -0.11244,-0.44937 0.2616,-1.0356 0.58411,-0.91544 0.90601,-1.23788 2.10838,-2.11196 0.89745,-0.65232 1.03379,-0.69033 2.91844,-0.81247 2.14518,-0.13908 2.72633,-0.0265 2.91364,0.5634 0.0668,0.21068 0.40705,0.72476 0.75596,1.14242 0.82394,0.98622 0.91043,1.7138 0.78486,6.60368 -0.11948,4.65552 -0.35255,7.42343 -0.752,8.93215 -0.51682,1.9518 -0.69723,4.47951 -0.70293,9.84516 l -0.009,5.19806 0.5647,1.13947 c 0.3106,0.62675 0.68935,1.4516 0.84168,1.83306 0.16062,0.40203 0.50537,0.81164 0.82006,0.97438 0.29871,0.15446 0.64086,0.4955 0.76043,0.758 0.11957,0.26243 0.53852,0.65042 0.93107,0.86217 0.39246,0.21183 0.95275,0.57531 1.24516,0.80792 0.50574,0.40226 0.69351,0.42281 3.8598,0.42281 h 3.32828 l 1.45691,-0.7061 c 0.80132,-0.38829 1.54605,-0.70603 1.655,-0.70603 0.10886,0 0.53023,-0.33891 0.93621,-0.75314 0.79965,-0.81583 1.19281,-0.91407 1.84094,-0.46007 0.54785,0.38374 0.53579,1.18491 -0.0379,2.5312 -0.28412,0.66651 -0.66726,1.19106 -1.07506,1.47192 -0.34853,0.24006 -0.87164,0.67971 -1.1626,0.97711 -0.29096,0.29734 -0.94107,0.67758 -1.44468,0.84488 -0.5037,0.16728 -1.02203,0.43214 -1.15192,0.58866 -0.36766,0.44299 -1.11914,0.76317 -2.14056,0.91193 -0.51461,0.0751 -1.32997,0.33619 -1.81204,0.58049 -1.08674,0.55065 -4.52662,1.02877 -5.34866,0.74328 z m 102.99178,-0.0815 c -0.8284,-0.0813 -2.14168,-0.38049 -2.91835,-0.66499 -0.77667,-0.28451 -1.96287,-0.63972 -2.63605,-0.78941 -0.80937,-0.18004 -1.41511,-0.44808 -1.78868,-0.79169 -0.31068,-0.28573 -0.80451,-0.6213 -1.09738,-0.74564 -1.38717,-0.58912 -5.0809,-4.63974 -5.29432,-5.80599 -0.0729,-0.39725 -0.3449,-1.08856 -0.60482,-1.53626 -0.46075,-0.79337 -0.47099,-0.89085 -0.40666,-3.85981 0.0592,-2.71617 0.11084,-3.1258 0.47995,-3.78364 0.22759,-0.40575 0.50497,-1.17688 0.61642,-1.71364 0.13808,-0.66485 0.38116,-1.14698 0.76294,-1.51275 0.30817,-0.2952 0.65255,-0.87924 0.76528,-1.29781 0.11266,-0.41864 0.49262,-1.07953 0.84427,-1.46874 0.35165,-0.3892 0.63934,-0.79487 0.63934,-0.90139 0,-0.29734 4.76659,-5.00095 5.39972,-5.32833 0.30727,-0.15887 0.67622,-0.43055 0.81983,-0.60361 0.1437,-0.17305 0.68821,-0.50452 1.21018,-0.7366 0.52191,-0.232 1.26139,-0.6351 1.64325,-0.8957 0.85063,-0.58063 1.91013,-0.74193 5.33082,-0.81172 3.28921,-0.0667 5.72436,0.27221 6.56733,0.9152 0.32593,0.24854 1.03979,0.64426 1.58649,0.87947 0.54663,0.23518 1.09623,0.57159 1.22133,0.74761 0.12503,0.176 0.58745,0.54639 1.02756,0.82302 0.44012,0.27669 0.80019,0.58806 0.80019,0.692 0,0.10393 0.28595,0.32532 0.6354,0.492 0.36379,0.17344 0.76309,0.57061 0.93402,0.92916 0.16417,0.34437 0.51318,0.76674 0.77537,0.93857 0.27966,0.18322 0.56986,0.63471 0.70164,1.09182 0.12366,0.42874 0.49641,1.08735 0.82841,1.46366 0.3845,0.43586 0.65216,0.9825 0.73751,1.50629 0.0736,0.45211 0.39969,1.41517 0.72448,2.14003 0.57682,1.28756 0.59191,1.39371 0.65535,4.59255 0.0762,3.84479 0.0167,4.27087 -0.72493,5.20435 -0.30802,0.38761 -0.56005,0.85452 -0.56005,1.03759 0,0.18306 -0.30266,0.6951 -0.67258,1.13779 -0.36987,0.44269 -0.83669,1.1268 -1.03735,1.52026 -0.20076,0.39338 -0.59709,0.83653 -0.88084,0.98469 -0.28383,0.14826 -0.77014,0.53905 -1.08082,0.86848 -0.31069,0.32942 -0.90375,0.7728 -1.31799,0.9853 -0.41425,0.21251 -0.86893,0.55096 -1.01042,0.75202 -0.14157,0.20104 -0.60755,0.52606 -1.03561,0.72233 -0.42804,0.1962 -0.99971,0.53579 -1.27041,0.7546 -0.27062,0.21886 -1.07559,0.51886 -1.78869,0.66665 -0.71308,0.14778 -1.55074,0.45582 -1.86143,0.68441 -0.84259,0.61992 -4.88479,0.99585 -7.7197,0.71787 z m 9.73341,-6.01494 c 0.2408,-0.0916 1.16496,-0.87583 2.05368,-1.74285 l 1.61592,-1.57632 0.13179,-2.08313 c 0.17192,-2.71616 -0.13185,-5.35858 -0.736,-6.40254 -0.24452,-0.42258 -0.54731,-1.18515 -0.67288,-1.6946 -0.25104,-1.01877 -0.81855,-1.80294 -2.52338,-3.48684 -2.01522,-1.99041 -2.2354,-2.15618 -4.04813,-3.04756 l -1.78867,-0.87963 -3.29496,-0.0508 c -2.46422,-0.0379 -3.4493,0.0144 -3.90694,0.20711 -0.33654,0.14202 -0.61196,0.32351 -0.61196,0.40332 0,0.0796 -0.36826,0.55664 -0.8183,1.05973 -0.97409,1.08879 -1.16072,1.42685 -1.33621,2.42103 -0.0728,0.41417 -0.35946,1.13439 -0.63632,1.60038 -0.49617,0.83516 -0.50269,0.89047 -0.4546,3.85988 0.0432,2.69228 0.0889,3.06259 0.42699,3.48328 0.20796,0.25886 0.54376,0.83259 0.74609,1.27491 0.20235,0.4423 0.50142,0.85549 0.66469,0.91807 0.1632,0.0629 0.57813,0.55369 0.92196,1.09123 0.37699,0.58926 1.02733,1.24652 1.63807,1.6553 0.5571,0.37296 1.15837,0.85215 1.3362,1.06496 0.17776,0.21281 0.559,0.44375 0.84722,0.51326 0.28822,0.0697 1.03242,0.38191 1.6538,0.69427 0.65292,0.3282 1.60643,0.6237 2.25943,0.70026 1.67972,0.19689 6.02995,0.20856 6.53251,0.0175 z m 156.97127,5.99255 c -0.37433,-0.0886 -1.07073,-0.36856 -1.54756,-0.62204 -0.47684,-0.25356 -1.45865,-0.56075 -2.18191,-0.68274 -0.85018,-0.14347 -1.60235,-0.41219 -2.12834,-0.76058 -0.4474,-0.29635 -1.18044,-0.62129 -1.62912,-0.72213 -0.44862,-0.1007 -1.12453,-0.43108 -1.50189,-0.73402 -0.37745,-0.30287 -1.00785,-0.65665 -1.40092,-0.78616 -0.45847,-0.15097 -0.88243,-0.48228 -1.18226,-0.924 -0.25711,-0.37873 -0.67933,-0.98014 -0.9382,-1.33642 -0.25886,-0.35627 -0.52068,-0.84692 -0.58175,-1.09023 -0.20188,-0.80459 0.29642,-1.98101 1.2975,-3.0632 l 0.95799,-1.03559 h 2.12022 c 1.92069,0 2.17031,0.0402 2.65192,0.42637 0.55543,0.44551 0.85792,0.60293 1.93343,1.00671 0.35681,0.13398 0.90755,0.46848 1.22392,0.74336 0.31629,0.27494 0.91398,0.60884 1.32815,0.742 0.41424,0.13322 1.0271,0.48039 1.36198,0.77157 0.33482,0.29118 0.97029,0.62986 1.41216,0.75263 0.44177,0.12274 1.39643,0.43138 2.12128,0.68584 0.95449,0.33504 1.75947,0.47053 2.91844,0.49141 1.50159,0.0273 1.68951,-0.0152 3.04354,-0.68571 1.56828,-0.77644 1.58921,-0.79488 2.23204,-1.96439 l 0.43746,-0.79594 -0.53972,-0.99273 c -0.29687,-0.54603 -0.92787,-1.38742 -1.40221,-1.86978 -0.72386,-0.73616 -1.03287,-0.90853 -1.92357,-1.07317 -0.58365,-0.10796 -1.38543,-0.33169 -1.7817,-0.49724 -0.39626,-0.16555 -0.90169,-0.25561 -1.12322,-0.19999 -0.22155,0.0553 -0.89246,-0.0676 -1.49091,-0.27327 -0.67013,-0.23056 -1.58093,-0.37435 -2.37126,-0.37435 -1.5365,0 -4.02855,-0.50392 -4.68299,-0.94691 -0.25886,-0.17525 -0.92795,-0.42661 -1.4868,-0.55854 -0.64002,-0.15113 -1.26716,-0.46432 -1.69452,-0.84631 -0.3732,-0.33352 -0.85997,-0.70148 -1.08181,-0.81764 -0.22176,-0.11616 -0.71316,-0.82113 -1.09183,-1.56661 -0.56681,-1.11572 -0.71642,-1.65713 -0.846,-3.06145 -0.16934,-1.83503 -0.0883,-2.26498 0.53161,-2.82344 0.21941,-0.19765 0.49003,-0.69754 0.60134,-1.11088 0.1213,-0.45065 0.5354,-1.09409 1.03469,-1.60788 0.45786,-0.47099 0.8325,-0.9174 0.8325,-0.99198 0,-0.0744 0.31766,-0.3282 0.70604,-0.56362 0.38837,-0.23535 1.02876,-0.69951 1.42313,-1.03129 0.39445,-0.33185 1.11459,-0.7033 1.60046,-0.82538 0.48585,-0.12213 1.15804,-0.43131 1.49392,-0.68714 0.40408,-0.30779 1.10458,-0.55216 2.07114,-0.72249 0.8033,-0.14158 1.92653,-0.44966 2.49607,-0.68472 0.89115,-0.36772 1.4585,-0.43829 4.06732,-0.50596 l 3.03163,-0.0787 0.63987,0.55672 c 0.35196,0.30621 0.95974,0.66082 1.35077,0.78813 0.39094,0.12722 0.94236,0.42622 1.22543,0.66437 0.28298,0.23815 0.84601,0.57145 1.25106,0.74071 0.40499,0.16927 0.85846,0.48191 1.00762,0.69488 0.14916,0.21297 0.76331,0.60065 1.36472,0.86148 1.30888,0.56765 1.58884,1.07066 1.46009,2.62301 -0.0721,0.86574 -0.18761,1.14683 -0.65141,1.58026 -0.31022,0.2899 -0.67173,0.78721 -0.80344,1.10504 -0.13163,0.3178 -0.39779,0.62811 -0.5914,0.68955 -0.19361,0.0614 -0.68866,0.39293 -1.10002,0.73662 -0.86816,0.72538 -1.99201,0.96612 -3.22077,0.69002 -0.66058,-0.1484 -1.06922,-0.44846 -2.14731,-1.57662 -0.73228,-0.76628 -1.4189,-1.42845 -1.52564,-1.47147 -0.10694,-0.0432 -0.38609,-0.35142 -0.62061,-0.6854 -0.2685,-0.38253 -0.68402,-0.67712 -1.12284,-0.79608 -0.38314,-0.10393 -1.0099,-0.40257 -1.39273,-0.6637 -0.63995,-0.43655 -0.86278,-0.47487 -2.76653,-0.47487 h -2.07047 l -1.18741,0.90982 c -1.51169,1.15828 -1.57883,1.52307 -0.61212,3.32661 0.62046,1.15752 0.85483,1.40622 1.92495,2.04238 1.02445,0.60899 1.55674,0.77864 3.34314,1.06541 1.1686,0.18755 2.74667,0.55271 3.5068,0.81142 0.87795,0.29885 2.13782,0.53321 3.45414,0.64269 1.89482,0.1575 2.24115,0.24968 4.04637,1.07718 2.12599,0.97453 3.14878,1.74354 4.23597,3.18503 0.82417,1.09273 0.93751,1.65667 0.76036,3.78296 -0.13239,1.58914 -0.14748,1.62732 -1.08447,2.7353 -0.52258,0.61793 -1.10631,1.17314 -1.29704,1.23368 -0.19082,0.0607 -0.49346,0.35819 -0.67258,0.66144 -0.21964,0.37175 -0.61287,0.64677 -1.20752,0.84426 -0.48496,0.16106 -1.18325,0.58562 -1.55167,0.94342 -0.3685,0.35788 -0.82878,0.65065 -1.02302,0.65065 -0.19414,0 -0.55846,0.22328 -0.80951,0.49626 -0.25105,0.27297 -0.83774,0.66612 -1.30373,0.87377 -0.46605,0.20757 -1.11578,0.61113 -1.444,0.8967 -0.35172,0.30612 -0.93144,0.57152 -1.41213,0.64662 -0.44848,0.0698 -1.23909,0.32282 -1.75689,0.56174 -0.89495,0.41294 -4.36192,1.07763 -5.36612,1.02878 -0.25886,-0.0121 -0.77697,-0.0953 -1.1513,-0.18407 z m 35.984,0.0129 c -0.36243,-0.0892 -1.37534,-0.41644 -2.25087,-0.72712 -0.8756,-0.31077 -2.08691,-0.62243 -2.69182,-0.69261 -0.74699,-0.0867 -1.26989,-0.2707 -1.6298,-0.57356 -0.6307,-0.53071 -1.36806,-0.83304 -2.03153,-0.83304 -0.3081,0 -0.70786,-0.23815 -1.10283,-0.65694 -0.34073,-0.36129 -1.02854,-0.80839 -1.52853,-0.99343 -0.74965,-0.27761 -0.99342,-0.49239 -1.3909,-1.22536 -0.26508,-0.48873 -0.7099,-1.12665 -0.98848,-1.41744 -0.78069,-0.81483 -0.6678,-1.34857 0.62136,-2.9387 1.2937,-1.59559 1.71933,-1.80582 3.65558,-1.80582 1.57169,0 2.37089,0.19945 3.29633,0.82271 0.37145,0.25015 0.98068,0.55113 1.35379,0.66879 0.37313,0.11767 0.88138,0.43002 1.12946,0.69412 0.2481,0.26409 0.84761,0.65073 1.33225,0.8593 0.48465,0.20841 1.02826,0.54146 1.20791,0.74 0.17974,0.19863 0.7577,0.49263 1.28438,0.65339 0.52669,0.16085 1.67775,0.51438 2.55798,0.78578 2.36535,0.72924 4.04546,0.70474 5.64857,-0.0822 1.36237,-0.66885 1.56555,-0.82029 2.3077,-1.72009 0.61946,-0.75118 0.66566,-1.5343 0.11941,-2.02751 -0.2185,-0.19727 -0.69988,-0.8143 -1.06976,-1.3711 -0.74259,-1.11785 -1.26934,-1.41594 -2.86364,-1.62063 -0.56956,-0.0729 -1.40411,-0.3452 -1.85461,-0.60467 -0.71521,-0.41204 -1.22164,-0.5043 -3.99668,-0.72819 -1.84398,-0.14869 -3.39679,-0.3669 -3.69973,-0.51977 -0.28725,-0.1449 -1.28476,-0.50036 -2.21673,-0.78987 -1.2004,-0.37281 -1.86455,-0.69617 -2.27735,-1.10867 -0.32054,-0.32031 -0.94046,-0.81854 -1.37769,-1.1073 -1.2246,-0.80868 -1.41609,-1.43505 -1.42277,-4.65286 -0.009,-2.14626 0.0607,-2.8711 0.30325,-3.38912 0.40552,-0.86521 2.67671,-3.31774 3.43002,-3.70384 0.32525,-0.16675 0.82173,-0.49534 1.10328,-0.7303 0.28161,-0.23497 0.95943,-0.57251 1.50629,-0.7502 0.54686,-0.17767 1.16383,-0.4763 1.37095,-0.66355 0.46628,-0.4216 1.28718,-0.74214 1.90058,-0.74214 0.25514,0 1.24515,-0.26296 2.20003,-0.58434 1.53058,-0.51522 2.0628,-0.59618 4.49393,-0.68395 l 2.75775,-0.0996 1.00799,0.56742 c 0.55436,0.31212 1.32436,0.66841 1.71105,0.79177 0.38671,0.12335 0.86392,0.42873 1.06042,0.67856 0.19658,0.24984 0.76976,0.63047 1.27392,0.84578 0.50406,0.21532 1.12831,0.58708 1.38724,0.82622 0.25887,0.23914 0.72486,0.55254 1.03554,0.69647 0.73327,0.33981 1.10988,1.4101 0.94547,2.68681 -0.15962,1.23938 -0.46485,1.77419 -1.54294,2.70297 -0.49982,0.43063 -1.16641,1.03902 -1.48119,1.35205 -0.71361,0.70952 -1.43732,0.86195 -2.7748,0.58427 -0.97962,-0.20334 -1.16884,-0.34278 -3.08459,-2.27311 -1.25016,-1.25957 -2.23926,-2.10011 -2.55259,-2.16908 -0.28133,-0.0622 -0.83032,-0.32889 -1.2199,-0.59321 -1.46297,-0.99282 -4.59035,-0.9432 -6.10916,0.0968 -1.01953,0.69823 -1.10291,0.86355 -1.10291,2.18723 0,1.42792 0.67235,2.28705 3.10667,3.96974 0.20713,0.14316 1.16686,0.35636 2.13275,0.47365 0.96587,0.11737 2.06733,0.34649 2.44766,0.50923 0.38041,0.16273 1.4965,0.40809 2.48029,0.54527 0.98379,0.13724 2.40625,0.33426 3.161,0.43799 0.84919,0.1166 1.68231,0.37016 2.18553,0.66505 0.44733,0.26213 1.25366,0.60742 1.79187,0.76719 0.53821,0.15986 1.14107,0.45309 1.3397,0.65171 0.19853,0.19854 0.7658,0.64504 1.26054,0.99213 0.63935,0.44854 0.97142,0.8448 1.14828,1.37019 0.30764,0.91407 0.33761,4.66986 0.0432,5.43051 -0.34528,0.89245 -2.78331,3.11312 -4.05822,3.69648 -0.62159,0.28443 -1.28703,0.69048 -1.47875,0.9023 -0.19172,0.21182 -0.59495,0.43928 -0.89608,0.50543 -0.30369,0.0667 -0.76058,0.39953 -1.02582,0.7474 -0.35514,0.46544 -0.72127,0.68538 -1.42101,0.8532 -0.51841,0.12443 -1.20222,0.44467 -1.51958,0.71165 -1.61341,1.35759 -6.51566,2.58325 -8.4387,2.10976 z m -379.12024,-0.12946 c -0.21189,-0.0426 -0.63554,-0.29209 -0.94144,-0.55558 -0.30591,-0.2635 -0.82591,-0.59208 -1.15563,-0.73023 -0.34005,-0.14249 -0.73873,-0.52244 -0.92134,-0.87796 -0.17708,-0.34475 -0.5131,-0.80549 -0.74678,-1.024 -0.25918,-0.24225 -0.51181,-0.81596 -0.64785,-1.47093 -0.1226,-0.59056 -0.39125,-1.45441 -0.59701,-1.91955 -0.32244,-0.72895 -0.35696,-1.0847 -0.24983,-2.57711 0.15082,-2.10156 0.63821,-3.52743 1.56183,-4.56933 2.15786,-2.43395 2.56618,-2.91222 2.71754,-3.18262 0.0916,-0.1638 0.62705,-0.55763 1.18976,-0.87522 0.5628,-0.31757 1.02324,-0.63796 1.02324,-0.71194 0,-0.0736 0.37426,-0.57296 0.83167,-1.10883 0.95511,-1.1189 1.15676,-1.77168 0.87295,-2.82564 -0.37275,-1.38415 -2.83005,-3.04992 -4.49939,-3.04992 -0.26151,0 -0.84692,-0.17981 -1.30099,-0.39967 -0.58927,-0.28526 -1.03758,-0.37115 -1.56676,-0.30014 -0.98265,0.13179 -1.52026,-0.28996 -1.54643,-1.21314 -0.0152,-0.54033 0.14135,-0.8605 0.77963,-1.59392 1.01618,-1.16754 2.6164,-2.51822 2.98346,-2.51822 0.15529,0 0.77688,-0.30523 1.38117,-0.6782 1.07711,-0.6649 1.13144,-0.67689 2.75851,-0.61195 1.51108,0.0607 1.80074,0.13747 3.23359,0.86141 0.86567,0.43731 1.96712,1.13902 2.44775,1.55932 0.48056,0.42032 1.17035,1.01756 1.53278,1.3271 1.20608,1.03021 1.56327,1.41435 3.43593,3.69511 0.44027,0.53624 1.10571,1.34119 1.47876,1.78874 0.37304,0.44748 0.86049,1.17097 1.08324,1.60758 0.22276,0.4367 0.57395,0.88432 0.78039,0.99479 0.20643,0.11047 0.54147,0.52653 0.7445,0.92454 0.20302,0.39801 0.49967,0.7737 0.65914,0.83485 0.15948,0.0614 0.51568,0.58798 0.79155,1.1705 0.27577,0.58259 0.61271,1.10191 0.74867,1.15404 0.13594,0.0523 0.50277,0.51029 0.81512,1.01809 0.31243,0.5077 0.64663,0.92308 0.74276,0.92308 0.0961,0 0.36963,0.31774 0.60785,0.70611 0.2383,0.3883 0.69002,0.97006 1.0039,1.29273 0.31378,0.32266 0.94965,1.06587 1.41297,1.65158 1.1152,1.40986 1.7389,1.59438 3.9589,1.1711 2.003,-0.38191 2.13123,-0.37979 2.51269,0.0417 0.45605,0.50399 0.38602,0.8875 -0.30666,1.6792 -0.34005,0.38868 -0.83737,1.00321 -1.10511,1.36562 -0.72226,0.97781 -3.32941,3.55582 -4.52972,4.47914 -1.12908,0.86854 -1.90408,1.16943 -3.01244,1.16943 -0.55012,0 -0.8429,-0.14186 -1.36002,-0.65898 -0.3625,-0.36251 -0.74996,-0.65899 -0.86103,-0.65899 -0.11115,0 -0.52744,-0.31774 -0.92522,-0.70611 -0.75436,-0.73646 -2.1055,-1.89459 -2.51019,-2.15156 -0.65519,-0.416 -2.36869,-0.0265 -2.94681,0.67029 -0.13019,0.1569 -0.54768,0.38435 -0.92772,0.50543 -0.38003,0.12117 -0.94517,0.45917 -1.25585,0.75118 -0.31068,0.29194 -0.96376,0.70103 -1.45128,0.90898 -0.48762,0.20796 -0.99594,0.55536 -1.12977,0.77189 -0.1443,0.2336 -0.66446,0.51605 -1.27876,0.69443 -0.56963,0.16532 -1.49234,0.54336 -2.05058,0.8401 -0.88113,0.4684 -1.20395,0.53624 -2.44774,0.51392 -0.78798,-0.0144 -1.60607,-0.0599 -1.8179,-0.10221 z m 6.08831,-6.62863 c 0.3842,-0.19506 1.16481,-0.4509 1.73458,-0.56848 0.82074,-0.16935 1.24121,-0.40249 2.02401,-1.1221 1.09844,-1.00989 1.13182,-1.1466 0.77706,-3.1839 -0.18383,-1.05549 -0.28709,-1.25684 -0.8002,-1.55986 -0.32402,-0.19134 -0.74805,-0.62729 -0.94235,-0.96869 -0.19423,-0.34148 -0.73479,-0.95974 -1.20123,-1.37398 -0.77553,-0.68873 -0.93856,-0.75315 -1.90627,-0.75315 -0.99092,0 -1.14189,0.0645 -2.37613,1.01308 -0.72492,0.55717 -1.38157,1.1079 -1.45926,1.22384 -0.69427,1.03591 -0.50254,3.5671 0.36857,4.86651 0.29658,0.44247 0.62736,0.974 0.73494,1.18112 0.10766,0.20712 0.44353,0.50437 0.7464,0.66058 0.30294,0.1563 0.76028,0.43162 1.01633,0.61197 0.56484,0.39785 0.44217,0.40042 1.28355,-0.0266 z m 207.71276,5.98687 c -0.56673,-0.42328 -1.19993,-1.09016 -1.40706,-1.48194 -0.20711,-0.3918 -0.52804,-0.97947 -0.71316,-1.30594 -0.31235,-0.55072 -0.3367,-1.36889 -0.33829,-11.36845 0,-6.52362 -0.0751,-11.05374 -0.18854,-11.48149 -0.26372,-0.99675 -0.86884,-1.34415 -2.10429,-1.20797 -2.02281,0.22298 -4.09136,0.80724 -4.61865,1.30448 -0.61036,0.57555 -1.66478,0.89002 -2.9893,0.89145 -1.19977,0 -1.56872,-0.13057 -1.56872,-0.56059 0,-0.64883 0.90753,-2.3627 1.46889,-2.77398 0.31947,-0.23397 0.62477,-0.66892 0.69548,-0.99062 0.0736,-0.33578 0.60732,-1.07254 1.28726,-1.77736 0.8923,-0.925 1.35767,-1.25517 2.00862,-1.42535 0.46599,-0.12177 1.05169,-0.35255 1.30152,-0.51287 0.39604,-0.25415 1.67017,-0.28815 9.95343,-0.26562 6.4923,0.0175 9.74584,-0.0411 10.27806,-0.18482 0.42836,-0.11576 1.65499,-0.36598 2.72588,-0.55595 1.07097,-0.1899 2.1483,-0.47706 2.39403,-0.63813 1.17992,-0.77311 1.70514,0.019 1.20556,1.81757 -0.25667,0.924 -1.89512,2.69341 -3.02374,3.26531 -0.49543,0.25105 -1.10162,0.65733 -1.34712,0.90284 -0.28042,0.28049 -0.78456,0.49716 -1.35585,0.58282 -0.50029,0.0751 -1.38666,0.38647 -1.96978,0.69215 -0.89274,0.46796 -1.39772,0.58328 -3.19422,0.72925 -3.52561,0.28655 -3.64169,0.46288 -3.78197,5.74454 -0.12616,4.75188 -0.0843,12.55943 0.0706,13.17708 0.22297,0.88857 0.72742,1.02141 3.08108,0.81148 2.31233,-0.2062 2.67908,-0.10955 2.67908,0.70626 0,0.23823 -0.20021,0.67265 -0.44496,0.96542 -0.24476,0.29271 -0.61925,0.87114 -0.83214,1.28538 -0.46081,0.8963 -2.38235,2.62634 -3.37971,3.04286 -0.39012,0.16289 -0.98759,0.54048 -1.32778,0.83903 -0.56765,0.49823 -0.7382,0.54277 -2.07614,0.54277 -1.41229,0 -1.4899,-0.0243 -2.48826,-0.76961 z m 83.43659,0.36052 c -1.05517,-0.52235 -2.9723,-2.41012 -3.33912,-3.28807 -0.15537,-0.37176 -0.50294,-1.0092 -0.77243,-1.41639 -0.40785,-0.61628 -0.51567,-1.06262 -0.64321,-2.66177 -0.0903,-1.1328 -0.0778,-2.53666 0.0304,-3.42069 0.16585,-1.35455 0.24726,-1.56115 0.84282,-2.13971 0.36265,-0.35212 0.6593,-0.71431 0.6593,-0.80467 0,-0.22798 3.53881,-3.74662 3.76808,-3.74662 0.25454,0 2.44532,-2.20906 2.44532,-2.46572 0,-0.11351 0.18315,-0.46356 0.40704,-0.77796 0.32358,-0.45437 0.36235,-0.63411 0.18936,-0.87635 -0.11972,-0.1676 -0.39542,-0.66158 -0.6127,-1.09775 -0.21722,-0.43617 -0.56105,-0.8457 -0.76401,-0.91011 -0.20301,-0.0645 -0.6247,-0.39809 -0.9372,-0.74147 -0.59041,-0.6489 -1.28393,-0.84829 -3.93105,-1.13067 -1.3758,-0.14673 -2.26186,-0.43556 -2.77724,-0.90541 -0.54748,-0.49915 -0.53518,-0.89829 0.0471,-1.52664 0.25887,-0.27935 0.47069,-0.59799 0.47069,-0.70815 0,-0.31811 2.25944,-2.37551 2.74173,-2.49653 0.24007,-0.0599 0.87614,-0.38284 1.41351,-0.71688 0.90694,-0.56378 1.11777,-0.61256 2.9434,-0.68008 l 1.96644,-0.0729 0.98856,0.68083 c 0.54376,0.3745 1.12377,0.68094 1.28893,0.68094 0.3773,0 2.20892,1.54937 2.58887,2.18994 0.15621,0.26349 0.59702,0.64032 0.97938,0.83744 0.38246,0.1971 1.01794,0.75587 1.41214,1.24173 0.3943,0.48587 0.92864,1.09873 1.18758,1.36192 0.25886,0.26326 0.61561,0.69261 0.79275,0.95413 0.17722,0.2615 0.54094,0.7297 0.80846,1.0403 1.55439,1.80545 2.16445,2.57346 2.16445,2.72498 0,0.0938 0.3389,0.56218 0.75315,1.04076 0.41423,0.47858 0.75314,0.99547 0.75314,1.14858 0,0.15316 0.33891,0.61065 0.75316,1.01671 0.41423,0.40596 0.75314,0.86611 0.75314,1.02248 0,0.15628 0.26076,0.47699 0.57949,0.71271 0.31871,0.23564 0.75428,0.83463 0.96785,1.33111 0.21357,0.49649 0.55149,0.99 0.75087,1.09668 0.19938,0.10672 0.52008,0.56166 0.71264,1.01095 0.19641,0.45817 0.51953,0.87066 0.73592,0.93932 0.21213,0.0675 0.56992,0.38117 0.79518,0.69738 0.22517,0.31631 0.6722,0.69383 0.99334,0.83903 0.32116,0.14515 0.72258,0.36199 0.89191,0.48192 0.23762,0.16821 0.53889,0.14909 1.31799,-0.0835 2.09625,-0.62583 3.58585,-0.57295 3.85829,0.13695 0.0683,0.17822 -0.34148,0.78865 -1.10798,1.65037 -0.66908,0.75215 -1.31571,1.55735 -1.43695,1.78928 -0.12116,0.23193 -0.46598,0.54868 -0.76628,0.70398 -0.30028,0.15524 -0.59867,0.44846 -0.66317,0.65157 -0.0644,0.2031 -0.39481,0.54086 -0.73409,0.75064 -0.33937,0.2097 -0.7106,0.58669 -0.825,0.83782 -0.11964,0.26264 -0.48676,0.5486 -0.86422,0.67318 -0.36091,0.11912 -0.78728,0.41667 -0.9476,0.66134 -0.59579,0.90929 -2.87291,0.84844 -3.86892,-0.10339 -0.31576,-0.30181 -0.66323,-0.54869 -0.77218,-0.54869 -0.10896,0 -0.8687,-0.67788 -1.68823,-1.50629 -1.40259,-1.41776 -1.53771,-1.5063 -2.29844,-1.50598 -0.45065,1.5e-4 -1.09985,0.16288 -1.46729,0.36788 -0.36244,0.20219 -1.17543,0.62059 -1.80674,0.92984 -0.63123,0.30925 -1.28483,0.77158 -1.4525,1.02741 -0.16767,0.25591 -0.62553,0.56674 -1.01755,0.69086 -0.39201,0.12413 -1.01209,0.45977 -1.37793,0.74594 -0.59389,0.46454 -1.77934,1.0328 -3.75951,1.80203 -1.06466,0.41363 -3.149,0.34452 -4.12095,-0.13656 z m 7.72336,-6.76618 c 1.48481,-0.45105 3.46293,-1.7908 3.74698,-2.53789 0.30279,-0.79647 0.20751,-1.38724 -0.30681,-1.90156 -0.26887,-0.26889 -0.64131,-0.837 -0.82772,-1.26238 -0.31858,-0.72743 -1.36427,-1.85043 -2.7931,-2.99984 -1.47853,-1.18925 -3.82855,-0.12359 -4.94952,2.24449 -0.62242,1.31504 -0.65741,1.76835 -0.25074,3.24779 0.66627,2.42392 0.76043,2.57588 1.92607,3.10795 1.30988,0.59784 1.77533,0.6115 3.45484,0.10146 z m 99.49241,6.02843 c -0.96141,-0.758 -1.55129,-1.37846 -1.74004,-1.83024 -0.38193,-0.91407 -0.20819,-2.28526 0.33844,-2.67142 0.21987,-0.15537 0.63533,-0.5244 0.92325,-0.82021 0.5062,-0.52001 3.02571,-1.80521 3.5527,-1.81235 0.74943,-0.01 2.4752,1.02476 3.20484,1.92167 0.70042,0.86103 0.77264,1.04881 0.77264,2.00839 0,0.98258 -0.0577,1.12134 -0.80019,1.93351 -0.44261,0.48397 -1.19994,1.04661 -1.69459,1.25912 -0.49186,0.21123 -0.89434,0.45999 -0.89434,0.5527 0,0.26357 -0.89449,0.60567 -1.58368,0.60567 -0.47972,0 -0.96202,-0.266 -2.07903,-1.14684 z m 3.92954,-11.81637 c -1.11148,-0.58139 -2.60093,-2.00028 -2.80395,-2.6711 -0.0772,-0.25523 -0.3899,-0.72705 -0.6948,-1.04851 -0.46273,-0.48784 -0.59983,-0.86649 -0.8288,-2.28903 -0.15097,-0.93744 -0.39679,-1.99731 -0.54632,-2.35519 -0.3248,-0.77735 -0.28224,-6.28245 0.0592,-7.6688 0.34997,-1.42071 0.6143,-5.02689 0.48062,-6.55662 l -0.12632,-1.44554 -1.00685,-0.96131 -1.00693,-0.96142 -1.53353,-0.10511 c -1.67685,-0.11495 -2.17644,-0.3842 -1.96257,-1.05783 0.0691,-0.21865 0.20409,-0.39755 0.29938,-0.39755 0.0953,0 0.38928,-0.34224 0.6533,-0.76051 0.26402,-0.41826 0.70991,-0.84722 0.99085,-0.95336 0.28094,-0.10619 0.72545,-0.3977 0.98788,-0.64799 0.38185,-0.3641 0.9259,-0.5317 2.72467,-0.83919 2.14344,-0.36645 2.31763,-0.37008 3.75929,-0.0781 0.83151,0.16828 1.60454,0.38131 1.71789,0.47334 0.11335,0.0921 0.61378,0.97795 1.11208,1.96856 l 0.90587,1.80113 -0.11759,3.65625 c -0.10211,3.1713 -0.16888,3.75671 -0.50445,4.41442 -0.35697,0.69965 -0.36462,0.80109 -0.10006,1.31275 0.38229,0.73926 0.36523,0.89638 -0.16654,1.52822 -0.41789,0.49672 -0.45043,0.68235 -0.41774,2.38075 0.0273,1.43657 0.11534,1.97615 0.39802,2.45108 0.32244,0.5417 0.33519,0.68456 0.11547,1.29204 -0.2251,0.62258 -0.21076,0.73199 0.16266,1.23697 0.22526,0.30468 0.53935,0.99114 0.69807,1.5255 0.15865,0.53433 0.50262,1.38101 0.7643,1.88152 0.38435,0.73502 0.45377,1.07127 0.36083,1.74901 -0.21023,1.53368 -1.25334,3.01312 -2.44077,3.46179 -0.70535,0.26654 -0.81877,0.24681 -1.93327,-0.33617 z M 334.22717,482.80749 c -0.79973,-0.13611 -2.64029,-0.27951 -4.09006,-0.31865 -5.25974,-0.14195 -8.66822,-0.33329 -8.99962,-0.50506 -0.18618,-0.0965 -0.41151,-0.36751 -0.50065,-0.60209 -0.23519,-0.61864 0.0759,-2.96024 0.65269,-4.91666 0.28155,-0.95452 0.57258,-2.55958 0.66644,-3.67515 0.10458,-1.24334 0.37448,-2.65631 0.7253,-3.79578 0.33951,-1.10306 0.63388,-2.62012 0.75034,-3.86725 0.10544,-1.12862 0.28041,-2.28561 0.3889,-2.57111 0.10858,-0.28549 0.19733,-0.76984 0.19733,-1.07635 0,-0.3065 0.172,-1.04235 0.38224,-1.63527 0.24391,-0.6879 0.45164,-1.98411 0.57402,-3.58251 0.10543,-1.37747 0.34998,-3.02967 0.54337,-3.6715 0.4895,-1.62488 0.90731,-4.06375 1.03461,-6.03929 0.0637,-0.99601 0.28952,-2.2134 0.55764,-3.01259 0.54952,-1.63785 0.62273,-2.05892 0.85534,-4.91985 0.11047,-1.35782 0.34058,-2.71147 0.57615,-3.38912 0.5159,-1.48423 0.67773,-2.369 0.92954,-5.08229 0.11532,-1.24265 0.34042,-2.76366 0.50012,-3.38017 0.42759,-1.64999 0.81468,-4.39052 1.01186,-7.16381 0.0958,-1.34628 0.34225,-3.16789 0.5477,-4.04812 0.49315,-2.11203 0.73782,-3.63812 0.95777,-5.97282 0.0997,-1.0586 0.32236,-2.24481 0.49481,-2.63599 0.17245,-0.39125 0.33132,-1.17732 0.35301,-1.74687 0.022,-0.56954 0.13126,-1.36767 0.24346,-1.77358 0.11222,-0.40589 0.25758,-1.80391 0.32321,-3.10674 0.15667,-3.11205 0.39429,-4.90005 0.84548,-6.36075 0.50399,-1.63169 0.74191,-4.90307 0.86694,-11.91795 0.0751,-4.23354 0.18998,-6.36211 0.40022,-7.43732 0.41628,-2.12865 0.38251,-15.48721 -0.0447,-17.55393 -0.15675,-0.75899 -0.36674,-3.05083 -0.46659,-5.09299 -0.24489,-5.00717 -0.33238,-5.65562 -0.87651,-6.50034 -0.32411,-0.50308 -0.51174,-1.15729 -0.63039,-2.19814 -0.11532,-1.0111 -0.34573,-1.832 -0.72515,-2.58347 -0.30582,-0.60589 -0.65649,-1.48073 -0.77924,-1.94413 -0.12284,-0.46341 -0.41813,-1.05435 -0.6562,-1.31321 -0.23808,-0.25894 -0.58259,-0.76727 -0.76559,-1.12977 -0.57971,-1.14826 -2.54994,-2.92078 -3.74266,-3.36704 -0.58783,-0.21994 -1.41981,-0.57895 -1.84893,-0.7979 -0.5844,-0.2981 -1.46843,-0.4609 -3.52166,-0.64846 -1.50781,-0.13777 -2.9245,-0.2053 -3.14831,-0.14999 -0.22382,0.0553 -0.80117,-0.0744 -1.28302,-0.28708 -0.65232,-0.28861 -1.08863,-0.35841 -1.70863,-0.27343 -0.57562,0.0789 -0.92955,0.0334 -1.14652,-0.14643 -0.18255,-0.15152 -1.03121,-0.31683 -2.02676,-0.3949 -3.72074,-0.29171 -5.51109,-0.48798 -6.23154,-0.68312 -1.66032,-0.44974 -4.81962,-0.94927 -6.77825,-1.07172 -2.06272,-0.12897 -4.6292,-0.54003 -6.77825,-1.0856 -0.62136,-0.15774 -1.36031,-0.33769 -1.6421,-0.3999 -0.28177,-0.0622 -0.59821,-0.27351 -0.70315,-0.46963 -0.26342,-0.49223 -0.28466,-3.56908 -0.0288,-4.21715 0.11495,-0.29156 0.21084,-1.05413 0.21311,-1.6946 0,-0.77151 0.13558,-1.45046 0.39368,-2.01181 0.2607,-0.56711 0.4474,-1.53216 0.56463,-2.91843 0.26144,-3.09263 0.51211,-4.75772 0.80208,-5.32681 0.2628,-0.51575 0.65891,-2.3523 1.06427,-4.93472 0.12193,-0.77666 0.38891,-1.79339 0.59323,-2.25937 0.20568,-0.46924 0.45119,-1.64543 0.55013,-2.63597 0.52364,-5.24077 1.47092,-9.19027 2.31239,-9.64062 0.56181,-0.30067 2.0882,-0.0372 3.47644,0.59967 0.72622,0.33329 1.96227,0.68911 2.93778,0.84578 1.0957,0.17594 1.87586,0.4122 2.23289,0.67622 0.33648,0.24877 1.28727,0.55308 2.45822,0.78667 1.0501,0.20956 2.32029,0.58723 2.82253,0.83927 0.50234,0.25196 1.64613,0.58593 2.54191,0.74207 0.89571,0.15621 2.17933,0.52325 2.85242,0.81581 0.6732,0.29247 1.73224,0.63486 2.35361,0.76089 0.62135,0.12601 1.52252,0.42752 2.00263,0.67006 0.48009,0.24256 1.70863,0.58048 2.73012,0.75095 1.02141,0.17041 2.2385,0.47896 2.70448,0.68555 1.21458,0.53843 1.74794,0.6785 3.46401,0.90951 0.83903,0.11297 1.96181,0.40324 2.49494,0.64503 1.15722,0.5248 1.51419,0.60529 3.79753,0.85641 1.21663,0.13384 2.04678,0.34111 2.70828,0.67637 0.70814,0.35878 1.53763,0.55157 3.21932,0.74798 1.24599,0.14553 2.69637,0.42586 3.22306,0.62289 0.52667,0.1971 1.63526,0.45748 2.46352,0.57872 2.91487,0.42653 2.7654,0.35591 3.34952,1.58201 0.50961,1.06975 0.51666,1.12665 0.23429,1.88284 -0.35598,0.95313 -1.04229,4.93911 -1.04229,6.05362 0,0.44648 -0.16836,1.34887 -0.3741,2.00536 -0.32996,1.05245 -0.37442,1.73375 -0.37662,5.76419 0,3.95168 0.0441,4.70377 0.34255,5.55442 0.20242,0.5772 0.31023,1.27921 0.26083,1.69869 -0.0462,0.39323 0.0523,1.45228 0.21918,2.35351 0.16684,0.90132 0.38443,2.57066 0.48344,3.70982 0.11129,1.27968 0.3666,2.64076 0.6681,3.56173 0.26835,0.81984 0.64291,2.51436 0.83235,3.76565 0.19726,1.3029 0.54884,2.75919 0.8228,3.40788 0.26304,0.62302 0.57175,1.80414 0.68585,2.62468 0.13315,0.95775 0.37836,1.78358 0.68478,2.3064 0.26243,0.44785 0.59944,1.45303 0.74876,2.23364 0.2757,1.44088 0.44338,1.87426 1.05138,2.71723 0.18671,0.25886 0.43177,1.06171 0.54466,1.78412 0.13603,0.87105 0.38465,1.58445 0.7382,2.11818 0.29317,0.44261 0.5933,1.20616 0.6668,1.69665 0.14007,0.93394 0.47936,1.72366 1.06157,2.4708 0.19043,0.24439 0.40096,0.85695 0.46788,1.36125 0.0744,0.56074 0.36841,1.29993 0.75686,1.90293 0.34938,0.5423 0.63579,1.15829 0.6363,1.3689 0,0.74988 0.389,1.76029 0.93934,2.45275 0.36675,0.4615 0.60035,1.0177 0.68024,1.61956 0.16774,1.26458 0.40664,1.5214 1.51448,1.62791 1.1325,0.1088 1.47824,-0.15666 1.66813,-1.28066 0.0721,-0.42463 0.36371,-1.04061 0.64883,-1.36883 0.28511,-0.32813 0.66249,-1.03499 0.83849,-1.57069 0.17602,-0.5357 0.44809,-1.08022 0.6046,-1.21011 0.38291,-0.31781 0.74427,-1.06594 0.89388,-1.85065 0.0676,-0.35514 0.36652,-1.03304 0.66416,-1.50631 0.29756,-0.47333 0.64367,-1.30395 0.76907,-1.84588 0.12542,-0.54185 0.4757,-1.29689 0.77842,-1.67783 0.30271,-0.38094 0.68016,-1.13893 0.8388,-1.6845 0.15857,-0.5455 0.4631,-1.21398 0.67668,-1.48551 0.21357,-0.27154 0.54155,-1.08955 0.72886,-1.81773 0.18732,-0.7282 0.55256,-1.63468 0.81157,-2.01439 0.25901,-0.37973 0.57076,-1.07028 0.69275,-1.53453 0.12207,-0.4643 0.42828,-1.25129 0.6804,-1.74891 0.25218,-0.49763 0.59252,-1.51579 0.75641,-2.26256 0.16379,-0.74685 0.53433,-1.73913 0.82331,-2.20511 0.34741,-0.56014 0.598,-1.3252 0.73958,-2.25786 0.13101,-0.86323 0.4052,-1.73648 0.70647,-2.25071 0.34612,-0.59048 0.59527,-1.47321 0.83828,-2.97003 0.22571,-1.39014 0.51614,-2.45541 0.83616,-3.06744 0.39686,-0.75898 0.52355,-1.35395 0.66483,-3.12221 0.11061,-1.38369 0.29642,-2.4366 0.50695,-2.87216 0.30734,-0.63593 0.32222,-1.22573 0.19794,-7.84247 -0.0744,-3.93513 -0.22845,-7.87499 -0.34337,-8.75521 -0.11495,-0.88024 -0.27852,-2.36302 -0.36357,-3.29506 -0.10608,-1.16291 -0.29596,-1.98062 -0.60544,-2.60638 l -0.45081,-0.91187 0.44345,-0.35908 c 0.39323,-0.31842 0.77683,-0.35969 3.38807,-0.36463 3.4527,-0.009 7.47654,-0.39998 9.36946,-0.9161 0.73759,-0.20114 2.47452,-0.46145 3.85981,-0.5785 2.1662,-0.18301 6.26757,-0.92863 6.75086,-1.22734 0.0862,-0.0531 1.28735,-0.22836 2.66928,-0.38927 2.86162,-0.33314 3.71445,-0.50149 4.76636,-0.94099 0.40932,-0.17101 1.63718,-0.39354 2.72855,-0.49445 1.09145,-0.10092 2.45048,-0.33814 3.02003,-0.52721 1.66925,-0.55422 3.20271,-0.90033 4.61294,-1.04137 0.72493,-0.0729 1.52982,-0.26713 1.78877,-0.43252 0.25886,-0.1654 0.85193,-0.35659 1.31798,-0.42487 0.46599,-0.0682 1.22854,-0.21592 1.69454,-0.32798 0.46604,-0.11213 1.44423,-0.29012 2.17385,-0.39557 0.72963,-0.10555 1.83109,-0.42807 2.44775,-0.71682 0.99986,-0.46817 1.33141,-0.52493 3.06584,-0.52493 1.70773,0 1.97745,0.0447 2.2124,0.36546 0.21616,0.29528 0.26934,1.41631 0.27677,5.8368 0.009,3.00924 0.10157,9.24177 0.21427,13.85002 0.24557,10.03423 0.26493,12.917 0.0911,13.59816 -0.18482,0.72408 -0.66203,0.91102 -2.63302,1.03166 -1.22345,0.0751 -2.05876,0.24224 -2.85395,0.57174 -0.84782,0.35134 -1.31987,0.43912 -1.92024,0.3568 -0.46416,-0.0637 -1.09439,-0.009 -1.51175,0.13999 -0.39367,0.13702 -1.52678,0.30097 -2.51807,0.36439 -0.9913,0.0637 -2.951,0.32745 -4.35485,0.58677 -2.63522,0.4867 -5.55753,0.73714 -12.18344,1.04425 -3.52735,0.16351 -3.99865,0.22747 -5.74271,0.77902 -1.39364,0.4408 -2.07562,0.76764 -2.55897,1.22626 -1.94223,1.84293 -2.84135,2.86844 -3.03345,3.46007 -0.11768,0.36242 -0.42593,0.94251 -0.68487,1.28908 -0.25901,0.34657 -0.62022,1.21063 -0.80276,1.92023 -0.18247,0.70959 -0.5106,1.51745 -0.72903,1.79513 -0.46454,0.59064 -0.69117,1.40015 -0.86521,3.0918 -0.12404,1.20471 -0.33731,2.22279 -0.92104,4.39613 -0.38996,1.45182 -0.71961,6.55299 -0.6901,10.67987 0.016,2.23796 -0.0773,3.97406 -0.2883,5.36617 -0.23435,1.54613 -0.28443,2.7296 -0.20142,4.75939 0.0937,2.29441 0.0637,2.79104 -0.20083,3.29505 -0.47821,0.91148 -0.42828,5.51707 0.0829,7.65406 0.50734,2.12113 0.56857,2.6202 0.8901,7.25251 0.19778,2.8503 0.38473,4.31418 0.66826,5.2322 0.2166,0.70102 0.51309,2.30928 0.65899,3.57386 0.14588,1.26459 0.35445,3.06176 0.46347,3.9938 0.10911,0.93197 0.37821,2.11818 0.59808,2.63598 0.25741,0.60634 0.4521,1.61152 0.54701,2.82428 0.1726,2.20626 0.42349,3.56203 0.84321,4.55561 0.16636,0.39398 0.43054,1.68905 0.58699,2.87799 0.15652,1.18894 0.53518,2.916 0.84146,3.83803 0.35999,1.08364 0.62833,2.41657 0.75876,3.76939 0.11099,1.15108 0.31948,2.41065 0.46325,2.79893 0.14376,0.38837 0.38055,1.02385 0.52615,1.41216 0.14559,0.38836 0.36326,1.53359 0.48374,2.54508 0.12048,1.0114 0.46878,2.57793 0.77409,3.48115 0.30529,0.90313 0.64009,2.40565 0.74388,3.33881 0.26706,2.39966 0.37039,2.87588 0.85701,3.94806 0.27828,0.61301 0.50589,1.65014 0.64231,2.92648 0.25651,2.40055 0.3062,2.62672 0.88401,4.02285 0.27685,0.66902 0.56152,1.94633 0.7219,3.23928 0.16478,1.32786 0.44079,2.55275 0.73022,3.2405 0.256,0.60816 0.56439,1.86173 0.68548,2.78582 0.12109,0.92407 0.49914,2.52748 0.84025,3.56301 0.34103,1.03561 0.6794,2.43364 0.75194,3.10674 0.0728,0.67311 0.37911,1.79262 0.68122,2.48788 0.40218,0.92537 0.59761,1.77055 0.72947,3.1547 0.0991,1.03985 0.29725,2.12325 0.44035,2.40753 0.40399,0.80239 1.02445,3.04173 1.16344,4.19888 0.14628,1.21813 -0.14893,2.5422 -0.62114,2.78581 -0.56878,0.29347 -1.77175,0.4402 -4.08879,0.49869 -1.24265,0.0311 -2.49789,0.15013 -2.78945,0.26386 -0.29149,0.1138 -1.33316,0.2069 -2.31483,0.2069 -0.98166,0 -2.31065,0.12465 -2.95325,0.27707 -1.23795,0.29368 -12.2093,0.69829 -20.88433,0.77029 -2.48479,0.0205 -4.99079,0.13634 -5.65093,0.26083 -1.80878,0.34134 -35.40558,0.38147 -37.38423,0.0447 z m -71.68431,-35.0861 c -1.34986,-0.1336 -1.76077,-0.24657 -2.02001,-0.55528 -0.30211,-0.35992 -0.30385,-0.43692 -0.0235,-1.07787 0.16593,-0.37964 0.34004,-0.90207 0.38686,-1.16093 0.0471,-0.25894 0.25574,-1.35078 0.46432,-2.42644 0.20862,-1.07559 0.33677,-2.17704 0.28488,-2.44766 -0.11282,-0.58859 0.28276,-2.86518 0.90345,-5.1992 0.24778,-0.93196 0.53995,-2.71678 0.6492,-3.96619 0.11395,-1.30357 0.36341,-2.74795 0.5854,-3.38911 0.43412,-1.25404 0.70642,-3.00068 0.92263,-5.91875 0.10774,-1.45363 0.25333,-2.1756 0.55005,-2.72731 0.222,-0.41272 0.40354,-1.05829 0.40354,-1.4346 0,-0.37631 0.11867,-1.3943 0.26357,-2.26218 0.145,-0.86793 0.31759,-2.23015 0.38352,-3.02729 0.066,-0.79709 0.33277,-2.1527 0.59292,-3.01251 0.3018,-0.99776 0.57364,-2.61922 0.75131,-4.48171 0.16889,-1.77116 0.46084,-3.54762 0.74254,-4.51889 0.2553,-0.88023 0.50672,-1.98169 0.55877,-2.44767 0.51378,-4.59976 0.7398,-6.03216 1.06974,-6.77825 0.22184,-0.50157 0.44687,-1.61562 0.55157,-2.73013 0.30142,-3.20916 0.70899,-5.82359 1.02604,-6.58243 0.16706,-0.39983 0.41903,-1.92077 0.55991,-3.37987 0.14098,-1.45903 0.3924,-3.03406 0.55878,-3.50012 0.48282,-1.35213 0.64313,-2.2577 0.92916,-5.24904 0.14787,-1.54657 0.39087,-3.05287 0.54003,-3.3474 0.34285,-0.67682 0.85572,-3.69502 1.07437,-6.32189 0.10834,-1.30244 0.30364,-2.32719 0.5493,-2.88248 0.35726,-0.80762 0.57803,-2.23493 0.94896,-6.13398 0.0849,-0.89274 0.36964,-2.37543 0.63274,-3.29496 0.26312,-0.91961 0.61416,-2.85812 0.78001,-4.30796 0.16585,-1.44978 0.50619,-3.39854 0.75618,-4.33051 0.25006,-0.93205 0.54777,-2.62657 0.66158,-3.76574 0.36947,-3.69814 0.56832,-4.88957 1.03833,-6.22167 0.25416,-0.72031 0.46462,-1.64863 0.46759,-2.06287 0.0114,-1.54089 0.57628,-5.25852 1.01131,-6.6539 0.266,-0.85306 0.50248,-2.21164 0.57888,-3.32517 0.22541,-3.28707 1.21534,-7.29135 1.91614,-7.7505 0.52652,-0.34497 3.59995,-0.0751 4.28946,0.37661 0.66931,0.43852 0.77294,1.23196 0.32889,2.51724 -0.23231,0.67242 -0.41417,1.81326 -0.47403,2.97382 -0.0982,1.90278 -0.41994,3.69442 -1.06489,5.93095 -0.19415,0.6731 -0.40514,2.15588 -0.46887,3.29498 -0.0721,1.29203 -0.2858,2.67314 -0.56757,3.67158 -0.66105,2.34205 -0.79298,3.0562 -1.01884,5.51389 -0.11957,1.30063 -0.35978,2.62521 -0.58055,3.20082 -0.20704,0.54004 -0.46098,1.78686 -0.56424,2.77065 -0.43381,4.13331 -0.61385,5.24782 -1.05753,6.54578 -0.31402,0.91878 -0.52357,2.09344 -0.6382,3.57743 -0.19787,2.56285 -0.43677,3.98696 -0.95404,5.68794 -0.20394,0.67053 -0.49065,2.44988 -0.63723,3.95405 -0.1679,1.72229 -0.44717,3.32736 -0.7545,4.33528 -0.28968,0.95003 -0.56486,2.48029 -0.67705,3.76566 -0.10404,1.1909 -0.34825,2.80075 -0.5427,3.57743 -0.47546,1.89929 -0.9328,4.61819 -1.12832,6.70799 -0.0903,0.96437 -0.30484,1.99693 -0.48912,2.35329 -0.18057,0.34915 -0.31615,0.94434 -0.30136,1.32254 0.0152,0.37828 -0.14019,1.47989 -0.34459,2.44797 -0.20431,0.96816 -0.37281,2.18662 -0.37448,2.70776 0,0.52106 -0.12207,1.36835 -0.26774,1.88282 -0.14567,0.51447 -0.3987,1.40145 -0.56234,1.97099 -0.16365,0.56955 -0.43055,2.4259 -0.59313,4.12512 -0.22762,2.37917 -0.40378,3.35333 -0.76613,4.23643 -0.25879,0.63077 -0.50764,1.52807 -0.55285,1.99413 -0.0456,0.46598 -0.17419,1.90143 -0.28649,3.18982 -0.12351,1.41844 -0.38132,2.90402 -0.6533,3.76574 -0.24718,0.78273 -0.53745,2.22802 -0.64518,3.21181 -0.32009,2.92466 -0.59087,4.54081 -0.97787,5.8368 -0.20097,0.67309 -0.47987,2.41005 -0.6197,3.85988 -0.13983,1.44977 -0.38238,2.97488 -0.53897,3.38913 -0.37495,0.99175 -0.83092,3.64108 -1.06945,6.2134 -0.11069,1.19349 -0.38792,2.66951 -0.65421,3.48328 -0.2889,0.88251 -0.60535,2.64782 -0.84404,4.70712 -0.20999,1.81219 -0.55081,3.91891 -0.75731,4.68154 -0.20652,0.76264 -0.43025,1.94883 -0.49717,2.63597 -0.0667,0.68715 -0.23345,1.52481 -0.37002,1.86137 -0.28192,0.69465 -0.30468,0.6973 -3.37424,0.39345 z M 444.00358,325.77442 c -1.46411,-0.59465 -1.50515,-0.70377 -1.02043,-2.71435 l 0.42123,-1.74726 -0.40166,-1.69095 c -0.27775,-1.16966 -0.36485,-1.96764 -0.28253,-2.58825 0.1707,-1.28704 0.24649,-1.41404 1.1661,-1.95293 0.78539,-0.4603 0.85238,-0.46955 1.2959,-0.1789 0.25728,0.1685 0.46774,0.37751 0.46774,0.46446 0,0.0868 0.24551,0.46704 0.54565,0.84464 0.52204,0.65695 0.55156,0.7986 0.68167,3.27381 0.0864,1.6427 0.26426,2.99961 0.48746,3.71687 0.48693,1.56503 0.46053,1.71092 -0.42509,2.35238 -0.90641,0.65665 -1.71303,0.71719 -2.93604,0.22048 z m -2.86456,-14.70606 c -0.21684,-0.30454 -0.56166,-0.60687 -0.7662,-0.67174 -0.74298,-0.2358 -0.82546,-0.75223 -0.85724,-5.36451 -0.0167,-2.43355 0.041,-4.56251 0.12769,-4.73093 0.087,-0.16844 0.53882,-0.69792 1.0042,-1.17673 0.77059,-0.7929 0.92658,-0.87111 1.74747,-0.87673 0.4958,0 1.36738,-0.17011 1.93693,-0.37048 0.56962,-0.20028 1.31267,-0.36696 1.65128,-0.37038 0.59017,-0.009 1.93714,0.68441 2.21611,1.13567 0.0736,0.11866 0.11843,1.61791 0.10028,3.33176 -0.0242,2.31051 -0.10716,3.29104 -0.32009,3.79299 -0.18307,0.43176 -0.25174,0.98386 -0.18952,1.52427 0.0772,0.67007 -0.009,1.06375 -0.40938,1.88284 l -0.5068,1.03552 -1.88284,0.47796 c -1.0356,0.26282 -2.06794,0.58056 -2.29419,0.70605 -0.66043,0.36644 -1.13574,0.26705 -1.55772,-0.32556 z m -153.68154,-5.27339 c -0.58783,-0.0799 -1.57989,-0.41136 -2.20467,-0.73654 -0.62478,-0.32516 -1.27034,-0.59116 -1.43459,-0.59116 -0.16434,0 -0.51849,-0.21979 -0.78714,-0.48845 l -0.48837,-0.48836 0.13535,-3.13534 c 0.0744,-1.7245 0.25044,-4.06731 0.39111,-5.20625 0.28883,-2.33873 0.32077,-2.38584 2.28963,-3.38276 l 1.06444,-0.53897 0.86316,0.4848 c 0.52432,0.29445 1.40614,0.55991 2.24623,0.67615 2.40276,0.33237 2.6356,0.90959 2.21566,5.49083 -0.16386,1.78754 -0.44526,3.62432 -0.66316,4.32891 -0.20826,0.6731 -0.47258,1.66311 -0.58738,2.20004 -0.11486,0.53691 -0.32251,1.07057 -0.4615,1.1859 -0.35567,0.2952 -1.32952,0.37114 -2.57877,0.2012 z m 76.57093,-2.25549 c -1.0582,-0.29362 -2.33985,-0.96596 -2.62944,-1.37945 -0.33982,-0.48518 -0.39346,-2.41778 -0.0832,-2.99749 0.11313,-0.21145 0.82781,-0.6719 1.58808,-1.02317 1.65265,-0.76361 2.93407,-0.85002 3.89714,-0.26281 0.33907,0.20675 0.76984,0.37617 0.95724,0.37662 0.18747,0 0.81042,0.44482 1.38444,0.98773 1.00625,0.95162 1.04039,1.01596 0.95239,1.79635 -0.12504,1.10957 -0.47578,1.42297 -2.24784,2.00861 -1.70697,0.56415 -2.97427,0.72795 -3.81885,0.49361 z m 12.20422,-3.44982 c -0.48018,-0.44012 -1.09257,-0.99086 -1.36078,-1.22377 -0.26826,-0.23299 -0.8256,-0.73175 -1.23854,-1.10852 -0.41289,-0.37668 -1.0907,-0.84108 -1.50623,-1.03195 -0.41561,-0.19082 -0.97695,-0.526 -1.24751,-0.74474 -0.60331,-0.48783 -2.0077,-0.70716 -5.52034,-0.86231 -3.27896,-0.14477 -5.52528,0.14179 -6.31416,0.80558 -0.29558,0.24868 -0.8627,0.58721 -1.26033,0.75222 -0.41287,0.17147 -1.36882,0.96733 -2.22917,1.85605 -1.65545,1.71009 -2.45488,2.1002 -3.10242,1.51419 -0.1908,-0.17268 -0.39717,-0.51393 -0.45855,-0.75838 -0.0614,-0.24438 -0.36333,-0.62364 -0.67121,-0.84283 -0.3678,-0.26197 -0.62887,-0.66961 -0.76141,-1.18931 -0.111,-0.43488 -0.44998,-1.2991 -0.75323,-1.92046 -0.41736,-0.85497 -0.60444,-1.61046 -0.76938,-3.10667 -0.27305,-2.47621 -0.27258,-2.31072 -0.0137,-4.88161 0.17405,-1.72616 0.30613,-2.2844 0.66856,-2.8242 0.791,-1.17862 0.82362,-2.08412 0.0892,-2.47726 -0.19886,-0.1064 -1.31155,-0.27109 -2.47265,-0.36607 -1.16117,-0.0949 -2.91608,-0.34436 -3.89986,-0.55414 -0.98379,-0.20978 -3.52569,-0.5562 -5.64857,-0.76978 -3.03194,-0.30505 -4.20312,-0.50422 -5.46025,-0.92862 -0.88023,-0.2971 -2.2011,-0.63631 -2.93528,-0.7536 -0.73419,-0.11737 -1.62382,-0.39862 -1.97699,-0.62508 -0.35317,-0.22647 -0.98007,-0.58184 -1.39301,-0.78972 -1.05928,-0.53336 -1.04616,-0.89017 0.0713,-1.95634 0.84397,-0.80498 1.07446,-0.92211 2.03708,-1.03523 0.597,-0.0697 1.8367,-0.38556 2.75501,-0.7008 1.50349,-0.51629 2.01856,-0.59071 5.18,-0.74867 3.19065,-0.1594 4.41092,-0.25522 9.159,-0.71945 1.38415,-0.13536 3.24134,-0.71272 3.81278,-1.18538 0.13428,-0.11108 0.23534,-0.62409 0.23534,-1.19493 0,-0.55013 0.0981,-1.23878 0.2179,-1.53027 0.11987,-0.29157 0.2836,-1.08082 0.36386,-1.75393 0.0803,-0.6731 0.27108,-2.02873 0.42403,-3.01251 0.15303,-0.98378 0.33641,-2.83915 0.4075,-4.12307 0.0713,-1.28393 0.24816,-2.67104 0.39329,-3.08255 0.38512,-1.09144 0.79844,-3.98485 1.01497,-7.10403 0.19916,-2.86918 0.31433,-3.68007 0.93608,-6.59001 0.21014,-0.98379 0.46916,-3.21743 0.57546,-4.96363 0.1064,-1.74618 0.27434,-3.52546 0.37327,-3.95395 0.0989,-0.42852 0.18194,-1.09199 0.18443,-1.47437 0,-0.38245 0.16578,-0.97551 0.36265,-1.31798 0.27928,-0.48564 0.40286,-1.28582 0.56165,-3.63525 0.26774,-3.9617 0.46447,-5.63249 0.93129,-7.908 0.21243,-1.03553 0.43633,-2.1945 0.49755,-2.57543 0.0615,-0.38101 0.27253,-0.88934 0.46962,-1.12977 0.31979,-0.38995 0.3896,-0.4065 0.64739,-0.15355 0.15887,0.15599 0.41569,0.9463 0.57068,1.75635 0.15501,0.81013 0.45833,1.75833 0.67396,2.10725 0.21561,0.34892 0.55944,1.23863 0.76413,1.97714 0.20462,0.73843 0.61379,1.82312 0.90921,2.41042 0.29544,0.58737 0.59656,1.42352 0.66909,1.85824 0.0729,0.43481 0.38276,1.16905 0.68926,1.63179 0.32875,0.49625 0.62767,1.27359 0.7288,1.89534 0.18793,1.15428 0.25802,1.32278 0.80344,1.92949 0.20288,0.22556 0.4886,0.98174 0.63503,1.68027 0.15295,0.72962 0.50491,1.63049 0.82712,2.11688 0.30848,0.46576 0.56134,0.89579 0.56196,0.95572 0.009,0.8888 0.47243,2.48651 0.92688,3.19474 0.31053,0.48382 0.66143,1.34318 0.77985,1.90954 0.11844,0.56637 0.45817,1.45971 0.75489,1.98517 0.2968,0.52546 0.63532,1.41518 0.75224,1.97699 0.11699,0.56188 0.45142,1.40288 0.74328,1.86887 0.39635,0.63289 0.93713,2.43076 0.93713,3.11539 0,0.0182 0.24566,0.34277 0.54588,0.7206 0.38564,0.48518 0.60938,1.05943 0.76209,1.95581 0.14287,0.83827 0.39908,1.52694 0.7552,2.02926 0.31592,0.44565 0.62281,1.21344 0.74139,1.85499 0.11122,0.60201 0.44876,1.53072 0.74988,2.06385 0.30113,0.53312 0.64444,1.43277 0.76287,1.99913 0.11843,0.56637 0.4596,1.41367 0.7583,1.88284 0.29862,0.46917 0.63267,1.34621 0.7423,1.94891 0.10963,0.6027 0.30696,1.29105 0.43867,1.52965 0.13156,0.23861 0.393,0.70505 0.58093,1.0366 0.18792,0.33147 0.41643,1.06163 0.50771,1.62253 0.10479,0.64374 0.36583,1.28074 0.70815,1.72744 0.29817,0.38921 0.76575,1.01573 1.03903,1.39242 0.42646,0.58776 0.66445,0.71923 1.68025,0.92833 0.65096,0.1339 1.98837,0.26621 2.97216,0.29399 3.13565,0.0885 5.86668,0.37987 8.19038,0.87393 1.24273,0.26425 3.10675,0.53829 4.14228,0.60907 1.47033,0.10049 2.15679,0.24809 3.13322,0.67355 0.78462,0.34188 2.01211,0.65742 3.29504,0.84678 1.4019,0.20705 2.39881,0.47411 3.17146,0.8495 0.61984,0.3012 1.43657,0.54762 1.81493,0.54762 0.94015,0 1.57935,0.53153 1.41699,1.17831 -0.17813,0.70976 -1.78488,1.56919 -3.41734,1.82791 -1.21094,0.19188 -2.88339,0.56415 -5.55441,1.23627 -0.65179,0.16404 -2.67567,0.30127 -5.46035,0.37024 -7.90572,0.19582 -11.54142,0.53594 -12.37908,1.15806 -0.99502,0.73904 -1.11232,1.17741 -0.73145,2.73453 0.72484,2.96418 0.56712,7.48679 -0.3273,9.38175 -0.2688,0.56955 -0.57849,1.39675 -0.68821,1.83823 -0.1097,0.44148 -0.4288,1.07695 -0.70929,1.41213 -0.28041,0.33519 -0.66878,0.92226 -0.86308,1.30456 -0.24445,0.48094 -0.57918,0.78555 -1.08643,0.9885 -0.40332,0.16137 -0.77577,0.29338 -0.82773,0.29338 -0.0523,0 -0.48746,-0.36007 -0.96771,-0.80018 z m 47.63218,-5.95918 c -0.82643,-0.59867 -0.99237,-1.10465 -0.99426,-3.03147 0,-1.41268 0.29224,-2.35648 0.87605,-2.81571 0.47198,-0.37123 0.72599,-0.38511 7.05821,-0.38511 h 6.56854 l 1.03402,-1.00154 1.03408,-1.00155 -0.11358,-2.52876 c -0.0622,-1.39091 -0.20135,-2.81679 -0.30871,-3.16866 -0.35073,-1.14979 -0.82589,-5.21597 -0.99234,-8.49197 -0.0668,-1.31162 -0.23315,-3.17897 -0.63792,-7.15486 -0.0896,-0.88022 -0.25977,-1.84179 -0.37804,-2.13684 -0.11844,-0.29505 -0.33852,-2.66746 -0.48928,-5.27203 -0.15083,-2.60449 -0.37183,-5.27066 -0.49125,-5.92472 -0.11935,-0.65407 -0.16365,-1.67085 -0.0983,-2.25945 0.0962,-0.86717 0.0501,-1.1818 -0.2424,-1.65841 -0.29748,-0.4848 -0.39748,-1.21359 -0.56834,-4.14226 -0.30605,-5.24479 -0.75678,-9.84114 -1.05943,-10.803 -0.14658,-0.46599 -0.35285,-2.37241 -0.45839,-4.23643 -0.2814,-4.97061 -0.55103,-7.70642 -0.93728,-9.50838 -0.31409,-1.46533 -0.58494,-4.43641 -0.68661,-7.53139 -0.022,-0.67311 -0.10038,-1.9864 -0.17404,-2.91844 -0.14385,-1.82085 0.11205,-4.10396 0.55597,-4.96052 0.45096,-0.87028 1.19189,-1.53527 1.71059,-1.53527 0.39619,0 0.55856,0.15447 0.84648,0.80527 0.19589,0.44293 0.57288,1.00883 0.83774,1.25768 0.98394,0.9243 1.88313,6.01903 2.19481,12.435 0.17548,3.61271 0.28131,4.57966 0.57682,5.2693 0.254,0.59284 0.32631,1.05525 0.24247,1.55136 -0.0691,0.40856 0,1.20403 0.16327,1.88549 0.15546,0.64829 0.3361,2.28022 0.40127,3.62651 0.23109,4.77008 0.50066,7.56 0.95503,9.88492 0.26654,1.36381 0.54777,3.77885 0.66879,5.74272 0.45528,7.39081 0.59936,8.74741 1.09812,10.33686 0.10081,0.32099 0.27441,2.39183 0.38602,4.6018 0.11168,2.20998 0.32168,4.66713 0.46674,5.46026 0.42342,2.3143 0.73524,4.73738 0.77932,6.05507 0.0227,0.67312 0.0914,1.60515 0.15287,2.07114 0.0614,0.46605 0.19035,2.30184 0.28611,4.0796 0.0978,1.81507 0.27358,3.41826 0.40103,3.65641 0.12489,0.2333 0.24597,0.93933 0.26919,1.56904 0.0235,0.62964 0.144,1.52602 0.2685,1.99207 0.12458,0.46599 0.30529,1.14873 0.40165,1.51715 0.14976,0.57296 0.33716,0.7473 1.29515,1.20524 l 1.12005,0.53534 1.10684,-0.31061 c 0.6087,-0.17077 2.03373,-0.40248 3.16667,-0.51498 1.46952,-0.14583 2.45527,-0.36175 3.43921,-0.75347 0.75861,-0.30195 1.55795,-0.54897 1.77639,-0.54897 0.21834,0 0.87787,-0.13491 1.46548,-0.29976 1.02763,-0.28839 1.09811,-0.28467 1.84428,0.096 0.42668,0.21766 0.89578,0.62796 1.04251,0.91171 0.37836,0.73183 0.73213,3.84397 0.50498,4.4415 -0.32972,0.86725 -0.67477,0.92036 -4.87668,0.75049 -2.13919,-0.0864 -5.52331,-0.15135 -7.52024,-0.14415 -4.11648,0.0152 -4.05571,-0.009 -4.44074,1.50349 -0.56037,2.19661 -3.92073,3.00341 -4.35098,1.04456 -0.2311,-1.05215 -0.66104,-1.23523 -2.79432,-1.1897 -2.62156,0.0562 -4.66705,0.35712 -6.10681,0.89904 -0.66544,0.25052 -2.19791,0.59519 -3.40543,0.76597 -1.20761,0.17079 -2.42438,0.42593 -2.70404,0.56696 -0.76907,0.38791 -1.33505,0.31221 -2.16574,-0.28951 z M 288.62404,289.2645 c -1.28795,-0.11326 -1.38461,-0.26752 -1.27452,-2.03297 0.0584,-0.94101 0.2251,-1.76949 0.43571,-2.16954 0.33139,-0.62948 0.39429,-0.95967 0.82226,-4.31867 0.19127,-1.50128 0.49671,-3.13306 1.24622,-6.65753 0.17305,-0.81392 0.38458,-2.35292 0.47,-3.42008 0.10941,-1.36739 0.27352,-2.17205 0.55582,-2.72536 0.24786,-0.48585 0.47198,-1.44317 0.58775,-2.51102 0.42774,-3.94365 0.77211,-6.01569 1.20608,-7.25803 0.31236,-0.89381 0.51902,-2.05832 0.64511,-3.63419 0.11905,-1.48817 0.34854,-2.82481 0.64064,-3.73105 0.25029,-0.77668 0.55217,-2.30178 0.67083,-3.38913 0.3295,-3.01987 0.28853,-2.91814 1.43733,-3.56651 1.217,-0.68684 1.88177,-0.72272 2.73513,-0.14764 1.48847,1.00306 1.90514,2.7104 1.09031,4.46729 -0.29057,0.62653 -0.43556,1.47178 -0.5565,3.24383 -0.0988,1.44834 -0.28435,2.67756 -0.46886,3.10674 -0.40598,0.94403 -0.81224,2.8145 -1.01315,4.66411 -0.15826,1.45766 -0.35439,2.47369 -1.15744,5.99703 -0.20888,0.91649 -0.45408,2.56868 -0.5449,3.6715 -0.1094,1.32892 -0.32039,2.41786 -0.62568,3.22897 -0.25333,0.6731 -0.5169,1.77456 -0.58571,2.44767 -0.2726,2.667 -0.53116,4.13111 -1.06041,6.00499 -0.30394,1.07628 -0.55262,2.35344 -0.55262,2.83817 0,1.13401 -0.53018,4.25045 -0.85816,5.04411 -0.38845,0.93995 -1.07407,1.091 -3.84524,0.84731 z"
     id="path4524"
     inkscape:connector-curvature="0" />
</svg>
